<?xml version="1.0" encoding="utf-8" ?>
<svg baseProfile="full" height="300mm" version="1.1" viewBox="0,0,200,300" width="200mm" xmlns="http://www.w3.org/2000/svg" xmlns:ev="http://www.w3.org/2001/xml-events" xmlns:xlink="http://www.w3.org/1999/xlink"><defs /><rect fill="#222222" height="300" width="200" x="0" y="0" /><text fill="#FFFFFF" style="font-size:12px; font-family:Arial; font-weight:bold;" x="10" y="20">Over 2km Runs</text><text fill="#FFFFFF" style="font-size:4px; font-family:Arial" x="10" y="280">ATHLETE</text><text fill="#FFFFFF" style="font-size:9px; font-family:Arial" x="10" y="290">WonSikin</text><text fill="#FFFFFF" style="font-size:4px; font-family:Arial" x="120" y="280">STATISTICS</text><text fill="#FFFFFF" style="font-size:3px; font-family:Arial" x="120" y="285">Number: 16</text><text fill="#FFFFFF" style="font-size:3px; font-family:Arial" x="120" y="290">Weekly: 1.3</text><text fill="#FFFFFF" style="font-size:3px; font-family:Arial" x="141" y="285">Total: 54.6 km</text><text fill="#FFFFFF" style="font-size:3px; font-family:Arial" x="141" y="290">Avg: 3.4 km</text><text fill="#FFFFFF" style="font-size:3px; font-family:Arial" x="167" y="285">Min: 2.1 km</text><text fill="#FFFFFF" style="font-size:3px; font-family:Arial" x="167" y="290">Max: 5.7 km</text><polyline fill="none" points="35.15504790097475,61.46311574243009 32.50000000372529,61.46311574243009 27.853666178882122,57.47950935084373 17.897236563265324,53.495902865193784 15.242188666015863,50.17623072117567 13.250902742147446,46.856558511033654 13.250902742147446,43.536886234767735 14.57842668890953,39.55327941477299 17.897236563265324,35.56967250071466 23.207332361489534,34.241803508251905 28.517428155988455,36.23360699415207 47.76652541384101,49.512296283617616 50.42157331109047,53.495902865193784 50.42157331109047,57.47950935084373 45.77523948997259,70.09426259528846 43.12019159272313,72.75 37.81009579822421,72.08606565184891 33.827523950487375,69.43032823875546 32.50000000372529,66.77459078188986 32.50000000372529,62.12705013062805 30.508714079856873,59.471312559209764 21.87980841100216,55.48770611919463 17.897236563265324,52.16803401429206 15.905950643122196,47.52049295697361 15.905950643122196,42.20901730470359 17.897236563265324,38.22541045490652 21.87980841100216,34.90573800727725 27.18990420922637,34.90573800727725 41.792667645961046,44.86475515272468 49.094049364328384,51.504099586978555 50.42157331109047,54.823771703988314 50.42157331109047,58.80737815797329 48.43028738722205,66.11065641138703 45.11147751659155,72.08606565184891 41.792667645961046,72.75 38.47385777160525,72.08606565184891 28.517428155988455,57.47950935084373 18.560998536646366,50.840165155008435 16.56971261277795,44.86475515272468 18.560998536646366,38.22541045490652 22.5435703843832,34.90573800727725 29.181190129369497,36.23360699415207 48.43028738722205,51.504099586978555 49.75781133770943,58.80737815797329 45.77523948997259,68.76639387849718 41.12890566885471,71.4221313027665 37.14633382111788,70.09426259528846 32.50000000372529,65.4467220371589 29.181190129369497,58.80737815797329 18.560998536646366,51.504099586978555 16.56971261277795,46.856558511033654 17.897236563265324,38.22541045490652 23.207332361489534,34.241803508251905 27.853666178882122,34.241803508251905 45.11147751659155,46.856558511033654 49.75781133770943,52.83196844160557 50.42157331109047,58.14344375580549 47.76652541384101,68.10245951637626 43.783953566104174,72.08606565184891 38.47385777160525,71.4221313027665 35.15504790097475,67.43852515053004 29.84495210275054,59.471312559209764 19.2247605137527,52.16803401429206 16.56971261277795,46.192624061368406 17.897236563265324,38.88934493530542 21.87980841100216,34.90573800727725 27.853666178882122,35.56967250071466 44.447715543210506,47.52049295697361 47.10276344045997,50.17623072117567 48.43028738722205,54.823771703988314 46.439001467078924,63.45491890143603 42.45642961934209,68.76639387849718 39.137619748711586,70.75819695089012 37.14633382111788,70.09426259528846 33.16376197710633,66.77459078188986 28.517428155988455,57.47950935084373 19.88852248713374,52.16803401429206 15.905950643122196,48.18442740291357 15.905950643122196,40.881148365326226 17.897236563265324,36.23360699415207 22.5435703843832,34.241803508251905 28.517428155988455,35.56967250071466 46.439001467078924,48.18442740291357 49.094049364328384,52.16803401429206 49.094049364328384,55.48770611919463 42.45642961934209,70.75819695089012 39.137619748711586,72.08606565184891 37.14633382111788,72.08606565184891 33.16376197710633,68.76639387849718 29.84495210275054,58.14344375580549 21.87980841100216,53.495902865193784 17.897236563265324,49.512296283617616 17.23347458988428,42.20901730470359 18.560998536646366,38.22541045490652 22.5435703843832,34.90573800727725 27.853666178882122,34.90573800727725 43.12019159272313,46.192624061368406 47.10276344045997,50.17623072117567 48.43028738722205,55.48770611919463 45.77523948997259,65.4467220371589 41.12890566885471,70.09426259528846 36.482571847736835,69.43032823875546 27.853666178882122,56.81557494215667 16.56971261277795,48.848361844196916 15.905950643122196,46.192624061368406 15.905950643122196,39.55327941477299 20.552284460514784,34.241803508251905 27.18990420922637,34.241803508251905 47.10276344045997,48.848361844196916 49.094049364328384,52.83196844160557 49.094049364328384,58.14344375580549 47.76652541384101,62.79098451696336 44.447715543210506,68.10245951637626 41.792667645961046,70.09426259528846 38.47385777160525,70.09426259528846 35.15504790097475,68.10245951637626 29.181190129369497,56.81557494215667 17.897236563265324,48.848361844196916 16.56971261277795,46.856558511033654 17.23347458988428,38.88934493530542 21.87980841100216,34.241803508251905 27.853666178882122,33.57786900922656 47.76652541384101,49.512296283617616 49.75781133770943,53.495902865193784 49.75781133770943,57.47950935084373 47.10276344045997,64.78278766106814 43.783953566104174,68.10245951637626 39.137619748711586,68.10245951637626 35.15504790097475,65.4467220371589 28.517428155988455,56.81557494215667 19.2247605137527,49.512296283617616 17.23347458988428,43.536886234767735 19.2247605137527,37.56147596985102 23.207332361489534,34.90573800727725 28.517428155988455,35.56967250071466 41.12890566885471,44.86475515272468 47.76652541384101,50.840165155008435 49.094049364328384,56.81557494215667 44.447715543210506,69.43032823875546 42.45642961934209,71.4221313027665 38.47385777160525,71.4221313027665 33.827523950487375,66.77459078188986 29.181190129369497,57.47950935084373 20.552284460514784,52.16803401429206 17.23347458988428,48.848361844196916 15.905950643122196,44.86475515272468 15.905950643122196,39.55327941477299 16.56971261277795,37.56147596985102 20.552284460514784,34.90573800727725 26.526142232120037,34.90573800727725 47.76652541384101,50.17623072117567 49.75781133770943,54.15983728598803 49.75781133770943,58.80737815797329 45.77523948997259,70.09426259528846 43.12019159272313,72.08606565184891 40.46514369547367,72.75 37.14633382111788,71.4221313027665 33.16376197710633,67.43852515053004 29.84495210275054,57.47950935084373 26.526142232120037,54.823771703988314 18.560998536646366,52.16803401429206 15.905950643122196,48.848361844196916 14.57842668890953,44.20082069374621 16.56971261277795,38.88934493530542 19.88852248713374,36.23360699415207 26.526142232120037,36.23360699415207 45.11147751659155,48.18442740291357 50.42157331109047,54.15983728598803 51.08533528447151,60.79918134957552 49.094049364328384,67.43852515053004 43.783953566104174,72.08606565184891 37.81009579822421,71.4221313027665 35.15504790097475,68.76639387849718 30.508714079856873,58.14344375580549 19.88852248713374,51.504099586978555 17.23347458988428,48.848361844196916 15.905950643122196,40.881148365326226 16.56971261277795,37.56147596985102 19.88852248713374,33.57786900922656 23.207332361489534,33.57786900922656 28.517428155988455,35.56967250071466 43.783953566104174,46.856558511033654 49.094049364328384,52.83196844160557 49.75781133770943,54.823771703988314 49.75781133770943,59.471312559209764 47.76652541384101,67.43852515053004 43.783953566104174,72.75 39.137619748711586,72.08606565184891 35.15504790097475,69.43032823875546 30.508714079856873,56.81557494215667 21.216046437621117,52.16803401429206 16.56971261277795,47.52049295697361 15.905950643122196,40.881148365326226 17.897236563265324,36.89754148386419 20.552284460514784,34.241803508251905 23.207332361489534,32.913934506475925 28.517428155988455,34.241803508251905 43.783953566104174,46.192624061368406 49.094049364328384,52.16803401429206 50.42157331109047,57.47950935084373 47.76652541384101,67.43852515053004 45.11147751659155,70.75819695089012 43.12019159272313,71.4221313027665 37.14633382111788,69.43032823875546 16.56971261277795,48.848361844196916 15.242188666015863,42.20901730470359 17.897236563265324,35.56967250071466 21.87980841100216,33.57786900922656 28.517428155988455,34.90573800727725 47.76652541384101,50.17623072117567 51.749097261577845,55.48770611919463 50.42157331109047,64.78278766106814 47.10276344045997,70.75819695089012 43.783953566104174,72.75 38.47385777160525,70.75819695089012 35.81880987435579,67.43852515053004 33.827523950487375,61.46311574243009 30.508714079856873,56.81557494215667 20.552284460514784,52.16803401429206 17.23347458988428,48.18442740291357 15.905950643122196,44.86475515272468 15.905950643122196,38.22541045490652 19.2247605137527,32.913934506475925 24.53485630825162,32.25 28.517428155988455,33.57786900922656 37.81009579822421,42.87295177113265 46.439001467078924,48.848361844196916 49.094049364328384,52.16803401429206 51.08533528447151,58.14344375580549 47.76652541384101,68.76639387849718 44.447715543210506,72.08606565184891 39.80138172209263,72.08606565184891 37.14633382111788,69.43032823875546 31.172476053237915,56.81557494215667 17.897236563265324,50.17623072117567 14.57842668890953,43.536886234767735 16.56971261277795,38.22541045490652 21.216046437621117,33.57786900922656 26.526142232120037,34.241803508251905 40.46514369547367,45.528689607046545 47.10276344045997,49.512296283617616 51.749097261577845,54.15983728598803 51.749097261577845,58.14344375580549 51.08533528447151,61.46311574243009 47.76652541384101,68.76639387849718 43.783953566104174,72.75 40.46514369547367,72.75 37.14633382111788,70.75819695089012 32.50000000372529,64.11885328218341 33.16376197710633,60.79918134957552" stroke="#4dd2ff" stroke-linecap="round" stroke-linejoin="round" stroke-width="0.5"><title>2022-05-04 3.3km</title></polyline><polyline fill="none" points="77.86976650403813,71.39383733225986 76.39070048811845,70.71575595391914 76.39070048811845,70.46918089967221 77.06860574544407,69.48288064438384 77.43837224971503,69.48288064438384 78.48604401107877,70.09931831143331 79.10232151765376,70.59246842726134 79.34883252065629,71.02397476590704 79.34883252065629,71.76369988988154 79.22557701915503,71.94863116519991 78.8558105151169,72.19520619581454 78.48604401107877,72.31849370955024 78.05464975629002,72.19520619581454 77.56162775075063,71.64041237160563 77.1302334961947,71.2089060501894 76.63721149042249,70.59246842726134 76.51395598938689,70.09931831143331 76.63721149042249,69.6061681797728 76.94535024394281,69.48288064438384 77.25348899746314,69.54452441213652 78.5476717618294,70.16096207662486 79.16394926863723,70.77739971678238 79.28720476990566,71.14726228895597 79.28720476990566,71.51712485239841 79.16394926863723,71.76369988988154 78.5476717618294,71.88698740699328 78.11627750704065,71.76369988988154 77.37674449873157,71.08561852760613 76.329072737135,70.53082466381602 76.14418948511593,70.2226058418164 76.14418948511593,69.9143870138796 76.39070048811845,69.48288064438384 76.57558373990469,69.29794933961239 77.00697799469344,69.1746618016623 77.5,69.29794933961239 79.41046027094126,70.65411219070666 79.53371577267535,70.90068724169396 79.53371577267535,71.39383733225986 79.22557701915503,72.2568499527406 78.79418276436627,72.56506873411126 78.36278850957751,72.44178122235462 77.56162775075063,71.88698740699328 76.57558373990469,70.8390434794128 76.329072737135,70.34589337138459 76.329072737135,69.9143870138796 76.57558373990469,69.48288064438384 76.94535024394281,69.29794933961239 77.56162775075063,69.42123687628191 79.28720476990566,70.59246842726134 79.53371577267535,70.90068724169396 79.53371577267535,71.27054981107358 78.97906601661816,72.50342497846577 78.73255501361564,72.75 78.36278850957751,72.688356245053 78.05464975629002,72.38013746612705 77.56162775075063,71.39383733225986 76.69883924140595,70.8390434794128 76.39070048811845,70.53082466381602 76.20581723609939,70.0376745457761 76.39070048811845,69.48288064438384 76.82209474267438,69.1746618016623 77.31511674798094,69.23630557057913 79.34883252065629,70.77739971678238 79.53371577267535,71.14726228895597 79.53371577267535,71.39383733225986 79.34883252065629,72.0719186810311 78.97906601661816,72.56506873411126 78.73255501361564,72.688356245053 78.48604401107877,72.62671248975676 78.11627750704065,72.31849370955024 77.74651100300252,71.57876861223485 77.43837224971503,71.2089060501894 76.69883924140595,70.90068724169396 76.329072737135,70.59246842726134 76.14418948511593,70.16096207662486 76.329072737135,69.6061681797728 76.76046699192375,69.29794933961239 77.31511674798094,69.35959310794715 78.79418276436627,70.34589337138459 79.34883252065629,70.77739971678238 79.53371577267535,71.2089060501894 79.53371577267535,71.45548109244555 79.16394926863723,72.38013746612705 78.79418276436627,72.688356245053 78.36278850957751,72.62671248975676 77.93139425502159,72.38013746612705 76.39070048811845,70.77739971678238 76.14418948511593,70.34589337138459 76.14418948511593,69.85274324740749 76.329072737135,69.48288064438384 76.76046699192375,69.11301803239621 77.31511674798094,69.1746618016623 78.11627750704065,69.85274324740749 79.16394926863723,70.59246842726134 79.47208802192472,70.90068724169396 79.53371577267535,71.27054981107358 79.04069376713596,72.19520619581454 78.73255501361564,72.50342497846577 78.36278850957751,72.44178122235462 78.05464975629002,72.19520619581454 77.56162775075063,71.33219357172493 76.57558373990469,70.77739971678238 76.26744498638436,70.46918089967221 76.14418948511593,69.79109948093537 76.329072737135,69.42123687628191 76.57558373990469,69.1746618016623 77.00697799469344,69.11301803239621 77.68488325201906,69.42123687628191 78.8558105151169,70.28424960654229 79.34883252065629,70.8390434794128 79.47208802192472,71.08561852760613 79.47208802192472,71.51712485239841 79.34883252065629,72.01027492317371 79.10232151765376,72.44178122235462 78.67092726309784,72.56506873411126 78.23953300830908,72.38013746612705 77.5,71.2089060501894 76.57558373990469,70.71575595391914 76.26744498638436,70.40753713564482 76.14418948511593,69.72945571411401 76.39070048811845,69.29794933961239 77.1918612467125,69.23630557057913 78.6092995123472,70.2226058418164 79.53371577267535,71.02397476590704 80.33487653150223,71.51712485239841 80.82789853680879,71.51712485239841 81.32092054234818,71.39383733225986 82.49184780544601,70.65411219070666 82.61510330671445,70.40753713564482 82.61510330671445,70.0376745457761 82.43022005446255,69.54452441213652 82.36859230417758,69.05137426278088 82.55347555596381,68.31164900946897 84.03254157234915,65.66096656117588 84.5255635776557,65.04452871764079 85.08021333394572,63.81165295664687 86.49765159958042,61.53083253989462 86.80579035286792,60.35960030334536 87.79183436417952,58.32535462919623 87.97671761596575,58.07877937774174 88.28485636948608,57.89384793653153 89.45578363211825,57.70891649334226 89.20927262981422,57.58562886307482 89.20927262981422,57.27740978344809 89.70229463512078,55.797958115814254 89.82555013638921,55.18151987926103 89.70229463512078,54.19521864957642 89.57903913361952,53.20891735702753 89.27090038009919,52.34590367425699 88.53136737202294,50.98973921849392 88.34648412000388,50.434944633976556 88.34648412000388,49.75686233723536 88.46973962150514,49.14042385958601 88.46973962150514,48.83220461162273 88.16160086821765,48.58562920882832 86.68253485159948,48.27740994980559 86.68253485159948,47.969190684496425 85.8813740927726,46.982888994622044 84.64881907915697,44.27055902243592 83.47789181605913,42.113023477140814 83.47789181605913,41.743160210433416 84.58719132863916,40.26370705536101 86.06625734479167,37.61301979771815 86.18951284629293,37.181512526702136 86.18951284629293,36.750005243578926 86.00462959427387,36.44178574823309 85.69649084098637,36.256854047998786 84.27905257535167,35.2705516096903 82.49184780544601,34.40753692446742 80.95115403854288,33.48287827963941 78.9174382656347,32.43493174831383 78.17790525755845,32.25 77.31511674798094,32.31164391641505 75.34302872628905,32.86643915204331 72.81629094830714,33.91438565403223 71.76861918671057,34.65411255368963 71.39885268267244,35.085619895602576 70.35118092107587,36.811649141833186 70.04304216778837,37.61301979771815 69.73490341426805,38.16781484277453 69.30350915947929,41.06507753196638 68.93374265544116,42.544530610204674 68.81048715417273,43.46918871218804 68.13258189638145,44.332202890655026 67.5779321405571,44.332202890655026 67.26979338703677,44.08562741603237 67.26979338703677,43.03768160485197 67.02328238426708,41.743160210433416 67.20816563628614,40.88014588726219 68.25583739788271,38.352746520075016 68.25583739788271,37.92123926966451 67.94769864459522,37.181512526702136 67.70118764182553,37.11986862984486 67.26979338703677,37.243156423210166 66.09886612393893,37.85959537571762 65.91398287191987,38.22945873555727 65.85235512116924,38.78425375837833 65.17444986384362,39.77055597200524" stroke="#4dd2ff" stroke-linecap="round" stroke-linejoin="round" stroke-width="0.5"><title>2022-04-28 3.1km</title></polyline><polyline fill="none" points="129.36875127255917,60.45535809639841 128.64572482556105,61.90178659930825 125.03059257566929,61.17857234925032 118.52335453033447,54.669643972069025 107.67795778810978,48.883929662406445 104.06282554194331,43.09821517020464 104.78585198894143,35.86607179418206 107.67795778810978,32.97321436367929 110.57006358727813,32.25 115.63124873116612,34.41964308451861 140.93717446550727,54.669643972069025 140.93717446550727,59.73214384075254 135.15296286717057,71.30357158463448 131.53783061727881,72.75 126.47664547711611,70.58035737089813 122.13848677650094,65.51785780582577 119.24638097733259,58.2857153210789 106.95493133738637,52.50000112783164 103.3397990912199,48.16071536205709 102.61677264049649,43.09821517020464 106.23190489038825,35.86607179418206 110.57006358727813,33.69642872642726 116.35427518188953,35.14285744167864 137.3220422156155,50.33035825844854 140.93717446550727,54.669643972069025 141.6602009125054,58.2857153210789 139.49112156033516,62.6250008456409 135.15296286717057,67.68750049453229 130.8148041702807,69.85714315716177 127.19967192038894,69.1339289387688 116.35427518188953,60.45535809639841 108.40098423883319,50.33035825844854 106.23190489038825,45.267858126200736 106.23190489038825,40.205357854254544 107.67795778810978,37.312500493600965 112.01611648499966,35.14285744167864 117.07730162888765,35.14285744167864 136.5990157686174,48.883929662406445 140.93717446550727,53.94642969314009 141.6602009125054,57.562501057982445 135.15296286717057,68.41071471758187 130.8148041702807,70.58035737089813 126.47664547711611,69.1339289387688 124.30756612494588,67.68750049453229 117.80032807961106,57.562501057982445 105.50887843966484,48.883929662406445 104.06282554194331,45.267858126200736 104.06282554194331,41.651786517351866 106.95493133738637,35.86607179418206 112.01611648499966,34.41964308451861 115.63124873116612,35.14285744167864 138.76809511706233,51.7767868405208 140.93717446550727,58.2857153210789 138.04506866261363,64.07142933178693 132.26085706800222,69.85714315716177 129.36875127255917,71.30357158463448 125.75361902266741,69.85714315716177 123.58453967422247,68.41071471758187 117.80032807961106,56.11607252061367 107.67795778810978,49.60714396182448 106.23190489038825,47.43750105705112 104.78585198894143,41.651786517351866 107.67795778810978,35.86607179418206 113.46216938272119,34.41964308451861 117.07730162888765,35.86607179418206 138.76809511706233,52.50000112783164 140.93717446550727,56.11607252061367 137.3220422156155,65.51785780582577 134.42993642017245,69.85714315716177 131.53783061727881,71.30357158463448 127.92269837111235,70.58035737089813 123.58453967422247,66.2410720391199 118.52335453033447,56.8392867911607 107.67795778810978,51.05357255041599 106.23190489038825,48.883929662406445 104.06282554194331,45.267858126200736 104.06282554194331,40.92857218813151 107.67795778810978,35.14285744167864 112.01611648499966,34.41964308451861 116.35427518188953,35.86607179418206 140.21414801478386,53.94642969314009 140.93717446550727,56.11607252061367 140.21414801478386,61.90178659930825 134.42993642017245,69.85714315716177 130.8148041702807,71.30357158463448 127.19967192038894,70.58035737089813 122.86151322722435,66.2410720391199 116.35427518188953,56.11607252061367 108.40098423883319,51.05357255041599 104.06282554194331,46.71428675018251 104.06282554194331,40.205357854254544 104.78585198894143,37.312500493600965 106.95493133738637,34.41964308451861 110.57006358727813,32.97321436367929 114.1851958334446,34.41964308451861 140.21414801478386,53.22321541234851 140.93717446550727,55.39285824727267 140.21414801478386,61.17857234925032 135.8759893141687,68.41071471758187 131.53783061727881,70.58035737089813 127.19967192038894,69.85714315716177 107.67795778810978,51.05357255041599 105.50887843966484,45.991072439588606 105.50887843966484,40.92857218813151 108.40098423883319,36.589286144822836 110.57006358727813,34.41964308451861 115.63124873116612,35.14285744167864 136.5990157686174,49.60714396182448 141.6602009125054,53.94642969314009 141.6602009125054,59.00892958417535 136.5990157686174,65.51785780582577 135.15296286717057,69.85714315716177 132.26085706800222,72.02678579371423 129.36875127255917,71.30357158463448 122.13848677650094,65.51785780582577 116.35427518188953,57.562501057982445 107.67795778810978,51.05357255041599 105.50887843966484,45.267858126200736 106.95493133738637,38.75892917998135 112.01611648499966,35.14285744167864 115.63124873116612,35.86607179418206 133.70690996572375,45.991072439588606 138.76809511706233,49.60714396182448 141.6602009125054,53.22321541234851 141.6602009125054,57.562501057982445 136.5990157686174,67.68750049453229 134.42993642017245,71.30357158463448 130.8148041702807,72.02678579371423 125.03059257566929,68.41071471758187 117.07730162888765,56.11607252061367 106.95493133738637,48.883929662406445 104.06282554194331,43.82142949104309 104.78585198894143,40.205357854254544 106.23190489038825,37.312500493600965 110.57006358727813,35.14285744167864 115.63124873116612,35.14285744167864 138.76809511706233,51.05357255041599 140.93717446550727,54.669643972069025 140.93717446550727,56.11607252061367 137.3220422156155,66.96428626775742 134.42993642017245,70.58035737089813 130.09177771955729,71.30357158463448 122.13848677650094,65.51785780582577 116.35427518188953,56.8392867911607 106.95493133738637,51.05357255041599 104.06282554194331,45.267858126200736 106.23190489038825,38.75892917998135 109.12401068583131,35.86607179418206 114.90822228044271,35.86607179418206 136.5990157686174,49.60714396182448 140.21414801478386,52.50000112783164 140.93717446550727,56.8392867911607 137.3220422156155,65.51785780582577 132.26085706800222,70.58035737089813 129.36875127255917,70.58035737089813 125.75361902266741,67.68750049453229 119.24638097733259,57.562501057982445 107.67795778810978,51.05357255041599 104.78585198894143,45.991072439588606 106.23190489038825,39.482143519446254 110.57006358727813,35.86607179418206 115.63124873116612,35.86607179418206 138.76809511706233,52.50000112783164 140.21414801478386,56.8392867911607 134.42993642017245,70.58035737089813 131.53783061727881,72.75 128.64572482556105,72.02678579371423 124.30756612494588,67.68750049453229 122.13848677650094,61.17857234925032 106.23190489038825,48.883929662406445 105.50887843966484,45.991072439588606 105.50887843966484,39.482143519446254 106.95493133738637,35.14285744167864 111.29309003427625,33.69642872642726 117.80032807961106,36.589286144822836 140.21414801478386,53.94642969314009 140.21414801478386,60.45535809639841 136.5990157686174,67.68750049453229 134.42993642017245,71.30357158463448 131.53783061727881,72.75 127.19967192038894,71.30357158463448 106.23190489038825,46.71428675018251 104.06282554194331,41.651786517351866 104.78585198894143,38.03571483772248 106.23190489038825,36.589286144822836 110.57006358727813,34.41964308451861 115.63124873116612,35.14285744167864 125.03059257566929,42.37500084657222 136.5990157686174,48.883929662406445 140.93717446550727,52.50000112783164 142.3832273632288,54.669643972069025 142.3832273632288,59.00892958417535 137.3220422156155,69.85714315716177 132.26085706800222,72.75 129.36875127255917,72.75 125.03059257566929,68.41071471758187 119.969407428056,59.00892958417535 106.23190489038825,49.60714396182448 104.06282554194331,45.991072439588606 104.06282554194331,40.92857218813151 106.23190489038825,37.312500493600965 110.57006358727813,34.41964308451861 115.63124873116612,34.41964308451861 139.49112156033516,53.22321541234851 140.93717446550727,59.73214384075254 137.3220422156155,65.51785780582577 131.53783061727881,72.02678579371423 127.19967192038894,72.02678579371423 106.95493133738637,49.60714396182448 104.06282554194331,44.54464381188154 104.06282554194331,39.482143519446254 106.23190489038825,36.589286144822836 111.29309003427625,33.69642872642726 117.07730162888765,35.14285744167864 125.75361902266741,41.651786517351866 138.76809511706233,49.60714396182448 140.93717446550727,53.22321541234851 140.93717446550727,58.2857153210789 136.5990157686174,67.68750049453229 132.98388351872563,71.30357158463448 127.92269837111235,71.30357158463448 123.58453967422247,67.68750049453229 119.969407428056,58.2857153210789 116.35427518188953,55.39285824727267 109.12401068583131,52.50000112783164 105.50887843966484,48.16071536205709 104.06282554194331,40.205357854254544 106.23190489038825,37.312500493600965 109.84703713655472,33.69642872642726 114.1851958334446,33.69642872642726 141.6602009125054,52.50000112783164 142.3832273632288,56.8392867911607 138.76809511706233,62.6250008456409 136.5990157686174,70.58035737089813 134.42993642017245,72.02678579371423 130.09177771955729,72.02678579371423 126.47664547711611,70.58035737089813 119.24638097733259,61.90178659930825 109.84703713655472,53.94642969314009 104.06282554194331,47.43750105705112 104.06282554194331,43.09821517020464" stroke="#4dd2ff" stroke-linecap="round" stroke-linejoin="round" stroke-width="0.5"><title>2022-04-26 3.1km</title></polyline><polyline fill="none" points="166.14999999850988,60.26451773196459 163.44999999925494,60.26451773196459 160.07499999925494,55.53829030133784 153.32499999925494,52.83758885320276 149.27500000223517,48.78653659950942 148.59999999776483,45.410659649409354 149.27500000223517,42.034782629460096 152.64999999850988,36.63337926007807 158.72500000149012,35.28302839118987 164.125,37.30855469126254 183.69999999925494,50.812062739394605 185.72499999776483,55.53829030133784 185.05000000074506,60.26451773196459 179.64999999850988,69.04179689846933 174.92499999701977,71.06732279527932 168.84999999776483,69.04179689846933 163.44999999925494,59.58934239298105 151.30000000074506,54.18793958239257 147.92499999701977,49.461711982265115 148.59999999776483,42.70995804015547 151.97499999776483,36.63337926007807 156.69999999925494,35.28302839118987 162.77499999850988,37.30855469126254 181.0,48.78653659950942 184.375,52.83758885320276 185.72499999776483,56.888641010038555 181.67500000074506,66.34109566453844 177.625,70.39214749913663 173.57499999925494,71.06732279527932 171.55000000074506,69.71697220019996 167.5,66.34109566453844 162.09999999776483,57.56381635926664 151.30000000074506,50.136887362226844 149.27500000223517,45.410659649409354 149.27500000223517,41.3596072178334 151.30000000074506,36.63337926007807 155.34999999776483,34.6078529516235 160.07499999925494,35.28302839118987 183.69999999925494,51.487238111905754 185.05000000074506,55.53829030133784 180.32499999925494,67.6914462884888 176.27499999850988,71.74249808862805 171.55000000074506,71.06732279527932 167.5,67.6914462884888 162.09999999776483,58.23899170663208 149.27500000223517,48.78653659950942 147.25,44.0603088485077 147.92499999701977,40.0092563861981 152.64999999850988,35.28302839118987 158.05000000074506,34.6078529516235 164.125,36.63337926007807 182.34999999776483,48.78653659950942 185.72499999776483,54.18793958239257 183.69999999925494,62.290043734014034 181.0,67.01627097837627 175.59999999776483,71.06732279527932 170.8749999962747,70.39214749913663 166.14999999850988,66.34109566453844 161.42499999701977,56.21346565615386 149.94999999925494,48.78653659950942 148.59999999776483,45.410659649409354 148.59999999776483,41.3596072178334 150.625,36.63337926007807 155.34999999776483,33.932677512057126 161.42499999701977,35.28302839118987 182.34999999776483,48.78653659950942 183.69999999925494,50.812062739394605 185.72499999776483,54.18793958239257 185.05000000074506,58.91416705213487 179.64999999850988,69.04179689846933 177.625,71.74249808862805 174.92499999701977,71.74249808862805 168.84999999776483,69.71697220019996 165.47499999776483,67.01627097837627 160.07499999925494,56.21346565615386 150.625,50.812062739394605 148.59999999776483,48.111361214891076 147.25,44.73548424895853 148.59999999776483,39.334080966189504 151.30000000074506,35.28302839118987 155.34999999776483,33.932677512057126 161.42499999701977,35.95820382796228 181.67500000074506,48.78653659950942 185.05000000074506,52.83758885320276 185.72499999776483,56.888641010038555 181.67500000074506,67.01627097837627 177.625,70.39214749913663 172.22500000149012,70.39214749913663 168.17500000074506,66.34109566453844 162.77499999850988,57.56381635926664 151.30000000074506,50.136887362226844 149.27500000223517,44.73548424895853 149.27500000223517,40.68443180434406 150.625,37.30855469126254 154.0,33.932677512057126 158.05000000074506,33.257502065971494 162.77499999850988,35.28302839118987 181.67500000074506,48.78653659950942 185.72499999776483,53.51276421919465 185.72499999776483,57.56381635926664 183.02499999850988,63.64039438869804 180.32499999925494,67.6914462884888 175.59999999776483,70.39214749913663 170.8749999962747,69.71697220019996 168.17500000074506,67.01627097837627 162.09999999776483,57.56381635926664 149.27500000223517,50.136887362226844 147.92499999701977,46.085835044272244 147.92499999701977,42.034782629460096 150.625,37.30855469126254 154.0,35.28302839118987 160.75,35.28302839118987 187.07499999925494,52.83758885320276 187.75,54.86311494279653 186.39999999850988,58.23899170663208 179.64999999850988,69.71697220019996 176.27499999850988,71.74249808862805 172.89999999850988,71.06732279527932 155.34999999776483,56.888641010038555 149.94999999925494,49.461711982265115 149.27500000223517,47.43618582841009 149.27500000223517,42.70995804015547 149.94999999925494,39.334080966189504 152.64999999850988,35.28302839118987 156.69999999925494,33.257502065971494 161.42499999701977,33.932677512057126 180.32499999925494,46.085835044272244 185.72499999776483,51.487238111905754 185.72499999776483,54.86311494279653 177.625,69.71697220019996 174.25,71.74249808862805 169.52499999850988,69.71697220019996 164.125,63.64039438869804 154.67500000074506,57.56381635926664 150.625,53.51276421919465 148.59999999776483,48.111361214891076 148.59999999776483,44.73548424895853 151.97499999776483,37.30855469126254 156.02499999850988,35.95820382796228 162.77499999850988,37.30855469126254 181.67500000074506,47.43618582841009 183.69999999925494,49.461711982265115 185.72499999776483,53.51276421919465 185.05000000074506,58.23899170663208 179.64999999850988,70.39214749913663 176.27499999850988,72.41767338011414 170.8749999962747,69.04179689846933 169.52499999850988,66.34109566453844 166.14999999850988,62.96521906275302 162.09999999776483,56.21346565615386 152.64999999850988,52.1624134844169 149.27500000223517,48.78653659950942 148.59999999776483,42.034782629460096 151.97499999776483,34.6078529516235 156.69999999925494,32.582326620817184 162.09999999776483,34.6078529516235 181.0,46.76101043634117 185.05000000074506,51.487238111905754 185.05000000074506,58.23899170663208 180.32499999925494,68.36662159487605 175.59999999776483,71.74249808862805 170.8749999962747,70.39214749913663 166.14999999850988,65.66592035070062 164.125,57.56381635926664 162.77499999850988,55.53829030133784 160.75,54.18793958239257 153.32499999925494,52.83758885320276 149.94999999925494,48.78653659950942 149.27500000223517,43.38513344526291 151.30000000074506,37.9837301177904 156.69999999925494,33.932677512057126 164.125,35.28302839118987 181.67500000074506,48.111361214891076 185.05000000074506,52.83758885320276 185.05000000074506,55.53829030133784 178.97499999776483,69.71697220019996 174.92499999701977,71.06732279527932 170.8749999962747,69.04179689846933 165.47499999776483,62.96521906275302 162.09999999776483,55.53829030133784 151.30000000074506,49.461711982265115 149.27500000223517,46.76101043634117 148.59999999776483,42.034782629460096 149.27500000223517,37.9837301177904 151.30000000074506,35.28302839118987 155.34999999776483,32.582326620817184 160.07499999925494,33.257502065971494 178.97499999776483,46.085835044272244 183.69999999925494,51.487238111905754 185.05000000074506,57.56381635926664 180.32499999925494,67.6914462884888 176.94999999925494,69.71697220019996 172.22500000149012,69.04179689846933 168.84999999776483,65.66592035070062 162.77499999850988,56.21346565615386 151.30000000074506,49.461711982265115 148.59999999776483,41.3596072178334 153.32499999925494,32.582326620817184 160.07499999925494,33.932677512057126 164.125,35.95820382796228 172.89999999850988,42.70995804015547 183.69999999925494,49.461711982265115 185.72499999776483,52.83758885320276 185.72499999776483,56.21346565615386 178.97499999776483,69.71697220019996 175.59999999776483,71.74249808862805 170.19999999925494,69.71697220019996 164.80000000074506,64.3155697118491 161.42499999701977,56.888641010038555 152.64999999850988,51.487238111905754 149.27500000223517,48.111361214891076 149.27500000223517,41.3596072178334 151.97499999776483,35.28302839118987 156.69999999925494,32.582326620817184 162.09999999776483,33.257502065971494 170.8749999962747,40.0092563861981 181.67500000074506,46.76101043634117 185.72499999776483,51.487238111905754 185.72499999776483,54.86311494279653 180.32499999925494,69.71697220019996 176.94999999925494,71.06732279527932 172.89999999850988,70.39214749913663 168.84999999776483,66.34109566453844 162.09999999776483,53.51276421919465 151.30000000074506,47.43618582841009 149.27500000223517,44.73548424895853 149.27500000223517,41.3596072178334 152.64999999850988,35.28302839118987 158.05000000074506,32.582326620817184 165.47499999776483,35.28302839118987 176.27499999850988,44.0603088485077 182.34999999776483,51.487238111905754 183.69999999925494,54.86311494279653 183.02499999850988,58.23899170663208 177.625,69.71697220019996 174.92499999701977,70.39214749913663 170.19999999925494,68.36662159487605 152.64999999850988,50.812062739394605 149.27500000223517,46.085835044272244 149.27500000223517,40.68443180434406 151.30000000074506,35.95820382796228 156.02499999850988,32.582326620817184 160.07499999925494,32.582326620817184 164.125,35.28302839118987 181.67500000074506,48.78653659950942 185.72499999776483,54.18793958239257 185.72499999776483,56.888641010038555 181.0,64.99074503220618 180.32499999925494,69.04179689846933 179.64999999850988,71.06732279527932 177.625,71.74249808862805 170.8749999962747,69.71697220019996 168.17500000074506,67.01627097837627 164.125,58.23899170663208 160.75,56.21346565615386" stroke="#4dd2ff" stroke-linecap="round" stroke-linejoin="round" stroke-width="0.5"><title>2022-04-22 3.3km</title></polyline><polyline fill="none" points="18.706521739717573,123.07754027901683 17.415217391680926,122.37300944374874 15.889130434952676,121.0813695358811 14.950000000186265,120.4942604682874 13.77608695672825,120.37683865334839 13.071739131119102,120.96394772338681 13.071739131119102,121.78590040176641 13.658695652615279,122.96011847432237 15.536956521682441,124.13433649996296 16.94565217429772,126.13050703657791 18.354347826447338,127.06988135981373 18.706521739717573,126.95245957106818 18.354347826447338,126.01308524410706 18.706521739717573,124.13433649996296 18.002173913642764,122.96011847432237 13.658695652615279,120.37683865334839 13.071739131119102,120.37683865334839 12.602173913270235,120.4942604682874 12.25,121.0813695358811 12.25,122.02074401988648 12.719565217848867,122.72527486342005 14.950000000186265,124.01691469934303 15.654347826261073,124.48660189867951 17.180434782989323,126.36535062000621 17.7673913044855,126.71761599194724 18.58913043513894,126.60019420192111 18.941304347943515,126.13050703657791 19.41086956532672,124.36918009945657 19.41086956532672,123.78207109705545 19.058695652522147,123.1949620830128 14.128260869998485,120.4942604682874 13.189130434766412,120.4942604682874 12.602173913270235,121.0813695358811 12.602173913270235,121.78590040176641 13.189130434766412,122.72527486342005 15.536956521682441,124.48660189867951 16.476086956914514,125.89566345105413 17.297826087102294,126.60019420192111 18.002173913642764,126.48277241131291 18.58913043513894,125.77824165741913 18.941304347943515,124.36918009945657 18.941304347943515,123.54722749290522 18.706521739717573,123.1949620830128 17.180434782989323,121.90332221111748 14.128260869998485,120.37683865334839 13.189130434766412,120.4942604682874 12.602173913270235,121.19879134802613 12.602173913270235,121.78590040176641 12.95434782654047,122.49043125112075 13.658695652615279,123.1949620830128 15.41956521756947,124.36918009945657 16.710869565606117,126.2479288285831 17.532608695793897,126.71761599194724 18.354347826447338,126.60019420192111 18.823913043364882,126.01308524410706 19.41086956532672,124.36918009945657 19.17608695710078,123.42980569018982 14.59782608738169,120.4942604682874 13.89347826084122,120.2594168378273 13.306521739345044,120.37683865334839 12.719565217848867,121.19879134802613 13.071739131119102,122.49043125112075 13.77608695672825,123.1949620830128 15.536956521682441,124.36918009945657 16.476086956914514,126.01308524410706 17.180434782989323,126.60019420192111 18.002173913642764,126.71761599194724 18.354347826447338,126.36535062000621 19.29347826121375,124.01691469934303 19.058695652522147,123.1949620830128 18.002173913642764,122.25558763649315 14.715217391960323,120.1419950221898 13.77608695672825,120.1419950221898 13.189130434766412,120.61168228264432 13.071739131119102,121.66847859218251 13.89347826084122,123.1949620830128 16.828260869719088,126.13050703657791 17.65000000037253,126.60019420192111 18.236956521868706,126.60019420192111 18.706521739717573,126.01308524410706 19.52826086943969,123.89949289849028 19.29347826121375,123.07754027901683 16.710869565606117,121.19879134802613 14.950000000186265,120.1419950221898 14.480434782803059,120.1419950221898 13.89347826084122,120.2594168378273 13.423913043923676,120.84652591007762 13.423913043923676,121.90332221111748 13.658695652615279,122.60785305744503 15.889130434952676,124.01691469934303 16.828260869719088,125.77824165741913 17.88478260859847,126.60019420192111 18.47173913056031,126.48277241131291 18.706521739717573,126.2479288285831 19.645652174018323,124.13433649996296 19.763043479062617,123.1949620830128 19.41086956532672,122.84269666916225 14.832608695607632,120.1419950221898 13.77608695672825,120.2594168378273 13.423913043923676,120.84652591007762 13.423913043923676,121.66847859218251 13.658695652615279,122.25558763649315 14.245652174111456,122.96011847432237 15.654347826261073,123.66464929527137 16.12391304364428,124.25175829988439 17.180434782989323,126.2479288285831 19.058695652522147,127.65699029678944 23.636956521775573,132.58870490605477 24.341304348316044,132.94097020383924 24.92826086981222,132.82354843837675 25.51521739177406,132.23643960419577 27.041304348036647,129.770582373254 27.628260869532824,128.71378635370638 28.09782608738169,126.95245957106818 29.62391304364428,124.13433649996296 31.15000000037253,122.84269666916225 32.441304348409176,121.5510567817837 34.67173913074657,120.2594168378273 38.42826086981222,119.2026204779977 46.05869565252215,121.43363497091923 48.05434782616794,122.13816582853906 48.64130434812978,122.25558763649315 49.228260869625956,122.02074401988648 49.69782608700916,121.0813695358811 52.04565217392519,114.38832547096536 52.75,111.21793564700056 52.75,109.92629525065422 52.16304347850382,108.86949852085672 50.98913043458015,107.93012361775618 46.880434782709926,105.46426435513422 44.7673913044855,104.52488934365101 43.00652173906565,103.468092420022 39.71956521784887,102.05902979604434 38.07608695700765,102.05902979604434 36.784782608971,102.29387357155792 35.72826087009162,102.76356111653149 34.20217391336337,104.05520182673354 33.49782608728856,104.99457685335074 32.323913043830544,107.57785802136641 31.97173913056031,108.0475454821717 30.328260869719088,108.98692038154695 29.62391304364428,109.8088733938057 28.332608696073294,112.74441967881285 26.336956521961838,115.67996567196678 25.045652174390852,118.73293319484219 24.81086956569925,120.4942604682874 25.397826087661088,122.02074401988648 25.045652174390852,123.07754027901683 24.22391304373741,123.54722749290522 21.289130434859544,123.42980569018982 20.702173913363367,123.54722749290522 20.2326086955145,124.13433649996296 19.52826086943969,125.66081986366771 19.058695652522147,126.2479288285831 18.002173913642764,126.36535062000621 16.94565217429772,125.89566345105413 15.654347826261073,124.13433649996296 13.89347826084122,123.1949620830128 13.071739131119102,122.49043125112075 12.95434782654047,121.0813695358811 13.423913043923676,120.2594168378273 14.245652174111456,120.02457320550457 15.184782608877867,120.2594168378273 19.41086956532672,122.84269666916225 19.645652174018323,123.54722749290522 19.52826086943969,123.89949289849028 18.706521739717573,125.07371088687796 18.354347826447338,126.2479288285831 17.532608695793897,126.48277241131291 16.710869565606117,126.01308524410706 15.536956521682441,124.13433649996296 13.189130434766412,122.96011847432237 12.719565217848867,122.13816582853906 12.719565217848867,121.43363497091923 13.189130434766412,120.4942604682874 13.658695652615279,120.1419950221898 14.363043478690088,120.02457320550457 15.3021739134565,120.4942604682874 18.823913043364882,122.84269666916225 19.41086956532672,123.42980569018982 19.41086956532672,123.66464929527137 17.7673913044855,126.48277241131291 16.476086956914514,125.77824165741913 15.067391304764897,123.78207109705545 13.071739131119102,123.07754027901683 12.484782608691603,122.02074401988648 12.602173913270235,121.43363497091923 13.071739131119102,120.4942604682874 13.541304348036647,120.02457320550457 14.128260869998485,119.90715138893574 15.654347826261073,120.4942604682874 18.47173913056031,122.37300944374874 19.29347826121375,123.07754027901683 19.52826086943969,123.66464929527137 19.52826086943969,124.25175829988439 19.17608695710078,124.95628909009974 18.941304347943515,126.2479288285831 18.706521739717573,126.36535062000621 18.119565217755735,126.48277241131291 16.94565217429772,126.01308524410706 16.358695652801543,125.308554478921 15.536956521682441,124.01691469934303 15.067391304764897,123.66464929527137 13.423913043923676,122.96011847432237 12.836956521961838,122.49043125112075 12.484782608691603,121.31621315993834 12.602173913270235,120.72910409676842 13.071739131119102,120.02457320550457 13.77608695672825,119.67230775370263 14.950000000186265,120.02457320550457 16.828260869719088,121.43363497091923" stroke="#4dd2ff" stroke-linecap="round" stroke-linejoin="round" stroke-width="0.5"><title>2022-04-18 3.3km</title></polyline><polyline fill="none" points="71.92673807172105,100.39470833248924 72.2125463760458,100.20411996042822 72.40308524481952,99.72764902363997 69.92607994331047,97.82176518207416 69.449732770212,97.63117678975686 68.87811616249382,97.63117678975686 68.30649955431,97.82176518207416 67.92542181583121,98.20294196240138 67.83015238121152,98.58411873702426 67.83015238121152,99.25117807765491 68.2112301196903,99.9182373995427 70.02134937839583,101.15706180548295 70.97404372459278,102.58647450187709 71.5456603327766,103.06294538173825 72.2125463760458,103.06294538173825 72.40308524481952,102.68176867847797 73.26051015686244,100.49000251793768 73.26051015686244,100.0135315869702 72.78416298376396,99.44176645705011 70.30715768225491,97.63117678975686 69.449732770212,97.25 68.78284672787413,97.34529419802129 68.2112301196903,97.91705937788356 68.02069124998525,98.77470712189097 68.30649955431,99.63235483528115 70.02134937839583,100.87117925588973 71.06931315967813,102.20529779104982 71.5456603327766,102.49118032469414 72.2125463760458,102.49118032469414 72.78416298376396,101.82412107428536 73.06997128762305,100.77588507183827 72.97470185300335,99.82294321188238 71.35512146353722,98.4888245438924 69.92607994331047,97.63117678975686 69.16392446635291,97.5358825926669 68.68757729325444,97.63117678975686 68.49703842354938,97.91705937788356 68.40176898892969,98.20294196240138 68.40176898892969,98.87000131397508 68.78284672787413,99.72764902363997 70.30715768225491,100.9664734393591 70.97404372459278,102.39588614739478 71.5456603327766,102.77706285484601 72.2125463760458,102.68176867847797 72.59362411405891,102.1100036125863 73.06997128762305,100.6805908876704 73.06997128762305,100.20411996042822 72.87943241838366,99.82294321188238 71.45039089815691,98.58411873702426 69.73554107453674,97.63117678975686 68.78284672787413,97.72647098603193 68.2112301196903,98.4888245438924 68.2112301196903,98.87000131397508 68.59230785816908,99.63235483528115 70.02134937839583,100.77588507183827 70.97404372459278,102.30059196939692 71.73619920248166,102.77706285484601 72.02200750634074,102.68176867847797 72.2125463760458,102.49118032469414 72.97470185300335,100.9664734393591 73.06997128762305,100.20411996042822 72.78416298376396,99.72764902363997 71.92673807172105,98.96529550524428 69.92607994331047,97.72647098603193 69.25919390143827,97.63117678975686 68.87811616249382,97.82176518207416 68.40176898892969,98.67941292957403 68.49703842354938,99.72764902363997 68.78284672787413,100.10882577369921 70.21188824763522,101.25235598778818 70.87877429043874,102.39588614739478 72.59362411405891,103.73000459745526 76.30913206655532,107.541771188844 77.07128754397854,108.5900068951305 77.35709584783763,109.54294840653893 76.49967093579471,110.78177231492009 76.30913206655532,111.5441254574107 76.5949403704144,112.30647857568692 78.02398189064115,113.73589060711674 78.69086793297902,114.87942017079331 78.78613736806437,115.92765555623919 78.40505962911993,118.595890876255 78.59559849835932,120.50177306612022 79.26248454116285,121.93118460895494 80.11990945320576,123.17000787728466 80.50098719168454,124.31353699113242 81.64422040758654,125.74294830707368 81.07260379940271,124.98059561580885 80.50098719168454,124.79000743932556 78.30979019450024,125.07588970358483 77.16655697859824,125.64765422197524 76.30913206655532,126.69588913710322 75.83278489299119,128.03000623523258 75.83278489299119,128.98294697434176 76.21386263146996,130.2217698787572 77.35709584783763,131.93706302542705 79.73883171426132,134.2241203634767 82.02529814653099,136.98764768987894 82.59691475424916,137.46411788649857 83.26380079705268,137.65470596239902 84.40703401295468,137.46411788649857 85.26445892546326,136.8923536496004 86.21715327166021,135.93941322434694 87.16984761878848,132.69941549550276 86.88403931446373,131.7464749038918 80.11990945320576,125.36177196435165 79.26248454116285,125.07588970358483 78.50032906373963,124.98059561580885 77.92871245602146,125.17118379089516 77.07128754397854,125.64765422197524 76.30913206655532,126.5053009740077 75.6422460237518,127.83941808284726 75.5469765891321,128.506476609502 75.5469765891321,129.84059360716492 76.30913206655532,131.0794164672261 78.11925132479519,132.79470955277793 79.26248454116285,134.89117871283088 80.11990945320576,135.93941322434694 81.93002871191129,137.27352980908472 82.59691475424916,137.55941192491446 83.64487853599712,137.65470596239902 84.59757288219407,137.27352980908472 85.83607553318143,136.4158834416885 86.69350044522434,135.17706085683312 86.97930874908343,134.03353226045147 86.88403931446373,132.79470955277793 86.4076921408996,131.65118084277492 85.35972835961729,130.2217698787572 83.64487853599712,128.60177068342455 80.69152606092393,125.83824239170644 79.54829284502193,125.26647787785623 78.59559849835932,125.07588970358483 77.7381735863164,125.36177196435165 76.30913206655532,126.5053009740077 75.83278489299119,127.36294769542292 75.6422460237518,129.07824104628526 76.02332376269624,130.4123580121668 76.49967093579471,131.27000459400006 78.50032906373963,133.65235604939517 80.11990945320576,134.98647276125848 81.64422040758654,136.8923536496004 82.59691475424916,137.65470596239902 83.16853136243299,137.75 83.93068683985621,137.65470596239902 85.07392005575821,137.08294173004106 86.59823101060465,135.36764895101078 86.97930874908343,134.31941441481467 86.88403931446373,132.69941549550276 86.4076921408996,131.4605927192606 85.26445892546326,130.31706394569483 82.8827230585739,127.45824177365284 81.54895097296685,126.21941872674506 80.40571775753051,124.69471335038543 80.40571775753051,124.12294880929403 80.78679549554363,123.36059606657363 80.78679549554363,122.50294920243323 80.02464001812041,119.4535378802102 80.02464001812041,114.7841260425048 79.73883171426132,113.64059647417162 78.11925132479519,111.06765474623535 78.02398189064115,110.68647817044985 78.59559849835932,109.16177180665545 78.30979019450024,108.68530104809906 77.92871245602146,108.304124434595 76.7854792396538,107.541771188844 75.83278489299119,106.58882959780749 74.88009054632857,105.15941714029759 74.88009054632857,104.77824047068134 75.07062941556796,104.30176962504629 76.02332376269624,102.96765120630153 75.92805432761088,102.20529779104982 73.83212676504627,99.72764902363997 72.2125463760458,98.67941292957403 70.21188824763522,97.72647098603193 69.25919390143827,97.5358825926669 68.68757729325444,97.63117678975686 68.02069124998525,98.20294196240138 67.92542181583121,98.96529550524428 68.2112301196903,99.53706064657308 69.54500220529735,100.49000251793768 70.68823542119935,102.1100036125863 71.25985202938318,102.49118032469414 71.92673807172105,102.58647450187709 72.2125463760458,102.39588614739478 73.16524072224274,101.15706180548295 73.3557795919478,100.39470833248924 72.97470185300335,99.72764902363997 72.2125463760458,99.06058969639707 71.06931315967813,98.58411873702426 69.83081050915644,97.72647098603193 70.59296598657966,101.72882689419203 71.06931315967813,102.30059196939692 72.02200750634074,102.68176867847797 72.49835467990488,102.30059196939692 72.59362411405891,101.72882689419203 72.11727694096044,101.06176762259565 71.25985202938318,100.39470833248924 71.83146863663569,100.10882577369921" stroke="#4dd2ff" stroke-linecap="round" stroke-linejoin="round" stroke-width="0.5"><title>2022-04-15 3.3km</title></polyline><polyline fill="none" points="137.10276367515326,123.14344375487417 137.10276367515326,122.47950935084373 138.43028764426708,119.15983728412539 136.43900169059634,114.5122962826863 121.83623801916838,102.56147596798837 113.87109419703484,98.57786900736392 109.22476030141115,99.2418035082519 107.23347434774041,100.56967249978334 105.24218839406967,103.22541045211256 105.24218839406967,109.20082069374621 108.56099831685424,116.50409958511591 120.50871404632926,123.14344375487417 123.1637619882822,127.79098451696336 123.82752397283912,130.44672203809023 128.4738578684628,137.08606565371156 133.12019176408648,137.75 135.11147772148252,135.75819695089012 137.10276367515326,127.79098451696336 141.08533558249474,119.15983728412539 141.08533558249474,115.84016515407711 139.0940496325493,113.18442740198225 123.1637619882822,104.55327941384166 108.56099831685424,101.23360699042678 105.9059503749013,102.56147596798837 103.25090243667364,106.54508283454925 103.25090243667364,110.52868960797787 105.24218839406967,115.17623072024435 109.22476030141115,117.83196844067425 119.84495206549764,119.15983728412539 124.49128595739603,121.15164053160697 127.14633389934897,124.47131255734712 131.12890581041574,133.10245951544493 133.12019176408648,134.43032823782414 135.11147772148252,133.76639387849718 137.76652565598488,127.12705013062805 139.0940496325493,119.15983728412539 137.10276367515326,114.5122962826863 123.1637619882822,102.56147596798837 117.1899041198194,99.90573800448328 111.8798082433641,100.56967249978334 107.89723633229733,106.54508283454925 107.89723633229733,113.18442740198225 111.21604625880718,117.16803401429206 119.84495206549764,120.48770611919463 123.1637619882822,128.45491890143603 126.48257191106677,133.10245951544493 131.12890581041574,135.09426259621978 134.4477157332003,134.43032823782414 136.43900169059634,131.77459078188986 139.7578116171062,123.14344375487417 140.4215736016631,117.16803401429206 139.0940496325493,113.84836184419692 133.12019176408648,107.20901730377227 124.49128595739603,101.23360699042678 116.52614213898778,99.2418035082519 111.21604625880718,101.89754148200154 108.56099831685424,107.87295176833868 108.56099831685424,115.84016515407711 111.21604625880718,120.48770611919463 122.50000000372529,126.46311574149877 128.4738578684628,132.43852514959872 133.12019176408648,133.76639387849718 137.10276367515326,131.77459078188986 140.4215736016631,127.12705013062805 141.74909756705165,122.47950935084373 141.74909756705165,118.49590286426246 139.0940496325493,114.5122962826863 127.14633389934897,103.88934493530542 119.18119007721543,100.56967249978334 112.54357022792101,100.56967249978334 110.55228427425027,101.89754148200154 108.56099831685424,105.88114836532623 108.56099831685424,111.19262405950576 113.20733221247792,119.82377170398831 123.82752397283912,125.79918134957552 131.12890581041574,133.10245951544493 135.11147772148252,133.76639387849718 137.10276367515326,129.78278766199946 139.0940496325493,121.15164053160697 137.10276367515326,116.50409958511591 127.14633389934897,104.55327941384166 119.18119007721543,100.56967249978334 113.20733221247792,100.56967249978334 109.22476030141115,102.56147596798837 107.23347434774041,106.54508283454925 107.23347434774041,110.52868960797787 110.55228427425027,118.49590286426246 121.83623801916838,124.47131255734712 126.48257191106677,133.10245951544493 129.80138183757663,135.09426259621978 134.4477157332003,135.09426259621978 137.76652565598488,129.78278766199946 139.7578116171062,121.815574943088 139.7578116171062,117.16803401429206 137.10276367515326,112.52049295697361 126.48257191106677,103.22541045211256 117.8536661081016,99.90573800448328 111.8798082433641,100.56967249978334 108.56099831685424,103.88934493530542 107.23347434774041,105.88114836532623 107.23347434774041,112.52049295697361 109.88852228596807,117.16803401429206 118.51742809265852,123.14344375487417 124.49128595739603,133.10245951544493 129.80138183757663,134.43032823782414 135.77523970603943,132.43852514959872 137.10276367515326,131.11065641138703 139.7578116171062,125.79918134957552 139.7578116171062,118.49590286426246 138.43028764426708,115.84016515407711 133.12019176408648,110.52868960797787 120.50871404632926,99.90573800448328 114.53485618531704,98.57786900736392 109.88852228596807,99.90573800448328 107.23347434774041,103.88934493530542 107.23347434774041,110.52868960797787 111.8798082433641,117.16803401429206 119.18119007721543,121.15164053160697 124.49128595739603,131.77459078188986 126.48257191106677,133.10245951544493 132.45642977952957,133.76639387849718 137.10276367515326,131.11065641138703 141.08533558249474,123.14344375487417 141.08533558249474,117.16803401429206 138.43028764426708,112.52049295697361 126.48257191106677,103.88934493530542 116.52614213898778,99.90573800448328 113.20733221247792,100.56967249978334 109.88852228596807,101.23360699042678 106.5697123631835,107.87295176833868 106.5697123631835,111.19262405950576 108.56099831685424,115.84016515407711 128.4738578684628,132.43852514959872 133.12019176408648,133.10245951544493 139.0940496325493,129.1188532821834 141.08533558249474,124.47131255734712 141.08533558249474,118.49590286426246 139.7578116171062,116.50409958511591 132.45642977952957,107.87295176833868 121.83623801916838,100.56967249978334 115.19861816614866,99.2418035082519 109.88852228596807,102.56147596798837 108.56099831685424,104.55327941384166 107.23347434774041,113.18442740198225 109.88852228596807,119.15983728412539 113.87109419703484,121.815574943088 121.83623801916838,125.1352469548583 125.15504794195294,130.44672203809023 129.80138183757663,133.10245951544493 135.11147772148252,133.10245951544493 137.76652565598488,130.44672203809023 139.7578116171062,127.12705013062805 141.08533558249474,121.15164053160697 139.0940496325493,116.50409958511591 123.1637619882822,101.23360699042678 117.8536661081016,97.91393450368196 113.87109419703484,98.57786900736392 109.22476030141115,101.89754148200154 107.23347434774041,106.54508283454925 107.23347434774041,110.52868960797787 109.22476030141115,115.17623072024435 111.21604625880718,117.83196844067425 119.84495206549764,123.14344375487417 127.81009588390589,133.76639387849718 135.11147772148252,134.43032823782414 137.10276367515326,133.10245951544493 139.0940496325493,129.1188532821834 140.4215736016631,124.47131255734712 140.4215736016631,119.15983728412539 139.0940496325493,116.50409958511591 134.4477157332003,109.86475515086204 127.14633389934897,104.55327941384166 113.20733221247792,103.22541045211256 111.8798082433641,103.88934493530542 108.56099831685424,111.19262405950576 108.56099831685424,115.84016515407711 109.88852228596807,119.82377170398831 111.8798082433641,121.815574943088 122.50000000372529,126.46311574149877 129.80138183757663,131.77459078188986 133.12019176408648,132.43852514959872 138.43028764426708,129.78278766199946 140.4215736016631,119.15983728412539 139.0940496325493,115.17623072024435 128.4738578684628,105.21721389051527 119.84495206549764,99.2418035082519 115.19861816614866,97.91393450368196 109.22476030141115,100.56967249978334 107.23347434774041,106.54508283454925 107.23347434774041,109.20082069374621 109.22476030141115,114.5122962826863 119.84495206549764,121.15164053160697 126.48257191106677,133.10245951544493 130.46514382213354,136.4221313027665 134.4477157332003,136.4221313027665 141.08533558249474,122.47950935084373 141.08533558249474,118.49590286426246 137.76652565598488,114.5122962826863 125.15504794195294,105.21721389051527 117.8536661081016,100.56967249978334 113.87109419703484,99.2418035082519 109.88852228596807,100.56967249978334 107.23347434774041,103.22541045211256 107.23347434774041,111.19262405950576 107.89723633229733,113.84836184419692 111.21604625880718,119.15983728412539 121.17247603088617,128.45491890143603 127.14633389934897,131.77459078188986 133.12019176408648,133.10245951544493 137.10276367515326,131.77459078188986 141.08533558249474,125.79918134957552 141.08533558249474,119.15983728412539 138.43028764426708,114.5122962826863 126.48257191106677,103.88934493530542 117.8536661081016,99.90573800448328 111.8798082433641,101.23360699042678 107.23347434774041,109.20082069374621 109.22476030141115,114.5122962826863 120.50871404632926,121.815574943088 123.1637619882822,125.1352469548583 127.14633389934897,133.76639387849718 130.46514382213354,137.08606565371156 133.12019176408648,137.08606565371156 135.11147772148252,134.43032823782414 140.4215736016631,120.48770611919463 140.4215736016631,117.16803401429206 137.76652565598488,113.18442740198225 123.1637619882822,101.89754148200154 115.86238015443087,99.2418035082519 110.55228427425027,99.90573800448328 107.23347434774041,102.56147596798837 105.9059503749013,108.53688623383641 109.22476030141115,115.17623072024435 117.8536661081016,120.48770611919463 124.49128595739603,132.43852514959872 128.4738578684628,135.75819695089012 133.12019176408648,137.08606565371156 135.11147772148252,133.76639387849718 141.08533558249474,118.49590286426246 139.0940496325493,114.5122962826863 129.13761985301971,107.20901730377227 123.82752397283912,101.89754148200154 112.54357022792101,97.25 109.22476030141115,97.91393450368196 105.9059503749013,102.56147596798837 107.23347434774041,110.52868960797787 111.21604625880718,117.16803401429206 121.83623801916838,123.80737815890461 126.48257191106677,133.10245951544493 128.4738578684628,135.09426259621978 134.4477157332003,137.08606565371156 138.43028764426708,134.43032823782414 139.0940496325493,127.79098451696336 141.74909756705165,121.15164053160697 141.08533558249474,117.83196844067425 127.14633389934897,103.88934493530542 126.48257191106677,103.22541045211256 106.5697123631835,113.84836184419692" stroke="#4dd2ff" stroke-linecap="round" stroke-linejoin="round" stroke-width="0.5"><title>2022-04-13 3.4km</title></polyline><polyline fill="none" points="161.10189357260242,101.16627656610217 160.5289288177155,101.54835229436867 159.76497581182048,101.54835229436867 159.28750518290326,101.26179549877997 158.33256392460316,100.11556828184985 158.0460815471597,99.5424546529539 157.95058742212132,98.96934101020452 158.52355217654258,97.8231136839604 159.0010228054598,97.63207579089794 159.47849343437701,97.72759473742917 161.29288182407618,98.77830312633887 162.72529371082783,99.92453040694818 163.0117760882713,100.59316296223551 162.91628196230158,101.07075763319153 161.9613407049328,102.59906051622238 161.48387007554993,102.69457944307942 160.6244229436852,102.12146587553434 159.95596406282857,100.87971976585686 158.81003455398604,100.11556828184985 158.42805805057287,99.73349253088236 158.14157567359507,99.16037889255676 158.14157567359507,98.49174629757181 158.61904630204663,97.8231136839604 159.28750518290326,97.72759473742917 160.5289288177155,98.77830312633887 162.53430545935407,100.11556828184985 162.82078783679754,100.87971976585686 162.53430545935407,101.83490908669773 162.05683483043686,102.59906051622238 161.7703524529934,102.69457944307942 161.29288182407618,102.69457944307942 160.7199170696549,102.21698480437044 158.61904630204663,100.11556828184985 158.23706979909912,99.25589783326723 158.23706979909912,98.49174629757181 158.71454042801633,97.8231136839604 159.19201105693355,97.72759473742917 159.66948168585077,97.91863262967672 160.7199170696549,98.58726524072699 162.53430545935407,100.2110872187186 162.82078783679754,100.59316296223551 162.91628196230158,101.07075763319153 162.05683483043686,102.88561729574576 162.05683483043686,103.36321192106698 162.2478230819106,103.84080653672572 166.54505874216557,108.23467655631248 167.4045058740303,108.90330888004974 167.69098825147375,109.28538448526524 167.78648237744346,109.95401677989867 167.02252937108278,111.48231909761671 167.02252937108278,112.05543244176079 168.55043538333848,114.538923441316 168.8369177612476,115.11203671258409 168.7414236352779,118.45519718888681 169.21889426372945,121.60731949761976 170.17383552202955,123.1356210745871 170.2693296475336,124.37736603431404 170.460317899473,125.0459979090374 170.84229440195486,125.6191109296633 171.6062474087812,126.19222393690143 170.84229440195486,125.33255442115478 169.8873531445861,125.0459979090374 168.16845888039097,125.52359209395945 167.2135176230222,126.09670510329306 166.44956461619586,126.95637459191494 165.78110573580489,128.29363817931153 165.68561160983518,129.53538287279662 165.97209398727864,130.6816086868057 167.02252937108278,132.20990968728438 169.9828472705558,135.64858658332378 170.7468002764508,136.41273693786934 171.892729785759,137.27240605768748 172.94316516956314,137.75 173.80261230142787,137.75 174.94854181073606,137.55896242440213 175.9034830685705,136.89033089729492 176.85842432640493,135.0754738014657 177.1449067038484,133.54717298294418 176.95391845237464,132.4964661138365 176.38095369795337,131.44575919921044 171.6062474087812,126.38326160283759 170.460317899473,125.71462976525072 169.50537664117292,125.52359209395945 168.26395300636068,125.6191109296633 167.30901174806058,126.00118626945186 166.54505874216557,126.57429926714394 165.78110573580489,127.72052522236481 165.59011748433113,128.96226994530298 165.8765998617746,130.10849578655325 166.73604699363932,131.92335325700697 167.78648237744346,133.26061656849924 171.03328265389428,136.5082557303831 172.17921216320246,137.4634436358465 173.2296475470066,137.75 174.37557705584913,137.55896242440213 175.6170006915927,136.79481210606173 176.47644782345742,135.74410537886433 176.95391845237464,134.6933986057993 177.1449067038484,133.64269178709947 177.04941257834435,132.9740601509111 176.47644782345742,131.25472157343756 175.9034830685705,130.49057105497923 174.56656530778855,129.6309016927844 173.70711817592382,128.58019465289544 172.08371803769842,126.86085576121695 171.41525915684178,125.81014860037249 171.03328265389428,124.66392255411483 170.7468002764508,124.66392255411483 171.03328265389428,121.1297252351651 170.2693296475336,118.3596783245448 169.79185901861638,114.06132903834805 169.40988251566887,113.39269685803447 168.16845888039097,111.57783798931632 167.8819765029475,111.1002435273258 167.97747062891722,110.71816795086488 168.26395300636068,110.14505457505584 168.16845888039097,109.47642228577752 166.92703524511307,107.47052530630026 164.92165860394016,105.84670381934848 164.53968210099265,105.4646281596506 164.53968210099265,104.89151465811301 164.92165860394016,103.64976869162638 164.82616447797045,102.98113622167148 164.06221147160977,102.21698480437044 163.29825846571475,100.9752386995824 160.7199170696549,98.01415157539304 160.146952314768,97.63207579089794 159.76497581182048,97.53655684366822 159.0965169314295,97.63207579089794 158.42805805057287,98.01415157539304 157.8550932961516,98.77830312633887 157.8550932961516,99.25589783326723 158.0460815471597,99.82901146903168 159.86046993732452,101.54835229436867 161.10189357260242,102.31250373297371 162.43881133338436,102.025946946349 163.0117760882713,101.73939015634824 163.20276433974504,101.35731443110853 163.29825846571475,100.78420083166566 163.20276433974504,100.30660615500528 163.0117760882713,99.92453040694818 161.57936420105398,98.8738220683299 159.47849343437701,97.91863262967672 158.52355217654258,97.8231136839604 157.95058742212132,98.1096705206437 157.8550932961516,98.49174629757181 157.95058742212132,98.96934101020452 159.19201105693355,100.49764402699657 159.47849343437701,101.6438712257659 160.43343469221145,102.59906051622238 161.10189357260242,102.69457944307942 162.53430545935407,101.83490908669773 163.0117760882713,101.26179549877997 162.91628196230158,100.11556828184985 162.1523289559409,99.06485995172989 160.6244229436852,98.20518946531229 159.57398756034672,97.91863262967672 158.71454042801633,98.1096705206437 158.33256392460316,98.68278418364935 158.52355217654258,99.35141677339561 159.3829993084073,100.30660615500528 159.76497581182048,101.73939015634824 160.05145818926394,102.21698480437044 160.91090532112867,102.88561729574576 161.86584657849744,102.98113622167148 162.34331720788032,102.59906051622238 162.82078783679754,100.68868189724162 162.05683483043686,99.35141677339561 161.10189357260242,98.1096705206437 160.6244229436852,97.8231136839604 159.86046993732452,97.8231136839604 158.9055286794901,98.01415157539304 158.23706979909912,98.49174629757181 158.0460815471597,99.06485995172989 158.0460815471597,99.73349253088236 158.71454042801633,101.07075763319153 159.47849343437701,101.6438712257659 160.6244229436852,102.025946946349 161.86584657849744,102.79009836958721 162.2478230819106,102.69457944307942 162.53430545935407,102.4080226609949 162.72529371082783,101.45283336297143 162.62979958485812,99.92453040694818 162.05683483043686,98.96934101020452 160.5289288177155,97.63207579089794 159.86046993732452,97.34551894827746 159.3829993084073,97.34551894827746 158.81003455398604,97.63207579089794 158.42805805057287,98.01415157539304 158.0460815471597,98.77830312633887 158.0460815471597,99.446935713524 158.52355217654258,100.2110872187186 159.66948168585077,100.87971976585686 160.05145818926394,102.025946946349 160.5289288177155,102.59906051622238 161.38837595004588,102.88561729574576 162.43881133338436,102.79009836958721 162.62979958485812,101.83490908669773 163.20276433974504,101.16627656610217 163.29825846571475,100.49764402699657 162.91628196230158,100.02004934474826 159.57398756034672,97.63207579089794 158.9055286794901,97.25 158.42805805057287,97.44103789608926 158.0460815471597,98.1096705206437 157.8550932961516,99.06485995172989 158.9055286794901,100.40212509129196 159.3829993084073,101.93042801669799 160.43343469221145,102.69457944307942 161.0063994466327,102.88561729574576 161.48387007554993,102.79009836958721 161.9613407049328,102.50354158878326 162.2478230819106,102.025946946349 162.1523289559409,101.73939015634824 162.53430545935407,101.6438712257659 161.48387007554993,101.35731443110853" stroke="#4dd2ff" stroke-linecap="round" stroke-linejoin="round" stroke-width="0.5"><title>2022-04-09 3.1km</title></polyline><polyline fill="none" points="39.70575514063239,187.64830619562417 40.39201753214002,177.3516960265115 12.25525937601924,170.48728890530765 42.450804714113474,200.00423758849502 49.31342865526676,179.4110181098804 23.921720076352358,164.9957630103454 15.686571348458529,169.80084817949682 43.823329500854015,200.69067819509655 49.31342865526676,180.78389948420227 15.686571348458529,169.11440744809806 45.19585429131985,199.3177969781682 49.99969105049968,178.03813672345132 16.372833739966154,167.74152598064393 43.13706710934639,198.63135636597872 50.68595344573259,180.0974587984383 25.980507254600525,165.68220375850797 15.686571348458529,169.80084817949682 42.450804714113474,199.3177969781682 51.37221583724022,179.4110181098804 24.607982471585274,164.9957630103454 15.000308953225613,169.11440744809806 43.13706710934639,200.00423758849502 51.37221583724022,176.6652553267777 24.607982471585274,162.9364407574758 15.686571348458529,169.80084817949682 44.50959189981222,198.63135636597872 49.99969105049968,178.03813672345132 16.372833739966154,167.0550852417946 43.13706710934639,198.63135636597872 52.058478232473135,179.4110181098804 25.29424486681819,164.30932226311415 15.686571348458529,168.42796671576798 45.88211668282747,198.63135636597872 52.74474062398076,180.0974587984383 17.05909613519907,167.0550852417946 17.05909613519907,178.72457741759717 41.07827992737293,197.94491575099528 49.31342865526676,178.03813672345132 25.980507254600525,164.30932226311415 15.686571348458529,168.42796671576798 43.823329500854015,200.69067819509655 49.31342865526676,180.0974587984383 26.66676965355873,164.30932226311415 16.372833739966154,167.74152598064393 43.823329500854015,197.94491575099528 51.37221583724022,180.0974587984383 26.66676965355873,162.25 15.000308953225613,167.74152598064393 45.88211668282747,202.75 41.76454231888056,169.80084817949682" stroke="#4dd2ff" stroke-linecap="round" stroke-linejoin="round" stroke-width="0.5"><title>2022-01-19 2.1km</title></polyline><polyline fill="none" points="71.89376420155168,190.9115395443514 85.59789615496993,202.75 92.44996212795377,182.18846284784377 65.04169822856784,163.4961540028453 60.058377515524626,177.20384737476707 81.23749053478241,200.88076946139336 88.08955650776625,200.25769261084497 93.07287721708417,182.811539770104 65.66461331397295,162.87307700235397 60.68129260838032,175.95769348088652 80.61457544565201,199.63461575563997 89.33538668602705,198.38846204150468 92.44996212795377,180.31923206336796 71.89376420155168,163.4961540028453 62.55003787204623,165.98846197780222 61.92712278291583,179.07307819556445 82.48332070931792,200.25769261084497 94.31870739534497,182.811539770104 72.51667929068208,164.11923099961132 62.55003787204623,165.98846197780222 60.68129260838032,177.20384737476707 81.23749053478241,199.01153890043497 91.82704704254866,181.56538592185825 65.04169822856784,162.25 60.058377515524626,175.95769348088652 81.23749053478241,199.01153890043497 88.08955650776625,198.38846204150468 91.82704704254866,180.94230899307877 72.51667929068208,163.4961540028453 60.68129260838032,166.61153896525502 60.68129260838032,177.20384737476707 79.9916603565216,199.01153890043497 89.33538668602705,199.01153890043497 95.56453757360578,182.811539770104 73.76250946894288,164.74230799637735 61.92712278291583,165.98846197780222 60.68129260838032,178.45000125654042 81.86040562018752,198.38846204150468 90.58121686428785,182.811539770104 70.64793402329087,165.36538498755544 59.435462430119514,168.48076991178095 83.72915088757873,200.25769261084497 92.44996212795377,179.6961551308632 71.89376420155168,163.4961540028453 61.30420769378543,166.61153896525502 63.172952961176634,182.18846284784377 82.48332070931792,200.88076946139336 93.07287721708417,180.94230899307877 69.40210384875536,163.4961540028453 60.058377515524626,166.61153896525502 59.435462430119514,178.45000125654042 81.23749053478241,200.25769261084497 91.82704704254866,180.31923206336796 70.64793402329087,165.36538498755544 60.68129260838032,168.48076991178095 83.10623579844832,202.1269231569022 93.07287721708417,181.56538592185825 70.64793402329087,164.74230799637735 60.68129260838032,167.85769293271005 60.058377515524626,179.6961551308632 81.23749053478241,200.88076946139336 91.20413195341825,182.18846284784377 70.02501893788576,164.74230799637735 60.68129260838032,166.61153896525502 61.92712278291583,179.6961551308632 81.86040562018752,201.50384630914778 94.31870739534497,181.56538592185825 62.55003787204623,165.98846197780222 61.30420769378543,179.07307819556445 81.23749053478241,200.25769261084497 89.33538668602705,199.63461575563997 94.31870739534497,182.18846284784377 61.92712278291583,164.74230799637735 61.92712278291583,179.6961551308632 78.7458301782608,200.25769261084497 87.46664142236114,200.88076946139336 79.9916603565216,185.30384743772447 86.22081124410033,192.15769331902266 89.95830177143216,182.811539770104" stroke="#4dd2ff" stroke-linecap="round" stroke-linejoin="round" stroke-width="0.5"><title>2022-01-10 2.8km</title></polyline><polyline fill="none" points="139.60822848323733,195.33450875338167 124.78109713084996,185.63732673600316 124.2108228476718,191.6267628427595 133.62034851498902,201.89436643384397 138.18254277668893,193.90845265705138 124.2108228476718,186.77817174745724 124.78109713084996,192.76760775921866 134.19062279723585,201.609155242797 137.6122684944421,193.3380302102305 129.05815425142646,187.0633829976432 124.78109713084996,188.2042279858142 133.90548565611243,201.89436643384397 137.8974056346342,193.3380302102305 128.2027428271249,186.77817174745724 123.92568570747972,188.2042279858142 133.90548565611243,201.89436643384397 137.8974056346342,193.05281898519024 128.48787996917963,186.49296049587429 124.78109713084996,187.63380549382418 133.62034851498902,201.609155242797 138.46767991874367,193.90845265705138 128.2027428271249,186.77817174745724 124.2108228476718,188.2042279858142 133.62034851498902,202.75 138.46767991874367,193.3380302102305 124.49595998972654,187.0633829976432 124.49595998972654,193.3380302102305 133.90548565611243,202.17957762349397 139.3230913421139,193.62324143387377 124.2108228476718,187.63380549382418 124.2108228476718,192.76760775921866 133.33521137293428,201.609155242797 137.8974056346342,193.3380302102305 125.35137141402811,186.49296049587429 124.2108228476718,191.91197407385334 130.7689771000296,197.61619844986126 136.4717199280858,192.48239653138444 125.35137141402811,186.49296049587429 123.92568570747972,192.19718530308455 133.05007423087955,201.609155242797 136.4717199280858,201.32394405035302 138.75281705986708,193.62324143387377 129.05815425142646,186.49296049587429 124.2108228476718,188.2042279858142 134.19062279723585,202.75 137.6122684944421,193.3380302102305 127.9176056869328,186.77817174745724 123.92568570747972,188.48943922994658 134.47575993835926,202.75 138.18254277668893,193.90845265705138 125.06623427197337,186.77817174745724 123.92568570747972,191.6267628427595 129.3432913934812,199.3274656739086 135.90144564583898,202.17957762349397 138.75281705986708,193.90845265705138 126.7770571205765,186.20774924429134 123.92568570747972,193.90845265705138 135.0460342215374,202.75 136.75685707014054,192.48239653138444 126.7770571205765,184.78169296542183 122.21486285887659,173.37324171653017 105.39177151676267,162.25" stroke="#4dd2ff" stroke-linecap="round" stroke-linejoin="round" stroke-width="0.5"><title>2022-01-04 2.5km</title></polyline><polyline fill="none" points="162.6798237003386,193.7500008782372 174.8909369930625,202.75 181.96052890270948,185.39285838603973 153.6821612715721,166.1071432940662 149.82602022960782,178.96428694482893 169.7494156062603,201.46428587008268 181.96052890270948,184.10714411828667 154.3248514458537,164.82142887357622 149.82602022960782,176.3928582975641 168.4640352614224,200.82142880186439 182.60321907699108,181.5357155520469 163.3225138708949,163.5357144428417 154.96754161641002,165.4642860852182 153.03947109729052,178.32142978720367 169.7494156062603,201.46428587008268 183.88859942182899,184.10714411828667 153.6821612715721,165.4642860852182 151.7540907524526,177.6785726249218 168.4640352614224,200.17857173085213 176.1763173416257,200.17857173085213 183.2459092475474,182.17857269756496 155.6102317944169,164.17857165820897 152.39678092300892,176.3928582975641 168.4640352614224,200.82142880186439 185.17397977039218,183.46428698021919 163.9652040451765,163.5357144428417 153.6821612715721,165.4642860852182 151.11140057444572,177.0357154617086 168.4640352614224,200.17857173085213 183.88859942182899,184.10714411828667 155.6102317944169,162.25 150.46871040388942,175.75000112690032 169.1067254319787,199.53571465611458 183.2459092475474,182.17857269756496 151.11140057444572,165.4642860852182 150.46871040388942,177.6785726249218 168.4640352614224,200.82142880186439 176.1763173416257,200.17857173085213 183.2459092475474,181.5357155520469 162.037133526057,164.82142887357622 152.39678092300892,166.75000050105155 169.1067254319787,200.17857173085213 183.2459092475474,183.46428698021919 161.3944433517754,162.8928572209552 152.39678092300892,164.82142887357622 150.46871040388942,177.6785726249218 169.7494156062603,200.82142880186439 183.88859942182899,182.17857269756496 153.03947109729052,164.82142887357622 150.46871040388942,177.0357154617086 167.8213450871408,199.53571465611458 176.8190075159073,200.17857173085213 185.8166699409485,183.46428698021919 154.3248514458537,162.25 149.18333005532622,177.6785726249218 168.4640352614224,198.8928575804457 177.46169769018888,198.8928575804457 180.6751485541463,182.82142984028906" stroke="#4dd2ff" stroke-linecap="round" stroke-linejoin="round" stroke-width="0.5"><title>2021-12-13 2.2km</title></polyline><polyline fill="none" points="41.74216906283982,233.28727365937084 39.85601211106405,231.2748493627878 37.21539237862453,233.79037969349883 36.460929598193616,233.85326794651337 37.089648582041264,233.1614971483359 31.745537219336256,233.72749144001864 32.24851240613498,232.5326145782601 28.727686096681282,235.6770271784626 21.183058290276676,229.8284192410065 16.719153504818678,229.76553097192664 20.17710791598074,240.2678684515413 24.515268904855475,245.17314943426754 26.527169652981684,249.76398795028217 26.338553957873955,256.80746363289654 27.34450433216989,259.3229899033904 24.38952510780655,261.58696320524905 26.40142585639842,265.04581068095285 26.087066364241764,266.6809019523207 25.018244091887027,264.16537684958894 32.87723139021546,266.3035732122371 28.03609521430917,264.47981750930194 24.075165616115555,265.7375800856389 23.50931853055954,267.30978316569235 22.566240054555237,267.30978316569235 24.326653209282085,267.75 22.000392968999222,265.7375800856389 24.20090941269882,263.85093618382234 33.25446278043091,265.9891325888457 34.51190074835904,267.1840069248574 35.329235427314416,265.80046821164433 36.901032886933535,265.4231394508388 21.24593018856831,236.80901556147728 18.856798049760982,230.39441365224775 21.434545883676037,230.64596671739127 23.257830936694518,228.50776553608011 24.138037514174357,229.45108962233644 24.263781310990453,227.25 22.314752461155877,228.69643035775516 23.572190428851172,227.69021794910077 30.802458743331954,234.10482095659245 31.934152914443985,233.35016191436443 34.889132138574496,234.356373962597 39.66739641618915,231.4635141514009 42.68524753861129,233.22438540391158 46.20607384829782,227.8788827805547 48.28084649494849,228.00465933373198" stroke="#4dd2ff" stroke-linecap="round" stroke-linejoin="round" stroke-width="0.5"><title>2021-11-30 3.6km</title></polyline><polyline fill="none" points="97.62519260391127,260.59783099309425 96.79314329731278,260.24411769158905 92.00885978422593,256.3948831529997 86.30932203389239,253.93969423198723 81.77465331275016,252.77451942345942 81.35862865950912,253.1906533135625 79.9233436054783,252.81613281398313 77.21918335894588,250.27771538335946 65.1960708781844,241.99664005686645 64.75924499228131,240.87307605403475 64.8424499228131,240.26968047043192 63.843990754918195,240.26968047043192 63.67758089362178,240.62339513143525 62.47110939910635,239.97838602555566 58.37326656386722,236.087522940099 57.68682588590309,234.67266291051055 57.624422187916934,235.40089973880094 57.25,235.50493356306106 57.749229583889246,235.98348912762594 59.10130970727187,234.42298168857815 58.41486902930774,233.88200566641171 58.43567026196979,234.1941072246118 57.93644067796413,233.27860926708672 58.24845916789491,234.13168691447936 60.86941448377911,237.23189473964158 63.303158705704845,239.35418358858442 63.59437596297357,240.4985546655662 64.80084745760541,240.31129396118922 64.80084745760541,240.7898490811931 65.42488443758339,241.37243786314502 72.64291217259597,246.5949272341968 72.78852080123033,247.28154895163607 77.23998459160794,250.46497572795488 79.50731895223726,252.73290603258647 81.54583975346759,253.5027537093265 85.74768875190057,254.35582802889985 91.53043143288232,256.6237566375348 97.75,261.7213907329133" stroke="#4dd2ff" stroke-linecap="round" stroke-linejoin="round" stroke-width="0.5"><title>2021-11-29 5.7km</title></polyline><polyline fill="none" points="142.75,262.2463468752976 140.98185840714723,261.194746030902 141.5075221239822,260.0953449512017 141.1730088496115,257.8726421529718 141.45973451330792,257.53804166041664 134.26769911509473,251.80203031090787 132.1889380532084,250.58312719129026 126.71725663729012,248.3365207905881 121.36504424770828,247.022016654053 121.34115044260398,246.47231483843643 120.1464601769112,246.23331403327757 118.9756637167884,245.49241147658904 116.58628318586852,242.83950156797073 102.25,232.7536531246733 102.39336283190642,233.9008594956831 116.46681415929925,243.67600481957197 119.19070796470623,246.3528144370939 121.53230088495184,247.21321727370378 126.16769911511801,248.24092049946194 133.19247787620407,251.06112844427116 140.09778761060443,256.6537402686954" stroke="#4dd2ff" stroke-linecap="round" stroke-linejoin="round" stroke-width="0.5"><title>2021-11-08 4.6km</title></polyline><polyline fill="none" points="152.8144847699441,240.25383200819488 157.01409591699485,244.1657298367063 159.40262475702912,245.29466636411962 159.48136746592354,246.0035333877313 165.54455605952535,251.0968719944649 166.48946856765542,250.36175119996187 167.19815294875298,250.59804003566387 167.9855800389778,249.7053932789422 168.56302657164633,249.81041055064998 170.45285158790648,251.14938061955036 171.94896305911243,251.56944960504188 176.69977316912264,255.03501772152958 181.97553467273246,256.373986736784 186.14889825030696,255.66512082115514 186.41137394681573,256.4002410285466 186.2013933894923,257.52917547436664 186.80508749198634,257.2141240204219 186.51636422565207,256.95158113067737 187.75,256.95158113067737 186.67384964367375,256.4527496116352 186.88383020099718,257.13536115462193 186.5688593648374,257.0828525768302 187.56626701238565,257.266632597195 186.14889825030696,257.4504126123502 185.51895657810383,260.6271806436125 184.81027219712269,261.8348771831952 183.9965975373052,266.8756951573596 181.18810758262407,266.6919154023926 179.61325340240728,267.505797136022 178.6945884641027,267.32201739843003 175.51863253407646,264.1977610834874 175.5973752430873,263.62016731861513 175.0986714194296,262.99006497257506 175.2299092677422,261.65109728911193 177.43470511981286,259.57700956144254 171.97521062858868,259.314466765034 171.79147764097434,258.0017526273732 170.13788075186312,255.66512082115514 167.09316267014947,252.40958749636775 159.42887232662179,245.89851605566218 159.40262475702912,245.37342937049107 158.40521710948087,245.1108860123204 156.90910563839134,244.03445813499275 150.84591704467312,238.36351813471993 150.76717433566228,237.65465029279585 148.56237848335877,234.42536249521072 148.61487362277694,233.61147670366336 148.11616979900282,233.1126434270118 149.1660725857364,231.72116092959186 148.71986390138045,231.35359946620883 148.6673687620787,229.9358622012951 147.25,229.01695825569914 147.45998055732343,228.04554537398508 147.87994167208672,227.86176454243832 147.40748541802168,227.494202863978" stroke="#4dd2ff" stroke-linecap="round" stroke-linejoin="round" stroke-width="0.5"><title>2021-07-04 5.1km</title></polyline></svg>