<?xml version="1.0" encoding="utf-8" ?>
<svg baseProfile="full" height="300mm" version="1.1" viewBox="0,0,200,300" width="200mm" xmlns="http://www.w3.org/2000/svg" xmlns:ev="http://www.w3.org/2001/xml-events" xmlns:xlink="http://www.w3.org/1999/xlink"><defs /><rect fill="#222222" height="300" width="200" x="0" y="0" /><text fill="#FFFFFF" style="font-size:12px; font-family:Arial; font-weight:bold;" x="10" y="20">Over 2km Runs</text><text fill="#FFFFFF" style="font-size:4px; font-family:Arial" x="10" y="280">ATHLETE</text><text fill="#FFFFFF" style="font-size:9px; font-family:Arial" x="10" y="290">WonSikin</text><text fill="#FFFFFF" style="font-size:4px; font-family:Arial" x="120" y="280">STATISTICS</text><text fill="#FFFFFF" style="font-size:3px; font-family:Arial" x="120" y="285">Number: 9</text><text fill="#FFFFFF" style="font-size:3px; font-family:Arial" x="120" y="290">Weekly: 1.1</text><text fill="#FFFFFF" style="font-size:3px; font-family:Arial" x="141" y="285">Total: 32.0 km</text><text fill="#FFFFFF" style="font-size:3px; font-family:Arial" x="141" y="290">Avg: 3.6 km</text><text fill="#FFFFFF" style="font-size:3px; font-family:Arial" x="167" y="285">Min: 2.1 km</text><text fill="#FFFFFF" style="font-size:3px; font-family:Arial" x="167" y="290">Max: 5.7 km</text><polyline fill="none" points="59.47035156190395,67.52459167316556 59.47035156190395,66.63934580050409 61.24038352072239,62.21311637945473 58.585335578769445,56.0163950426504 39.11498402059078,40.08196795824915 28.494792256504297,34.770492009818554 22.299680396914482,35.65573801007122 19.64463245496154,37.426230000332 16.989584520459175,40.9672139370814 16.989584520459175,48.93442759197205 21.414664417505264,58.67213278077543 37.344952058047056,67.52459167316556 40.88501597568393,73.72131268959492 41.770031958818436,77.2622960517183 47.96514381840825,86.1147542046383 54.160255681723356,87.0 56.81530361995101,84.34426260087639 59.47035156190395,73.72131268959492 64.78044743835926,62.21311637945473 64.78044743835926,57.7868868727237 62.1253995038569,54.245903202332556 40.88501597568393,42.73770588450134 21.414664417505264,38.311475987546146 17.874600492417812,40.08196795824915 14.334536578506231,45.39344378001988 14.334536578506231,50.70491947699338 16.989584520459175,56.90164096001536 22.299680396914482,60.44262458663434 36.45993607863784,62.21311637945473 42.65504793822765,64.86885404307395 46.195111859589815,69.2950834101066 51.50520773977041,80.80327935423702 54.160255681723356,82.57377098314464 56.81530361995101,81.68852517101914 60.35536753758788,72.83606684114784 62.1253995038569,62.21311637945473 59.47035156190395,56.0163950426504 40.88501597568393,40.08196795824915 32.919872153550386,36.54098400659859 25.839744314551353,37.426230000332 20.529648434370756,45.39344378001988 20.529648434370756,54.245903202332556 24.954728338867426,59.55737868603319 36.45993607863784,63.98360815830529 40.88501597568393,74.60655853617936 45.31009587645531,80.80327935423702 51.50520773977041,83.45901679527014 55.9302876368165,82.57377098314464 58.585335578769445,79.03278770949692 63.010415479540825,67.52459167316556 63.89543145895004,59.55737868603319 62.1253995038569,55.13114912528545 54.160255681723356,46.27868973836303 42.65504793822765,38.311475987546146 32.03485618159175,35.65573801007122 24.954728338867426,39.19672197569162 21.414664417505264,47.16393569111824 21.414664417505264,57.7868868727237 24.954728338867426,63.98360815830529 40.0,71.95082098804414 47.96514381840825,79.91803353279829 54.160255681723356,81.68852517101914 59.47035156190395,79.03278770949692 63.89543145895004,72.83606684114784 65.66546341776848,66.63934580050409 65.66546341776848,61.32787048537284 62.1253995038569,56.0163950426504 46.195111859589815,41.852459914050996 35.57492009550333,37.426230000332 26.72476029768586,37.426230000332 24.069712359458208,39.19672197569162 21.414664417505264,44.508197819814086 21.414664417505264,51.590165412053466 27.60977627709508,63.09836227167398 41.770031958818436,71.06557513214648 51.50520773977041,80.80327935423702 56.81530361995101,81.68852517101914 59.47035156190395,76.3770502153784 62.1253995038569,64.86885404307395 59.47035156190395,58.67213278077543 46.195111859589815,42.73770588450134 35.57492009550333,37.426230000332 27.60977627709508,37.426230000332 22.299680396914482,40.08196795824915 19.64463245496154,45.39344378001988 19.64463245496154,50.70491947699338 24.069712359458208,61.32787048537284 39.11498402059078,69.2950834101066 45.31009587645531,80.80327935423702 49.73517577722669,83.45901679527014 55.9302876368165,83.45901679527014 60.35536753758788,76.3770502153784 63.010415479540825,65.75409992411733 63.010415479540825,59.55737868603319 59.47035156190395,53.3606572765857 45.31009587645531,40.9672139370814 33.804888136684895,36.54098400659859 25.839744314551353,37.426230000332 21.414664417505264,41.852459914050996 19.64463245496154,44.508197819814086 19.64463245496154,53.3606572765857 23.1846963763237,59.55737868603319 34.68990411609411,67.52459167316556 42.65504793822765,80.80327935423702 49.73517577722669,82.57377098314464 57.70031959936023,79.91803353279829 59.47035156190395,78.14754188153893 63.010415479540825,71.06557513214648 63.010415479540825,61.32787048537284 61.24038352072239,57.7868868727237 54.160255681723356,50.70491947699338 37.344952058047056,36.54098400659859 29.379808239638805,34.770492009818554 23.1846963763237,36.54098400659859 19.64463245496154,41.852459914050996 19.64463245496154,50.70491947699338 25.839744314551353,59.55737868603319 35.57492009550333,64.86885404307395 42.65504793822765,79.03278770949692 45.31009587645531,80.80327935423702 53.27523969858885,81.68852517101914 59.47035156190395,78.14754188153893 64.78044743835926,67.52459167316556 64.78044743835926,59.55737868603319 61.24038352072239,53.3606572765857 45.31009587645531,41.852459914050996 32.03485618159175,36.54098400659859 27.60977627709508,37.426230000332 23.1846963763237,38.311475987546146 18.75961647555232,47.16393569111824 18.75961647555232,51.590165412053466 21.414664417505264,57.7868868727237 47.96514381840825,79.91803353279829 54.160255681723356,80.80327935423702 62.1253995038569,75.49180437624454 64.78044743835926,69.2950834101066 64.78044743835926,61.32787048537284 63.010415479540825,58.67213278077543 53.27523969858885,47.16393569111824 39.11498402059078,37.426230000332 30.264824215322733,35.65573801007122 23.1846963763237,40.08196795824915 21.414664417505264,42.73770588450134 19.64463245496154,54.245903202332556 23.1846963763237,62.21311637945473 28.494792256504297,65.75409992411733 39.11498402059078,70.18032927252352 43.54006391763687,77.2622960517183 49.73517577722669,80.80327935423702 56.81530361995101,80.80327935423702 60.35536753758788,77.2622960517183 63.010415479540825,72.83606684114784 64.78044743835926,64.86885404307395 62.1253995038569,58.67213278077543 40.88501597568393,38.311475987546146 33.804888136684895,33.88524600490928 28.494792256504297,34.770492009818554 22.299680396914482,39.19672197569162 19.64463245496154,45.39344378001988 19.64463245496154,50.70491947699338 22.299680396914482,56.90164096001536 24.954728338867426,60.44262458663434 36.45993607863784,67.52459167316556 47.08012784272432,81.68852517101914 56.81530361995101,82.57377098314464 59.47035156190395,80.80327935423702 62.1253995038569,75.49180437624454 63.89543145895004,69.2950834101066 63.89543145895004,62.21311637945473 62.1253995038569,58.67213278077543 55.9302876368165,49.81967353448272 46.195111859589815,42.73770588450134 27.60977627709508,40.9672139370814 25.839744314551353,41.852459914050996 21.414664417505264,51.590165412053466 21.414664417505264,57.7868868727237 23.1846963763237,63.09836227167398 25.839744314551353,65.75409992411733 40.0,71.95082098804414 49.73517577722669,79.03278770949692 54.160255681723356,79.91803353279829 61.24038352072239,76.3770502153784 63.89543145895004,62.21311637945473 62.1253995038569,56.90164096001536 47.96514381840825,43.62295185402036 36.45993607863784,35.65573801007122 30.264824215322733,33.88524600490928 22.299680396914482,37.426230000332 19.64463245496154,45.39344378001988 19.64463245496154,48.93442759197205 22.299680396914482,56.0163950426504 36.45993607863784,64.86885404307395 45.31009587645531,80.80327935423702 50.620191756635904,85.22950840368867 55.9302876368165,85.22950840368867 64.78044743835926,66.63934580050409 64.78044743835926,61.32787048537284 60.35536753758788,56.0163950426504 43.54006391763687,43.62295185402036 33.804888136684895,37.426230000332 28.494792256504297,35.65573801007122 23.1846963763237,37.426230000332 19.64463245496154,40.9672139370814 19.64463245496154,51.590165412053466 20.529648434370756,55.13114912528545 24.954728338867426,62.21311637945473 38.229968037456274,74.60655853617936 46.195111859589815,79.03278770949692 54.160255681723356,80.80327935423702 59.47035156190395,79.03278770949692 64.78044743835926,71.06557513214648 64.78044743835926,62.21311637945473 61.24038352072239,56.0163950426504 45.31009587645531,41.852459914050996 33.804888136684895,36.54098400659859 25.839744314551353,38.311475987546146 19.64463245496154,48.93442759197205 22.299680396914482,56.0163950426504 37.344952058047056,65.75409992411733 40.88501597568393,70.18032927252352 46.195111859589815,81.68852517101914 50.620191756635904,86.1147542046383 54.160255681723356,86.1147542046383 56.81530361995101,82.57377098314464 63.89543145895004,63.98360815830529 63.89543145895004,59.55737868603319 60.35536753758788,54.245903202332556 40.88501597568393,39.19672197569162 31.14984019845724,35.65573801007122 24.069712359458208,36.54098400659859 19.64463245496154,40.08196795824915 17.874600492417812,48.049181644804776 22.299680396914482,56.90164096001536 33.804888136684895,63.98360815830529 42.65504793822765,79.91803353279829 47.96514381840825,84.34426260087639 54.160255681723356,86.1147542046383 56.81530361995101,81.68852517101914 64.78044743835926,61.32787048537284 62.1253995038569,56.0163950426504 48.85015979781747,46.27868973836303 41.770031958818436,39.19672197569162 26.72476029768586,33.0 22.299680396914482,33.88524600490928 17.874600492417812,40.08196795824915 19.64463245496154,50.70491947699338 24.954728338867426,59.55737868603319 39.11498402059078,68.40983754489571 45.31009587645531,80.80327935423702 47.96514381840825,83.45901679527014 55.9302876368165,86.1147542046383 61.24038352072239,82.57377098314464 62.1253995038569,73.72131268959492 65.66546341776848,64.86885404307395 64.78044743835926,60.44262458663434 46.195111859589815,41.852459914050996 45.31009587645531,40.9672139370814 18.75961647555232,55.13114912528545" stroke="#4dd2ff" stroke-linecap="round" stroke-linejoin="round" stroke-width="0.5"><title>2022-04-13 3.4km</title></polyline><polyline fill="none" points="109.60767352208495,66.86440826021135 110.52269004657865,53.13559470232576 73.00701250135899,43.98305187281221 113.26773962378502,83.33898345194757 122.41790487244725,55.88135747984052 88.56229343637824,36.6610173471272 77.58209513500333,43.06779757235199 115.09777267277241,84.25423759315163 122.41790487244725,57.711865979246795 77.58209513500333,42.15254326444119 116.9278057217598,82.42372930422425 123.33292140066624,54.05084896553308 78.49711165577173,40.32203464116901 114.18275614827871,81.50847515463829 124.24793792888522,56.79661173187196 91.30734300985932,37.57627167738974 77.58209513500333,43.06779757235199 113.26773962378502,82.42372930422425 125.16295445337892,55.88135747984052 89.47730996087193,36.6610173471272 76.66707860678434,42.15254326444119 114.18275614827871,83.33898345194757 125.16295445337892,52.22034043632448 89.47730996087193,33.91525434330106 77.58209513500333,43.06779757235199 116.0127891972661,81.50847515463829 123.33292140066624,54.05084896553308 78.49711165577173,39.40678032301366 114.18275614827871,81.50847515463829 126.07797097787261,55.88135747984052 90.39232648909092,35.74576301779598 77.58209513500333,41.237288953736424 117.84282224625349,81.50847515463829 126.9929875023663,56.79661173187196 79.41212818399072,39.40678032301366 79.41212818399072,54.96610322315246 111.43770657107234,80.59322100132704 122.41790487244725,54.05084896553308 91.30734300985932,35.74576301779598 77.58209513500333,41.237288953736424 115.09777267277241,84.25423759315163 122.41790487244725,56.79661173187196 92.22235953807831,35.74576301779598 78.49711165577173,40.32203464116901 115.09777267277241,80.59322100132704 125.16295445337892,56.79661173187196 92.22235953807831,33.0 76.66707860678434,40.32203464116901 117.84282224625349,87.0 112.35272309556603,43.06779757235199" stroke="#4dd2ff" stroke-linecap="round" stroke-linejoin="round" stroke-width="0.5"><title>2022-01-19 2.1km</title></polyline><polyline fill="none" points="152.52501893416047,71.2153860591352 170.79719487205148,87.0 179.9332828372717,59.584617130458355 143.38893096894026,34.661538670770824 136.74450335279107,52.93846316635609 164.9833207130432,84.50769261457026 174.11940867826343,83.67692348081619 180.76383629068732,60.415386360138655 144.2194844186306,33.830769336782396 137.575056809932,51.276924640871584 164.15276725962758,82.84615434054285 175.7805155813694,81.18461605533957 179.9332828372717,57.09230941813439 152.52501893416047,34.661538670770824 140.0667171627283,37.984615970402956 139.23616370931268,55.430770927108824 166.6444276124239,83.67692348081619 182.4249431937933,60.415386360138655 153.3555723875761,35.49230799917132 140.0667171627283,37.984615970402956 137.575056809932,52.93846316635609 164.9833207130432,82.01538520026952 179.10272938758135,58.75384789612144 143.38893096894026,33.0 136.74450335279107,51.276924640871584 164.9833207130432,82.01538520026952 174.11940867826343,81.18461605533957 179.10272938758135,57.92307865712792 153.3555723875761,34.661538670770824 137.575056809932,38.81538528762758 137.575056809932,52.93846316635609 163.32221380621195,82.01538520026952 175.7805155813694,82.01538520026952 184.08605009689927,60.415386360138655 155.01667929068208,36.32307732850313 139.23616370931268,37.984615970402956 137.575056809932,54.60000167507678 165.81387416273355,81.18461605533957 177.44162248447537,60.415386360138655 150.8639120310545,37.153846649453044 135.91394990682602,41.307693215087056 168.30553451552987,83.67692348081619 179.9332828372717,56.26154017355293 152.52501893416047,34.661538670770824 138.40561025962234,38.81538528762758 140.89727061241865,59.584617130458355 166.6444276124239,84.50769261457026 180.76383629068732,57.92307865712792 149.2028051316738,34.661538670770824 136.74450335279107,38.81538528762758 135.91394990682602,54.60000167507678 164.9833207130432,83.67692348081619 179.10272938758135,57.09230941813439 150.8639120310545,37.153846649453044 137.575056809932,41.307693215087056 167.47498106211424,86.16923087555915 180.76383629068732,58.75384789612144 150.8639120310545,36.32307732850313 137.575056809932,40.47692391090095 136.74450335279107,56.26154017355293 164.9833207130432,84.50769261457026 178.272175937891,59.584617130458355 150.03335858508945,36.32307732850313 137.575056809932,38.81538528762758 139.23616370931268,56.26154017355293 165.81387416273355,85.33846174646169 182.4249431937933,58.75384789612144 140.0667171627283,37.984615970402956 138.40561025962234,55.430770927108824 164.9833207130432,83.67692348081619 175.7805155813694,82.84615434054285 182.4249431937933,59.584617130458355 139.23616370931268,36.32307732850313 139.23616370931268,56.26154017355293 161.66110690683126,83.67692348081619 173.28885522857308,84.50769261457026 163.32221380621195,63.738463249988854 171.62774832174182,72.87692442536354 176.61106903105974,60.415386360138655" stroke="#4dd2ff" stroke-linecap="round" stroke-linejoin="round" stroke-width="0.5"><title>2022-01-10 2.8km</title></polyline><polyline fill="none" points="62.81097131036222,167.11267833877355 43.04146284237504,154.18310231529176 42.28109713084996,162.16901712398976 54.82713135331869,175.85915524559096 60.910057036206126,165.2112702098675 42.28109713084996,155.70422899676487 43.04146284237504,163.69014367926866 55.58749706298113,175.4788736575283 60.14969132654369,164.45070694759488 48.74420566856861,156.08451066352427 43.04146284237504,157.6056373147294 55.20731420814991,175.85915524559096 60.52987417951226,164.45070694759488 47.603657104074955,155.70422899676487 41.900914277881384,157.6056373147294 55.20731420814991,175.85915524559096 60.52987417951226,164.07042531389743 47.983839958906174,155.32394732814282 43.04146284237504,156.84507399238646 54.82713135331869,175.4788736575283 61.29023989289999,165.2112702098675 47.603657104074955,155.70422899676487 42.28109713084996,157.6056373147294 54.82713135331869,177.0 61.29023989289999,164.45070694759488 42.66127998754382,156.08451066352427 42.66127998754382,164.45070694759488 55.20731420814991,176.2394368313253 62.430788457393646,164.83098857896402 42.28109713084996,156.84507399238646 42.28109713084996,163.69014367926866 54.44694849848747,175.4788736575283 60.52987417951226,164.45070694759488 43.80182855203748,155.32394732814282 42.28109713084996,162.5492987660691 51.025302801281214,170.15493126725778 58.62895990535617,163.30986204231158 43.80182855203748,155.32394732814282 41.900914277881384,162.92958040488884 54.06676564179361,175.4788736575283 58.62895990535617,175.09859206760302 61.67042274773121,164.83098857896402 48.74420566856861,155.32394732814282 42.28109713084996,157.6056373147294 55.58749706298113,177.0 60.14969132654369,164.45070694759488 47.223474249243736,155.70422899676487 41.900914277881384,157.9859189740382 55.96767991781235,177.0 60.910057036206126,165.2112702098675 43.42164569720626,155.70422899676487 41.900914277881384,162.16901712398976 49.124388525262475,172.43662089901045 57.86859419569373,176.2394368313253 61.67042274773121,165.2112702098675 45.702742828056216,154.94366565952078 41.900914277881384,165.2112702098675 56.72804562933743,177.0 59.00914276018739,163.30986204231158 45.702742828056216,153.04225728753954 39.619817147031426,137.830988955684 17.18902868963778,123.0" stroke="#4dd2ff" stroke-linecap="round" stroke-linejoin="round" stroke-width="0.5"><title>2022-01-04 2.5km</title></polyline><polyline fill="none" points="93.57309827208519,165.00000117067248 109.85458266362548,177.0 119.28070520982146,153.85714451409876 81.5762150362134,128.1428577248007 76.43469364568591,145.28571592550725 102.99922081455588,175.28571449313313 119.28070520982146,152.14285882376134 82.4331352636218,126.42857183050364 76.43469364568591,141.8571443958208 101.28538035228848,174.42857173550874 120.13762544095516,148.71428740303963 94.43001850321889,124.71428592316806 83.2900554947555,127.2857147809118 80.71929480135441,144.42857304867357 102.99922081455588,175.28571449313313 121.85146589949727,152.14285882376134 81.5762150362134,127.2857147809118 79.00545433908701,143.57143016625196 101.28538035228848,173.57142897509038 111.56842312589288,173.57142897509038 120.99454566836357,149.57143026217818 84.1469757296145,125.57142887730151 79.86237457022071,141.8571443958208 101.28538035228848,174.42857173550874 123.56530636921525,151.2857159730047 95.2869387306273,124.71428592316806 81.5762150362134,127.2857147809118 78.14853410795331,142.71428728289902 101.28538035228848,173.57142897509038 121.85146589949727,152.14285882376134 84.1469757296145,123.0 77.29161387681961,141.0000015022233 102.1423005796969,172.71428620815277 120.99454566836357,149.57143026217818 78.14853410795331,127.2857147809118 77.29161387681961,143.57143016625196 101.28538035228848,174.42857173550874 111.56842312589288,173.57142897509038 120.99454566836357,148.71428740303963 92.7161780372262,126.42857183050364 79.86237457022071,129.0000006686896 102.1423005796969,173.57142897509038 120.99454566836357,151.2857159730047 91.8592578060925,123.85714296158403 79.86237457022071,126.42857183050364 77.29161387681961,143.57143016625196 102.99922081455588,174.42857173550874 121.85146589949727,149.57143026217818 80.71929480135441,126.42857183050364 77.29161387681961,142.71428728289902 100.42846012115479,172.71428620815277 112.42534335702658,173.57142897509038 124.42222659289837,151.2857159730047 82.4331352636218,123.0 75.57777341082692,143.57143016625196 101.28538035228848,171.85714344028383 113.28226359188557,171.85714344028383 117.56686474755406,150.4285731203854" stroke="#4dd2ff" stroke-linecap="round" stroke-linejoin="round" stroke-width="0.5"><title>2021-12-13 2.2km</title></polyline><polyline fill="none" points="172.3228920842521,131.04969821253326 169.80801614839584,128.3664658170892 166.28718983847648,131.72050625807606 165.28123946487904,131.80435726209544 166.11953144334257,130.88199619785883 158.9940496259369,131.6366552534746 159.66468320880085,130.0434861043468 154.97024812921882,134.23603623791132 144.9107443871908,126.43789232138079 138.95887133991346,126.35404129594099 143.56947722146288,140.3571579353884 149.3536918736063,146.8975325790234 152.03622620459646,153.01865060033742 151.78473861096427,162.40995151060633 153.12600577669218,165.7639865379315 149.18603347754106,168.78261760692112 151.8685678089969,173.39441424130928 151.44942181929946,175.57453593646642 150.0243254560046,172.2205024661962 160.50297518726438,175.07143094972707 154.04812695272267,172.63975667906925 148.7668874883093,174.31677344755735 148.01242470787838,176.41304422088433 146.75498673971742,176.41304422088433 149.10220427950844,177.0 146.0005239592865,174.31677344755735 148.93454588390887,171.80124824505765 161.00595037452877,174.65217678516638 162.68253433145583,176.24534256651532 163.77231390355155,174.40062428230885 165.86804384971038,173.89751926786266 144.9945735852234,135.74535408208612 141.80906406696886,127.19255153648555 145.2460611788556,127.52795562334359 147.67710791621357,124.67702071473468 148.85071668587625,125.93478616315406 149.01837508194149,123.0 146.41966994851828,124.92857381049544 148.09625390544534,123.5869572655065 157.7366116582416,132.1397612754954 159.2455372195691,131.13354921911377 163.1855095187202,132.47516528354026 169.5565285552293,128.61801886861213 173.58033005194739,130.96584720525425 178.27476513152942,123.83851037418935 181.0411286605522,124.00621244497597" stroke="#4dd2ff" stroke-linecap="round" stroke-linejoin="round" stroke-width="0.5"><title>2021-11-30 3.6km</title></polyline><polyline fill="none" points="66.83359013858717,257.463774657459 65.72419106308371,256.99215692211874 59.34514637896791,251.85984420400928 51.745762711856514,248.58625897596357 45.69953775033355,247.03269256459316 45.144838212640025,247.58753775141668 43.23112480726559,247.08817708530114 39.62557781196665,243.70362051116535 23.594761170912534,232.6621867424983 23.01232665637508,231.16410140538937 23.123266563750803,230.3595739605953 21.791987673263066,230.3595739605953 21.570107858162373,230.83119350855122 19.961479198769666,229.97118136743666 14.497688751900569,224.7833639201417 13.582434514537454,222.89688388066133 13.499229583889246,223.86786631838186 13.0,224.0065780840523 13.665639445185661,224.64465217015822 15.468412942951545,222.56397558478056 14.553158705704845,221.84267422187258 14.580893682548776,222.25880963282543 13.9152542372467,221.03814568946837 14.331278890487738,222.17558255261974 17.825885978410952,226.30919298619847 21.070878274273127,229.1389114514459 21.459167950670235,230.66473955407855 23.067796610062942,230.41505861491896 23.067796610062942,231.05313210823806 23.89984591677785,231.82991715086973 33.52388289675582,238.7932363122527 33.71802773489617,239.70873193553416 39.65331278881058,243.9533009705774 42.676425269572064,246.97720804344863 45.39445300458465,248.00367161244503 50.99691833590623,249.14110403854284 58.707241910509765,252.16500885007554 67.0,258.96185431053163" stroke="#4dd2ff" stroke-linecap="round" stroke-linejoin="round" stroke-width="0.5"><title>2021-11-29 5.7km</title></polyline><polyline fill="none" points="127.0,259.66179583373014 124.6424778761575,258.25966137455544 125.34336283197626,256.7937932682689 124.89734513277654,253.83018953731516 125.27964601770509,253.38405554718338 115.69026548683178,245.73604041454382 112.91858407086693,244.11083625507308 105.62300884968136,241.11536105413688 98.48672566364985,239.36268887203187 98.45486725668889,238.62975311791524 96.86194690258708,238.31108537770342 95.30088495579548,237.32321530213812 92.1150442478247,233.78600209066644 73.0,220.33820416621165 73.19115044246428,221.8678126609302 91.95575221232139,234.9013397594099 95.5876106194919,238.47041924943915 98.70973451330792,239.61762303160504 104.89026548678521,240.98789399926318 114.25663716823328,244.7481712590088 123.46371681417804,252.2049870249466" stroke="#4dd2ff" stroke-linecap="round" stroke-linejoin="round" stroke-width="0.5"><title>2021-11-08 4.6km</title></polyline><polyline fill="none" points="140.41931302659214,230.33844267757377 146.01879455603193,235.55430644896114 149.20349967607763,237.0595551521401 149.30848995456472,238.00471118360292 157.39274141285568,244.79582932591438 158.65262475702912,243.81566826661583 159.5975372651592,244.13072004757123 160.6474400520092,242.94052437192295 161.41736876231153,243.08054740086664 163.9371354506584,244.86584082606714 165.93195074552204,245.4259328066837 172.26636422565207,250.04669029533397 179.30071289709304,251.83198231569258 184.86519766703714,250.8868277615402 185.2151652625762,251.86698803806212 184.93519118614495,253.37223396578338 185.7401166560594,252.9521653605625 185.35515230090823,252.6021081742365 187.0,252.6021081742365 185.56513285823166,251.9369994821609 185.8451069346629,252.84714820614317 185.42514581989963,252.77713676908752 186.75502268329728,253.02217679622117 184.86519766703714,253.26721681642812 184.02527543751057,257.5029075248167 183.08036292961333,259.1131695775548 181.99546338315122,265.8342602098128 178.25081011024304,265.5892205364653 176.15100453665946,266.6743961813627 174.92611795221455,266.42935653124005 170.6915100455517,262.2636814446305 170.7965003241552,261.4935564248008 170.1315618926892,260.6534199634334 170.30654569040053,258.8681297188159 173.24627349327784,256.1026794152567 165.96694750490133,255.75262235337868 165.7219701880822,254.0023368364782 163.5171743358951,250.8868277615402 159.45755022694357,246.54611666180426 149.23849643557332,237.86468807421625 149.20349967607763,237.16457249392988 147.87362281267997,236.81451468309388 145.87880751793273,235.37927751330426 137.79455605952535,227.81802417960716 137.68956578103825,226.87286705704173 134.7498379779281,222.5671499935561 134.81983149703592,221.4819689381984 134.1548930653371,220.8168579026824 135.55476344772615,218.96154790610308 134.95981853525154,218.47146595496451 134.88982501626015,216.5811496017268 133.0,215.35594434093218 133.27997407643124,214.06072716531344 133.83992222941015,213.81568605656503 133.20998055743985,213.3256038185791" stroke="#4dd2ff" stroke-linecap="round" stroke-linejoin="round" stroke-width="0.5"><title>2021-07-04 5.1km</title></polyline></svg>