<?xml version="1.0" encoding="utf-8" ?>
<svg baseProfile="full" height="300mm" version="1.1" viewBox="0,0,200,300" width="200mm" xmlns="http://www.w3.org/2000/svg" xmlns:ev="http://www.w3.org/2001/xml-events" xmlns:xlink="http://www.w3.org/1999/xlink"><defs /><rect fill="#222222" height="300" width="200" x="0" y="0" /><text fill="#FFFFFF" style="font-size:12px; font-family:Arial; font-weight:bold;" x="10" y="20">Over 2km Runs</text><text fill="#FFFFFF" style="font-size:4px; font-family:Arial" x="10" y="280">ATHLETE</text><text fill="#FFFFFF" style="font-size:9px; font-family:Arial" x="10" y="290">WonSikin</text><text fill="#FFFFFF" style="font-size:4px; font-family:Arial" x="120" y="280">STATISTICS</text><text fill="#FFFFFF" style="font-size:3px; font-family:Arial" x="120" y="285">Number: 11</text><text fill="#FFFFFF" style="font-size:3px; font-family:Arial" x="120" y="290">Weekly: 1.2</text><text fill="#FFFFFF" style="font-size:3px; font-family:Arial" x="141" y="285">Total: 38.4 km</text><text fill="#FFFFFF" style="font-size:3px; font-family:Arial" x="141" y="290">Avg: 3.5 km</text><text fill="#FFFFFF" style="font-size:3px; font-family:Arial" x="167" y="285">Min: 2.1 km</text><text fill="#FFFFFF" style="font-size:3px; font-family:Arial" x="167" y="290">Max: 5.7 km</text><polyline fill="none" points="32.568984095938504,37.19294444331899 32.95006183441728,36.93882661405951 33.20411365991458,36.30353203159757 29.9014399247244,33.7623535762541 29.26631036074832,33.50823571975343 28.5041548833251,33.50823571975343 27.74199940590188,33.7623535762541 27.23389575490728,34.27058928320184 27.10686984146014,34.77882498269901 27.10686984146014,35.66823743679561 27.6149734929204,36.55764986621216 30.02846583817154,38.20941574079916 31.29872496658936,40.11529933591373 32.06088044401258,40.75059384247288 32.95006183441728,40.75059384247288 33.20411365991458,40.24235823797062 34.347346876282245,37.32000335725024 34.347346876282245,36.68470878270455 33.712217311840504,35.92235527606681 30.40954357665032,33.50823571975343 29.26631036074832,33.0 28.37712897034362,33.12705893069506 27.6149734929204,33.88941250392236 27.360921666957438,35.03294282918796 27.74199940590188,36.1764731137082 30.02846583817154,37.8282390080858 31.425750879570842,39.607063721399754 32.06088044401258,39.98824043315835 32.95006183441728,39.98824043315835 33.712217311840504,39.098828099202365 34.093295050319284,37.7011800960172 33.966269137337804,36.43059094925411 31.806828618515283,34.65176605852321 29.9014399247244,33.50823571975343 28.88523262180388,33.381176790222526 28.2501030578278,33.50823571975343 27.99605123186484,33.88941250392236 27.86902531888336,34.27058928320184 27.86902531888336,35.160001751966774 28.37712897034362,36.30353203159757 30.40954357665032,37.955297919223085 31.29872496658936,39.86118152993731 32.06088044401258,40.36941714002751 32.95006183441728,40.24235823797062 33.45816548541188,39.48000481678173 34.093295050319284,37.57412118348293 34.093295050319284,36.93882661405951 33.839243224821985,36.43059094925411 31.933854531031102,34.77882498269901 29.6473880992271,33.50823571975343 28.37712897034362,33.63529464812018 27.6149734929204,34.65176605852321 27.6149734929204,35.160001751966774 28.12307714438066,36.1764731137082 30.02846583817154,37.7011800960172 31.29872496658936,39.73412262601778 32.31493226997554,40.36941714002751 32.69601000845432,40.24235823797062 32.95006183441728,39.98824043315835 33.966269137337804,37.955297919223085 34.093295050319284,36.93882661405951 33.712217311840504,36.30353203159757 32.568984095938504,35.287060673581436 29.9014399247244,33.63529464812018 29.01225853525102,33.50823571975343 28.5041548833251,33.7623535762541 27.86902531888336,34.905883906176314 27.99605123186484,36.30353203159757 28.37712897034362,36.81176769849844 30.28251766366884,38.33647465053946 31.171699054073542,39.86118152993731 33.45816548541188,41.64000613009557 38.41217608889565,46.72236158535816 39.42838339181617,48.120009193662554 39.80946113029495,49.390597875462845 38.66622791439295,51.04236308671534 38.41217608889565,52.05883394321427 38.79325382737443,53.075304767582566 40.69864252069965,54.98118747631088 41.58782391063869,56.505893561057746 41.71484982408583,57.90354074165225 41.20674617215991,61.461187835084274 41.46079799765721,64.00236408831552 42.34997938852757,65.90824614535086 43.49321260442957,67.56001050304621 44.00131625542417,69.08471598825417 45.52562721027061,70.99059774284251 44.76347173284739,69.97412748774514 44.00131625542417,69.72000991925597 41.07972025917843,70.10118627152406 39.55540930479765,70.86353896255605 38.41217608889565,72.26118551613763 37.77704652398825,74.04000831372105 37.77704652398825,75.31059596594423 38.28515017544851,76.96235983842053 39.80946113029495,79.24941736739129 42.98510895250365,82.29882715153508 46.033730862196535,85.98353025317192 46.795886339154094,86.61882384866476 47.685067729558796,86.8729412832763 49.20937868440524,86.61882384866476 50.35261190030724,85.85647153295577 51.62287102872506,84.58588429936208 52.8931301580742,80.26588732749224 52.51205241959542,78.99529987201095 43.49321260442957,70.48236261913553 42.34997938852757,70.10118627152406 41.33377208467573,69.97412748774514 40.57161660771817,70.22824505460449 39.42838339181617,70.86353896255605 38.41217608889565,72.0070679653436 37.522994698025286,73.78589077736251 37.39596878550947,74.67530214600265 37.39596878550947,76.45412480970845 38.41217608889565,78.10588862304576 40.82566843321547,80.3929460705258 42.34997938852757,83.18823828385212 43.49321260442957,84.58588429936208 45.906704949215055,86.36470641219057 46.795886339154094,86.74588256655261 48.19317138148472,86.8729412832763 49.46343050990254,86.36470641219057 51.1147673772648,85.22117792232893 52.25800059363246,83.56941447593272 52.63907833211124,82.04470968060195 52.51205241959542,80.3929460705258 51.87692285468802,78.86824112362228 50.47963781282306,76.96235983842053 48.19317138148472,74.80236091138795 44.25536808138713,71.11765652219765 42.73105712700635,70.35530383721925 41.46079799765721,70.10118627152406 40.31756478175521,70.48236261913553 38.41217608889565,72.0070679653436 37.77704652398825,73.15059692715295 37.522994698025286,75.43765472853556 38.03109834995121,77.21647734963335 38.66622791439295,78.36000612541102 41.33377208467573,81.53647473244928 43.49321260442957,83.31529701501131 45.52562721027061,85.85647153295577 46.795886339154094,86.8729412832763 47.558041816577315,87.0 48.5742491199635,86.8729412832763 50.09856007434428,86.11058897338808 52.13097468065098,83.82353193475865 52.63907833211124,82.42588588641956 52.51205241959542,80.26588732749224 51.87692285468802,78.61412362591363 50.35261190030724,77.08941859425977 47.176964078098536,73.27765569835901 45.398601297754794,71.62589163566008 43.874290343374014,69.59295113384724 43.874290343374014,68.83059841254726 44.38239399436861,67.81412808899768 44.38239399436861,66.67059893650003 43.36618669144809,62.60471717384644 43.36618669144809,56.378834723262116 42.98510895250365,54.85412863222882 40.82566843321547,51.42353966180235 40.69864252069965,50.91530422726646 41.46079799765721,48.882362409029156 41.07972025917843,48.247068064287305 40.57161660771817,47.738832579459995 39.04730565287173,46.72236158535816 37.77704652398825,45.45177279715426 36.506787395104766,43.54588952055201 36.506787395104766,43.03765396098606 36.760839220602065,42.40235950006172 38.03109834995121,40.62353494181298 37.90407243696973,39.607063721399754 35.109502353705466,36.30353203159757 32.95006183441728,34.905883906176314 30.28251766366884,33.63529464812018 29.01225853525102,33.381176790222526 28.2501030578278,33.50823571975343 27.360921666957438,34.27058928320184 27.23389575490728,35.287060673581436 27.6149734929204,36.049414195353165 29.3933362737298,37.32000335725024 30.91764722811058,39.48000481678173 31.679802705533803,39.98824043315835 32.568984095938504,40.11529933591373 32.95006183441728,39.86118152993731 34.2203209628351,38.20941574079916 34.474372789263725,37.19294444331899 33.966269137337804,36.30353203159757 32.95006183441728,35.4141195951961 31.425750879570842,34.77882498269901 29.77441401220858,33.63529464812018 30.790621315594763,38.97176919225603 31.425750879570842,39.73412262601778 32.69601000845432,40.24235823797062 33.331139573361725,39.73412262601778 33.45816548541188,38.97176919225603 32.8230359214358,38.08235683012754 31.679802705533803,37.19294444331899 32.44195818249136,36.81176769849844" stroke="#4dd2ff" stroke-linecap="round" stroke-linejoin="round" stroke-width="0.5"><title>2022-04-15 3.3km</title></polyline><polyline fill="none" points="119.47035156190395,67.52459167316556 119.47035156190395,66.63934580050409 121.24038352072239,62.21311637945473 118.58533557876945,56.0163950426504 99.11498402059078,40.08196795824915 88.4947922565043,34.770492009818554 82.29968039691448,35.65573801007122 79.64463245496154,37.426230000332 76.98958452045918,40.9672139370814 76.98958452045918,48.93442759197205 81.41466441750526,58.67213278077543 97.34495205804706,67.52459167316556 100.88501597568393,73.72131268959492 101.77003195881844,77.2622960517183 107.96514381840825,86.1147542046383 114.16025568172336,87.0 116.81530361995101,84.34426260087639 119.47035156190395,73.72131268959492 124.78044743835926,62.21311637945473 124.78044743835926,57.7868868727237 122.1253995038569,54.245903202332556 100.88501597568393,42.73770588450134 81.41466441750526,38.311475987546146 77.87460049241781,40.08196795824915 74.33453657850623,45.39344378001988 74.33453657850623,50.70491947699338 76.98958452045918,56.90164096001536 82.29968039691448,60.44262458663434 96.45993607863784,62.21311637945473 102.65504793822765,64.86885404307395 106.19511185958982,69.2950834101066 111.50520773977041,80.80327935423702 114.16025568172336,82.57377098314464 116.81530361995101,81.68852517101914 120.35536753758788,72.83606684114784 122.1253995038569,62.21311637945473 119.47035156190395,56.0163950426504 100.88501597568393,40.08196795824915 92.91987215355039,36.54098400659859 85.83974431455135,37.426230000332 80.52964843437076,45.39344378001988 80.52964843437076,54.245903202332556 84.95472833886743,59.55737868603319 96.45993607863784,63.98360815830529 100.88501597568393,74.60655853617936 105.3100958764553,80.80327935423702 111.50520773977041,83.45901679527014 115.9302876368165,82.57377098314464 118.58533557876945,79.03278770949692 123.01041547954082,67.52459167316556 123.89543145895004,59.55737868603319 122.1253995038569,55.13114912528545 114.16025568172336,46.27868973836303 102.65504793822765,38.311475987546146 92.03485618159175,35.65573801007122 84.95472833886743,39.19672197569162 81.41466441750526,47.16393569111824 81.41466441750526,57.7868868727237 84.95472833886743,63.98360815830529 100.0,71.95082098804414 107.96514381840825,79.91803353279829 114.16025568172336,81.68852517101914 119.47035156190395,79.03278770949692 123.89543145895004,72.83606684114784 125.66546341776848,66.63934580050409 125.66546341776848,61.32787048537284 122.1253995038569,56.0163950426504 106.19511185958982,41.852459914050996 95.57492009550333,37.426230000332 86.72476029768586,37.426230000332 84.06971235945821,39.19672197569162 81.41466441750526,44.508197819814086 81.41466441750526,51.590165412053466 87.60977627709508,63.09836227167398 101.77003195881844,71.06557513214648 111.50520773977041,80.80327935423702 116.81530361995101,81.68852517101914 119.47035156190395,76.3770502153784 122.1253995038569,64.86885404307395 119.47035156190395,58.67213278077543 106.19511185958982,42.73770588450134 95.57492009550333,37.426230000332 87.60977627709508,37.426230000332 82.29968039691448,40.08196795824915 79.64463245496154,45.39344378001988 79.64463245496154,50.70491947699338 84.06971235945821,61.32787048537284 99.11498402059078,69.2950834101066 105.3100958764553,80.80327935423702 109.73517577722669,83.45901679527014 115.9302876368165,83.45901679527014 120.35536753758788,76.3770502153784 123.01041547954082,65.75409992411733 123.01041547954082,59.55737868603319 119.47035156190395,53.3606572765857 105.3100958764553,40.9672139370814 93.8048881366849,36.54098400659859 85.83974431455135,37.426230000332 81.41466441750526,41.852459914050996 79.64463245496154,44.508197819814086 79.64463245496154,53.3606572765857 83.1846963763237,59.55737868603319 94.68990411609411,67.52459167316556 102.65504793822765,80.80327935423702 109.73517577722669,82.57377098314464 117.70031959936023,79.91803353279829 119.47035156190395,78.14754188153893 123.01041547954082,71.06557513214648 123.01041547954082,61.32787048537284 121.24038352072239,57.7868868727237 114.16025568172336,50.70491947699338 97.34495205804706,36.54098400659859 89.3798082396388,34.770492009818554 83.1846963763237,36.54098400659859 79.64463245496154,41.852459914050996 79.64463245496154,50.70491947699338 85.83974431455135,59.55737868603319 95.57492009550333,64.86885404307395 102.65504793822765,79.03278770949692 105.3100958764553,80.80327935423702 113.27523969858885,81.68852517101914 119.47035156190395,78.14754188153893 124.78044743835926,67.52459167316556 124.78044743835926,59.55737868603319 121.24038352072239,53.3606572765857 105.3100958764553,41.852459914050996 92.03485618159175,36.54098400659859 87.60977627709508,37.426230000332 83.1846963763237,38.311475987546146 78.75961647555232,47.16393569111824 78.75961647555232,51.590165412053466 81.41466441750526,57.7868868727237 107.96514381840825,79.91803353279829 114.16025568172336,80.80327935423702 122.1253995038569,75.49180437624454 124.78044743835926,69.2950834101066 124.78044743835926,61.32787048537284 123.01041547954082,58.67213278077543 113.27523969858885,47.16393569111824 99.11498402059078,37.426230000332 90.26482421532273,35.65573801007122 83.1846963763237,40.08196795824915 81.41466441750526,42.73770588450134 79.64463245496154,54.245903202332556 83.1846963763237,62.21311637945473 88.4947922565043,65.75409992411733 99.11498402059078,70.18032927252352 103.54006391763687,77.2622960517183 109.73517577722669,80.80327935423702 116.81530361995101,80.80327935423702 120.35536753758788,77.2622960517183 123.01041547954082,72.83606684114784 124.78044743835926,64.86885404307395 122.1253995038569,58.67213278077543 100.88501597568393,38.311475987546146 93.8048881366849,33.88524600490928 88.4947922565043,34.770492009818554 82.29968039691448,39.19672197569162 79.64463245496154,45.39344378001988 79.64463245496154,50.70491947699338 82.29968039691448,56.90164096001536 84.95472833886743,60.44262458663434 96.45993607863784,67.52459167316556 107.08012784272432,81.68852517101914 116.81530361995101,82.57377098314464 119.47035156190395,80.80327935423702 122.1253995038569,75.49180437624454 123.89543145895004,69.2950834101066 123.89543145895004,62.21311637945473 122.1253995038569,58.67213278077543 115.9302876368165,49.81967353448272 106.19511185958982,42.73770588450134 87.60977627709508,40.9672139370814 85.83974431455135,41.852459914050996 81.41466441750526,51.590165412053466 81.41466441750526,57.7868868727237 83.1846963763237,63.09836227167398 85.83974431455135,65.75409992411733 100.0,71.95082098804414 109.73517577722669,79.03278770949692 114.16025568172336,79.91803353279829 121.24038352072239,76.3770502153784 123.89543145895004,62.21311637945473 122.1253995038569,56.90164096001536 107.96514381840825,43.62295185402036 96.45993607863784,35.65573801007122 90.26482421532273,33.88524600490928 82.29968039691448,37.426230000332 79.64463245496154,45.39344378001988 79.64463245496154,48.93442759197205 82.29968039691448,56.0163950426504 96.45993607863784,64.86885404307395 105.3100958764553,80.80327935423702 110.6201917566359,85.22950840368867 115.9302876368165,85.22950840368867 124.78044743835926,66.63934580050409 124.78044743835926,61.32787048537284 120.35536753758788,56.0163950426504 103.54006391763687,43.62295185402036 93.8048881366849,37.426230000332 88.4947922565043,35.65573801007122 83.1846963763237,37.426230000332 79.64463245496154,40.9672139370814 79.64463245496154,51.590165412053466 80.52964843437076,55.13114912528545 84.95472833886743,62.21311637945473 98.22996803745627,74.60655853617936 106.19511185958982,79.03278770949692 114.16025568172336,80.80327935423702 119.47035156190395,79.03278770949692 124.78044743835926,71.06557513214648 124.78044743835926,62.21311637945473 121.24038352072239,56.0163950426504 105.3100958764553,41.852459914050996 93.8048881366849,36.54098400659859 85.83974431455135,38.311475987546146 79.64463245496154,48.93442759197205 82.29968039691448,56.0163950426504 97.34495205804706,65.75409992411733 100.88501597568393,70.18032927252352 106.19511185958982,81.68852517101914 110.6201917566359,86.1147542046383 114.16025568172336,86.1147542046383 116.81530361995101,82.57377098314464 123.89543145895004,63.98360815830529 123.89543145895004,59.55737868603319 120.35536753758788,54.245903202332556 100.88501597568393,39.19672197569162 91.14984019845724,35.65573801007122 84.06971235945821,36.54098400659859 79.64463245496154,40.08196795824915 77.87460049241781,48.049181644804776 82.29968039691448,56.90164096001536 93.8048881366849,63.98360815830529 102.65504793822765,79.91803353279829 107.96514381840825,84.34426260087639 114.16025568172336,86.1147542046383 116.81530361995101,81.68852517101914 124.78044743835926,61.32787048537284 122.1253995038569,56.0163950426504 108.85015979781747,46.27868973836303 101.77003195881844,39.19672197569162 86.72476029768586,33.0 82.29968039691448,33.88524600490928 77.87460049241781,40.08196795824915 79.64463245496154,50.70491947699338 84.95472833886743,59.55737868603319 99.11498402059078,68.40983754489571 105.3100958764553,80.80327935423702 107.96514381840825,83.45901679527014 115.9302876368165,86.1147542046383 121.24038352072239,82.57377098314464 122.1253995038569,73.72131268959492 125.66546341776848,64.86885404307395 124.78044743835926,60.44262458663434 106.19511185958982,41.852459914050996 105.3100958764553,40.9672139370814 78.75961647555232,55.13114912528545" stroke="#4dd2ff" stroke-linecap="round" stroke-linejoin="round" stroke-width="0.5"><title>2022-04-13 3.4km</title></polyline><polyline fill="none" points="151.46919143060222,38.221702088136226 150.70523842424154,38.73113639256917 149.6866344162263,38.73113639256917 149.05000691115856,38.34906066511758 147.77675190009177,36.82075770921074 147.39477539714426,36.0566062037833 147.26744989678264,35.29245468019508 148.03140290267766,33.76415157853626 148.6680304077454,33.509434387786314 149.30465791281313,33.636792983161286 151.72384243272245,35.03773750178516 153.63372494839132,36.56604054267518 154.01570145133883,37.457550616236404 153.88837595051154,38.094343510922045 152.6151209399104,40.13208068837412 151.97849343484268,40.259439257439226 150.8325639255345,39.49528783420101 149.94128541788086,37.839626354398206 148.41337940562516,36.82075770921074 147.9040774013847,36.31132337450981 147.5221008984372,35.54717185674235 147.5221008984372,34.655661730095744 148.15872840350494,33.76415157853626 149.05000691115856,33.636792983161286 150.70523842424154,35.03773750178516 153.3790739462711,36.82075770921074 153.76105044968426,37.839626354398206 153.3790739462711,39.11321211559698 152.74244644120336,40.13208068837412 152.36046993779019,40.259439257439226 151.72384243272245,40.259439257439226 150.95988942636177,39.622646405827254 148.15872840350494,36.82075770921074 147.64942639926448,35.67453044443391 147.64942639926448,34.655661730095744 148.28605390479788,33.76415157853626 148.92268140986562,33.636792983161286 149.5593089144677,33.891510172979906 150.95988942636177,34.78302032104693 153.3790739462711,36.948116291780025 153.76105044968426,37.457550616236404 153.88837595051154,38.094343510922045 152.74244644120336,40.51415639440529 152.74244644120336,41.1509492280893 152.99709744332358,41.78774204896763 158.72674498986453,47.64623540849425 159.87267449963838,48.53774517332204 160.2546510025859,49.04717931360938 160.38197650341317,49.93868904002011 159.36337249539793,51.976425463333726 159.36337249539793,52.74057658901438 161.40058051189408,56.05189792183228 161.78255701530725,56.816048950189725 161.6552315140143,61.273596251849085 162.29185901908204,65.47642599698156 163.56511403014883,67.51416143286042 163.69243953051046,69.16982137900777 163.94709053309634,70.0613305454608 164.45639253687114,70.82548123947345 165.47499654535204,71.58963191579096 164.45639253687114,70.44340589479543 163.18313752673566,70.0613305454608 160.89127850765362,70.69812279194593 159.6180234979838,71.46227347105742 158.59941948857158,72.60849945596419 157.70814098184928,74.39151757233776 157.58081548055634,76.04717716365121 157.96279198350385,77.57547824899666 159.36337249539793,79.61321291630156 163.31046302756295,84.19811544427648 164.3290670355782,85.21698258398101 165.85697304829955,86.36320807691664 167.25755355972797,87.0 168.40348306903616,87.0 169.93138908175752,86.74528323253617 171.204644091893,85.85377452964894 172.47789910249412,83.43396506854333 172.85987560544163,81.39623064384796 172.60522460378706,79.995288151782 171.84127159742638,78.59434559894726 165.47499654535204,71.84434880362824 163.94709053309634,70.95283968700096 162.67383552202955,70.69812279194593 161.01860400894657,70.82548123947345 159.74534899834543,71.33491502585821 158.72674498986453,72.09906568960287 157.70814098184928,73.62736696307547 157.45348997972906,75.2830265937373 157.83546648267657,76.81132771540433 158.98139599245042,79.23113767593168 160.38197650341317,81.01415542466566 164.71104353899136,85.34434097376652 166.23894955124706,86.6179248476401 167.63953006314114,87.0 169.16743607539684,86.74528323253617 170.82266758941114,85.72641614126042 171.96859709825367,84.32547383848578 172.60522460378706,82.92453147447668 172.85987560544163,81.52358904946595 172.73255010461435,80.63208020105958 171.96859709825367,78.3396287644282 171.204644091893,77.32076140656136 169.42208707751706,76.1745355904568 168.27615756867453,74.77359287044965 166.11162405088544,72.48114101495594 165.22034554323182,71.08019813382998 164.71104353899136,69.55189673881978 164.3290670355782,69.55189673881978 164.71104353899136,64.8396336468868 163.69243953051046,61.14623776613735 163.05581202544272,55.415105384541675 162.54651002120227,54.523595810635015 160.89127850765362,52.103783985832706 160.50930200470611,51.466991369845346 160.63662750599906,50.95755726774223 161.01860400894657,50.19340610015206 160.89127850765362,49.30189638095908 159.23604699410498,46.62736707506701 156.5622114725411,44.46227175928652 156.05290946830064,43.95283754612319 156.05290946830064,43.18868621089496 156.5622114725411,41.53302492224611 156.4348859707825,40.641514962073416 155.41628196276724,39.622646405827254 154.397677954752,37.96698493277654 150.95988942636177,34.018868767190725 150.1959364200011,33.509434387786314 149.6866344162263,33.38207579148002 148.79535590903834,33.509434387786314 147.9040774013847,34.018868767190725 147.14012439502403,35.03773750178516 147.14012439502403,35.67453044443391 147.39477539714426,36.43868195870891 149.81395991705358,38.73113639256917 151.46919143060222,39.75000497722067 153.25174844497815,39.36792926187627 154.01570145133883,38.98585354187526 154.27035245345905,38.476419241633266 154.397677954752,37.71226777555421 154.27035245345905,37.07547487341799 154.01570145133883,36.56604054267518 152.10581893566996,35.165096091106534 149.30465791281313,33.891510172979906 148.03140290267766,33.76415157853626 147.26744989678264,34.14622736093588 147.14012439502403,34.655661730095744 147.26744989678264,35.29245468019508 148.92268140986562,37.330192035995424 149.30465791281313,38.858494967687875 150.57791292341426,40.13208068837412 151.46919143060222,40.259439257439226 153.3790739462711,39.11321211559698 154.01570145133883,38.34906066511758 153.88837595051154,36.82075770921074 152.86977194203064,35.41981326905079 150.8325639255345,34.273585953749716 149.43198341410607,33.891510172979906 148.28605390479788,34.14622736093588 147.77675190009177,34.91037891153246 148.03140290267766,35.80188903119415 149.17733241152018,37.07547487341799 149.6866344162263,38.98585354187526 150.0686109191738,39.622646405827254 151.21454042894766,40.51415639440529 152.48779543861747,40.641514962073416 153.12442294415087,40.13208068837412 153.76105044968426,37.58490919624455 152.74244644120336,35.80188903119415 151.46919143060222,34.14622736093588 150.8325639255345,33.76415157853626 149.81395991705358,33.76415157853626 148.54070490645245,34.018868767190725 147.64942639926448,34.655661730095744 147.39477539714426,35.41981326905079 147.39477539714426,36.31132337450981 148.28605390479788,38.094343510922045 149.30465791281313,38.858494967687875 150.8325639255345,39.36792926187627 152.48779543861747,40.386797826271504 152.99709744332358,40.259439257439226 153.3790739462711,39.87736354791559 153.63372494839132,38.60377781721763 153.50639944709837,36.56604054267518 152.74244644120336,35.29245468019508 150.70523842424154,33.509434387786314 149.81395991705358,33.12735859770328 149.17733241152018,33.12735859770328 148.41337940562516,33.509434387786314 147.9040774013847,34.018868767190725 147.39477539714426,35.03773750178516 147.39477539714426,35.92924761795439 148.03140290267766,36.948116291780025 149.5593089144677,37.839626354398206 150.0686109191738,39.36792926187627 150.70523842424154,40.13208068837412 151.85116793354973,40.51415639440529 153.25174844497815,40.386797826271504 153.50639944709837,39.11321211559698 154.27035245345905,38.221702088136226 154.397677954752,37.330192035995424 153.88837595051154,36.69339912640862 149.43198341410607,33.509434387786314 148.54070490645245,33.0 147.9040774013847,33.254717194940895 147.39477539714426,34.14622736093588 147.14012439502403,35.41981326905079 148.54070490645245,37.20283345505595 149.17733241152018,39.24057068885304 150.57791292341426,40.259439257439226 151.34186592930928,40.51415639440529 151.97849343484268,40.386797826271504 152.6151209399104,40.004722118377686 152.99709744332358,39.36792926187627 152.86977194203064,38.98585354187526 153.3790739462711,38.858494967687875 151.97849343484268,38.476419241633266" stroke="#4dd2ff" stroke-linecap="round" stroke-linejoin="round" stroke-width="0.5"><title>2022-04-09 3.1km</title></polyline><polyline fill="none" points="49.60767352208495,126.86440826021135 50.522690046578646,113.13559470232576 13.007012501358986,103.98305187281221 53.26773962378502,143.33898345194757 62.41790487244725,115.88135747984052 28.56229343637824,96.6610173471272 17.58209513500333,103.06779757235199 55.09777267277241,144.25423759315163 62.41790487244725,117.7118659792468 17.58209513500333,102.15254326444119 56.927805721759796,142.42372930422425 63.33292140066624,114.05084896553308 18.497111655771732,100.32203464116901 54.18275614827871,141.5084751546383 64.24793792888522,116.79661173187196 31.307343009859324,97.57627167738974 17.58209513500333,103.06779757235199 53.26773962378502,142.42372930422425 65.16295445337892,115.88135747984052 29.477309960871935,96.6610173471272 16.667078606784344,102.15254326444119 54.18275614827871,143.33898345194757 65.16295445337892,112.22034043632448 29.477309960871935,93.91525434330106 17.58209513500333,103.06779757235199 56.0127891972661,141.5084751546383 63.33292140066624,114.05084896553308 18.497111655771732,99.40678032301366 54.18275614827871,141.5084751546383 66.07797097787261,115.88135747984052 30.39232648909092,95.74576301779598 17.58209513500333,101.23728895373642 57.84282224625349,141.5084751546383 66.9929875023663,116.79661173187196 19.412128183990717,99.40678032301366 19.412128183990717,114.96610322315246 51.43770657107234,140.59322100132704 62.41790487244725,114.05084896553308 31.307343009859324,95.74576301779598 17.58209513500333,101.23728895373642 55.09777267277241,144.25423759315163 62.41790487244725,116.79661173187196 32.22235953807831,95.74576301779598 18.497111655771732,100.32203464116901 55.09777267277241,140.59322100132704 65.16295445337892,116.79661173187196 32.22235953807831,93.0 16.667078606784344,100.32203464116901 57.84282224625349,147.0 52.352723095566034,103.06779757235199" stroke="#4dd2ff" stroke-linecap="round" stroke-linejoin="round" stroke-width="0.5"><title>2022-01-19 2.1km</title></polyline><polyline fill="none" points="92.52501893416047,131.2153860591352 110.79719487205148,147.0 119.93328283727169,119.58461713045835 83.38893096894026,94.66153867077082 76.74450335279107,112.93846316635609 104.98332071304321,144.50769261457026 114.11940867826343,143.67692348081619 120.76383629068732,120.41538636013865 84.2194844186306,93.8307693367824 77.575056809932,111.27692464087158 104.15276725962758,142.84615434054285 115.7805155813694,141.18461605533957 119.93328283727169,117.09230941813439 92.52501893416047,94.66153867077082 80.06671716272831,97.98461597040296 79.23616370931268,115.43077092710882 106.6444276124239,143.67692348081619 122.4249431937933,120.41538636013865 93.3555723875761,95.49230799917132 80.06671716272831,97.98461597040296 77.575056809932,112.93846316635609 104.98332071304321,142.01538520026952 119.10272938758135,118.75384789612144 83.38893096894026,93.0 76.74450335279107,111.27692464087158 104.98332071304321,142.01538520026952 114.11940867826343,141.18461605533957 119.10272938758135,117.92307865712792 93.3555723875761,94.66153867077082 77.575056809932,98.81538528762758 77.575056809932,112.93846316635609 103.32221380621195,142.01538520026952 115.7805155813694,142.01538520026952 124.08605009689927,120.41538636013865 95.01667929068208,96.32307732850313 79.23616370931268,97.98461597040296 77.575056809932,114.60000167507678 105.81387416273355,141.18461605533957 117.44162248447537,120.41538636013865 90.8639120310545,97.15384664945304 75.91394990682602,101.30769321508706 108.30553451552987,143.67692348081619 119.93328283727169,116.26154017355293 92.52501893416047,94.66153867077082 78.40561025962234,98.81538528762758 80.89727061241865,119.58461713045835 106.6444276124239,144.50769261457026 120.76383629068732,117.92307865712792 89.20280513167381,94.66153867077082 76.74450335279107,98.81538528762758 75.91394990682602,114.60000167507678 104.98332071304321,143.67692348081619 119.10272938758135,117.09230941813439 90.8639120310545,97.15384664945304 77.575056809932,101.30769321508706 107.47498106211424,146.16923087555915 120.76383629068732,118.75384789612144 90.8639120310545,96.32307732850313 77.575056809932,100.47692391090095 76.74450335279107,116.26154017355293 104.98332071304321,144.50769261457026 118.272175937891,119.58461713045835 90.03335858508945,96.32307732850313 77.575056809932,98.81538528762758 79.23616370931268,116.26154017355293 105.81387416273355,145.3384617464617 122.4249431937933,118.75384789612144 80.06671716272831,97.98461597040296 78.40561025962234,115.43077092710882 104.98332071304321,143.67692348081619 115.7805155813694,142.84615434054285 122.4249431937933,119.58461713045835 79.23616370931268,96.32307732850313 79.23616370931268,116.26154017355293 101.66110690683126,143.67692348081619 113.28885522857308,144.50769261457026 103.32221380621195,123.73846324998885 111.62774832174182,132.87692442536354 116.61106903105974,120.41538636013865" stroke="#4dd2ff" stroke-linecap="round" stroke-linejoin="round" stroke-width="0.5"><title>2022-01-10 2.8km</title></polyline><polyline fill="none" points="182.81097131036222,137.11267833877355 163.04146284237504,124.18310231529176 162.28109713084996,132.16901712398976 174.8271313533187,145.85915524559096 180.91005703620613,135.2112702098675 162.28109713084996,125.70422899676487 163.04146284237504,133.69014367926866 175.58749706298113,145.4788736575283 180.1496913265437,134.45070694759488 168.7442056685686,126.08451066352427 163.04146284237504,127.60563731472939 175.2073142081499,145.85915524559096 180.52987417951226,134.45070694759488 167.60365710407495,125.70422899676487 161.90091427788138,127.60563731472939 175.2073142081499,145.85915524559096 180.52987417951226,134.07042531389743 167.98383995890617,125.32394732814282 163.04146284237504,126.84507399238646 174.8271313533187,145.4788736575283 181.2902398929,135.2112702098675 167.60365710407495,125.70422899676487 162.28109713084996,127.60563731472939 174.8271313533187,147.0 181.2902398929,134.45070694759488 162.66127998754382,126.08451066352427 162.66127998754382,134.45070694759488 175.2073142081499,146.2394368313253 182.43078845739365,134.83098857896402 162.28109713084996,126.84507399238646 162.28109713084996,133.69014367926866 174.44694849848747,145.4788736575283 180.52987417951226,134.45070694759488 163.80182855203748,125.32394732814282 162.28109713084996,132.5492987660691 171.0253028012812,140.15493126725778 178.62895990535617,133.30986204231158 163.80182855203748,125.32394732814282 161.90091427788138,132.92958040488884 174.0667656417936,145.4788736575283 178.62895990535617,145.09859206760302 181.6704227477312,134.83098857896402 168.7442056685686,125.32394732814282 162.28109713084996,127.60563731472939 175.58749706298113,147.0 180.1496913265437,134.45070694759488 167.22347424924374,125.70422899676487 161.90091427788138,127.98591897403821 175.96767991781235,147.0 180.91005703620613,135.2112702098675 163.42164569720626,125.70422899676487 161.90091427788138,132.16901712398976 169.12438852526248,142.43662089901045 177.86859419569373,146.2394368313253 181.6704227477312,135.2112702098675 165.70274282805622,124.94366565952078 161.90091427788138,135.2112702098675 176.72804562933743,147.0 179.0091427601874,133.30986204231158 165.70274282805622,123.04225728753954 159.61981714703143,107.830988955684 137.18902868963778,93.0" stroke="#4dd2ff" stroke-linecap="round" stroke-linejoin="round" stroke-width="0.5"><title>2022-01-04 2.5km</title></polyline><polyline fill="none" points="33.57309827208519,195.00000117067248 49.85458266362548,207.0 59.28070520982146,183.85714451409876 21.576215036213398,158.1428577248007 16.43469364568591,175.28571592550725 42.99922081455588,205.28571449313313 59.28070520982146,182.14285882376134 22.433135263621807,156.42857183050364 16.43469364568591,171.8571443958208 41.285380352288485,204.42857173550874 60.13762544095516,178.71428740303963 34.43001850321889,154.71428592316806 23.290055494755507,157.2857147809118 20.71929480135441,174.42857304867357 42.99922081455588,205.28571449313313 61.85146589949727,182.14285882376134 21.576215036213398,157.2857147809118 19.00545433908701,173.57143016625196 41.285380352288485,203.57142897509038 51.56842312589288,203.57142897509038 60.99454566836357,179.57143026217818 24.146975729614496,155.5714288773015 19.86237457022071,171.8571443958208 41.285380352288485,204.42857173550874 63.56530636921525,181.2857159730047 35.2869387306273,154.71428592316806 21.576215036213398,157.2857147809118 18.14853410795331,172.71428728289902 41.285380352288485,203.57142897509038 61.85146589949727,182.14285882376134 24.146975729614496,153.0 17.29161387681961,171.0000015022233 42.142300579696894,202.71428620815277 60.99454566836357,179.57143026217818 18.14853410795331,157.2857147809118 17.29161387681961,173.57143016625196 41.285380352288485,204.42857173550874 51.56842312589288,203.57142897509038 60.99454566836357,178.71428740303963 32.7161780372262,156.42857183050364 19.86237457022071,159.0000006686896 42.142300579696894,203.57142897509038 60.99454566836357,181.2857159730047 31.8592578060925,153.85714296158403 19.86237457022071,156.42857183050364 17.29161387681961,173.57143016625196 42.99922081455588,204.42857173550874 61.85146589949727,179.57143026217818 20.71929480135441,156.42857183050364 17.29161387681961,172.71428728289902 40.428460121154785,202.71428620815277 52.42534335702658,203.57142897509038 64.42222659289837,181.2857159730047 22.433135263621807,153.0 15.577773410826921,173.57143016625196 41.285380352288485,201.85714344028383 53.28226359188557,201.85714344028383 57.566864747554064,180.4285731203854" stroke="#4dd2ff" stroke-linecap="round" stroke-linejoin="round" stroke-width="0.5"><title>2021-12-13 2.2km</title></polyline><polyline fill="none" points="112.32289208425209,161.04969821253326 109.80801614839584,158.3664658170892 106.28718983847648,161.72050625807606 105.28123946487904,161.80435726209544 106.11953144334257,160.88199619785883 98.9940496259369,161.6366552534746 99.66468320880085,160.0434861043468 94.97024812921882,164.23603623791132 84.91074438719079,156.4378923213808 78.95887133991346,156.354041295941 83.56947722146288,170.3571579353884 89.3536918736063,176.8975325790234 92.03622620459646,183.01865060033742 91.78473861096427,192.40995151060633 93.12600577669218,195.7639865379315 89.18603347754106,198.78261760692112 91.86856780899689,203.39441424130928 91.44942181929946,205.57453593646642 90.02432545600459,202.2205024661962 100.50297518726438,205.07143094972707 94.04812695272267,202.63975667906925 88.7668874883093,204.31677344755735 88.01242470787838,206.41304422088433 86.75498673971742,206.41304422088433 89.10220427950844,207.0 86.00052395928651,204.31677344755735 88.93454588390887,201.80124824505765 101.00595037452877,204.65217678516638 102.68253433145583,206.24534256651532 103.77231390355155,204.40062428230885 105.86804384971038,203.89751926786266 84.9945735852234,165.74535408208612 81.80906406696886,157.19255153648555 85.2460611788556,157.5279556233436 87.67710791621357,154.67702071473468 88.85071668587625,155.93478616315406 89.01837508194149,153.0 86.41966994851828,154.92857381049544 88.09625390544534,153.5869572655065 97.7366116582416,162.1397612754954 99.24553721956909,161.13354921911377 103.18550951872021,162.47516528354026 109.5565285552293,158.61801886861213 113.58033005194739,160.96584720525425 118.27476513152942,153.83851037418935 121.0411286605522,154.00621244497597" stroke="#4dd2ff" stroke-linecap="round" stroke-linejoin="round" stroke-width="0.5"><title>2021-11-30 3.6km</title></polyline><polyline fill="none" points="186.83359013858717,197.463774657459 185.7241910630837,196.99215692211874 179.3451463789679,191.85984420400928 171.74576271185651,188.58625897596357 165.69953775033355,187.03269256459316 165.14483821264002,187.58753775141668 163.2311248072656,187.08817708530114 159.62557781196665,183.70362051116535 143.59476117091253,172.6621867424983 143.01232665637508,171.16410140538937 143.1232665637508,170.3595739605953 141.79198767326307,170.3595739605953 141.57010785816237,170.83119350855122 139.96147919876967,169.97118136743666 134.49768875190057,164.7833639201417 133.58243451453745,162.89688388066133 133.49922958388925,163.86786631838186 133.0,164.0065780840523 133.66563944518566,164.64465217015822 135.46841294295155,162.56397558478056 134.55315870570485,161.84267422187258 134.58089368254878,162.25880963282543 133.9152542372467,161.03814568946837 134.33127889048774,162.17558255261974 137.82588597841095,166.30919298619847 141.07087827427313,169.1389114514459 141.45916795067023,170.66473955407855 143.06779661006294,170.41505861491896 143.06779661006294,171.05313210823806 143.89984591677785,171.82991715086973 153.52388289675582,178.7932363122527 153.71802773489617,179.70873193553416 159.65331278881058,183.9533009705774 162.67642526957206,186.97720804344863 165.39445300458465,188.00367161244503 170.99691833590623,189.14110403854284 178.70724191050977,192.16500885007554 187.0,198.96185431053163" stroke="#4dd2ff" stroke-linecap="round" stroke-linejoin="round" stroke-width="0.5"><title>2021-11-29 5.7km</title></polyline><polyline fill="none" points="67.0,259.66179583373014 64.6424778761575,258.25966137455544 65.34336283197626,256.7937932682689 64.89734513277654,253.83018953731516 65.27964601770509,253.38405554718338 55.69026548683178,245.73604041454382 52.91858407086693,244.11083625507308 45.623008849681355,241.11536105413688 38.48672566364985,239.36268887203187 38.454867256688885,238.62975311791524 36.86194690258708,238.31108537770342 35.30088495579548,237.32321530213812 32.1150442478247,233.78600209066644 13.0,220.33820416621165 13.191150442464277,221.8678126609302 31.955752212321386,234.9013397594099 35.5876106194919,238.47041924943915 38.70973451330792,239.61762303160504 44.89026548678521,240.98789399926318 54.25663716823328,244.7481712590088 63.46371681417804,252.2049870249466" stroke="#4dd2ff" stroke-linecap="round" stroke-linejoin="round" stroke-width="0.5"><title>2021-11-08 4.6km</title></polyline><polyline fill="none" points="80.41931302659214,230.33844267757377 86.01879455603193,235.55430644896114 89.20349967607763,237.0595551521401 89.30848995456472,238.00471118360292 97.39274141285568,244.79582932591438 98.65262475702912,243.81566826661583 99.59753726515919,244.13072004757123 100.64744005200919,242.94052437192295 101.41736876231153,243.08054740086664 103.93713545065839,244.86584082606714 105.93195074552204,245.4259328066837 112.26636422565207,250.04669029533397 119.30071289709304,251.83198231569258 124.86519766703714,250.8868277615402 125.21516526257619,251.86698803806212 124.93519118614495,253.37223396578338 125.7401166560594,252.9521653605625 125.35515230090823,252.6021081742365 127.0,252.6021081742365 125.56513285823166,251.9369994821609 125.84510693466291,252.84714820614317 125.42514581989963,252.77713676908752 126.75502268329728,253.02217679622117 124.86519766703714,253.26721681642812 124.02527543751057,257.5029075248167 123.08036292961333,259.1131695775548 121.99546338315122,265.8342602098128 118.25081011024304,265.5892205364653 116.15100453665946,266.6743961813627 114.92611795221455,266.42935653124005 110.6915100455517,262.2636814446305 110.7965003241552,261.4935564248008 110.1315618926892,260.6534199634334 110.30654569040053,258.8681297188159 113.24627349327784,256.1026794152567 105.96694750490133,255.75262235337868 105.7219701880822,254.0023368364782 103.5171743358951,250.8868277615402 99.45755022694357,246.54611666180426 89.23849643557332,237.86468807421625 89.20349967607763,237.16457249392988 87.87362281267997,236.81451468309388 85.87880751793273,235.37927751330426 77.79455605952535,227.81802417960716 77.68956578103825,226.87286705704173 74.74983797792811,222.5671499935561 74.81983149703592,221.4819689381984 74.15489306533709,220.8168579026824 75.55476344772615,218.96154790610308 74.95981853525154,218.47146595496451 74.88982501626015,216.5811496017268 73.0,215.35594434093218 73.27997407643124,214.06072716531344 73.83992222941015,213.81568605656503 73.20998055743985,213.3256038185791" stroke="#4dd2ff" stroke-linecap="round" stroke-linejoin="round" stroke-width="0.5"><title>2021-07-04 5.1km</title></polyline></svg>