<?xml version="1.0" encoding="utf-8" ?>
<svg baseProfile="full" height="300mm" version="1.1" viewBox="0,0,200,300" width="200mm" xmlns="http://www.w3.org/2000/svg" xmlns:ev="http://www.w3.org/2001/xml-events" xmlns:xlink="http://www.w3.org/1999/xlink"><defs /><rect fill="#222222" height="300" width="200" x="0" y="0" /><text fill="#FFFFFF" style="font-size:12px; font-family:Arial; font-weight:bold;" x="10" y="20">Over 2km Runs</text><text fill="#FFFFFF" style="font-size:4px; font-family:Arial" x="10" y="280">ATHLETE</text><text fill="#FFFFFF" style="font-size:9px; font-family:Arial" x="10" y="290">WonSikin</text><text fill="#FFFFFF" style="font-size:4px; font-family:Arial" x="120" y="280">STATISTICS</text><text fill="#FFFFFF" style="font-size:3px; font-family:Arial" x="120" y="285">Number: 12</text><text fill="#FFFFFF" style="font-size:3px; font-family:Arial" x="120" y="290">Weekly: 1.2</text><text fill="#FFFFFF" style="font-size:3px; font-family:Arial" x="141" y="285">Total: 41.7 km</text><text fill="#FFFFFF" style="font-size:3px; font-family:Arial" x="141" y="290">Avg: 3.5 km</text><text fill="#FFFFFF" style="font-size:3px; font-family:Arial" x="167" y="285">Min: 2.1 km</text><text fill="#FFFFFF" style="font-size:3px; font-family:Arial" x="167" y="290">Max: 5.7 km</text><polyline fill="none" points="21.608695652335882,67.43672037194483 19.886956521309912,66.4973459248431 17.852173913270235,64.77515938109718 16.600000000558794,63.99234729097225 15.034782608971,63.83578487089835 14.095652174204588,64.61859696428291 14.095652174204588,65.71453386894427 14.878260869532824,67.28015796560794 17.38260869588703,68.845781999873 19.260869565419853,71.507342715282 21.139130434952676,72.75984181300737 21.608695652335882,72.60327942785807 21.139130434952676,71.35078032547608 21.608695652335882,68.845781999873 20.66956521756947,67.28015796560794 14.878260869532824,63.83578487089835 14.095652174204588,63.83578487089835 13.469565217383206,63.99234729097225 13.0,64.77515938109718 13.0,66.02765869302675 13.626086956821382,66.96703315107152 16.600000000558794,68.68921959912404 17.539130435325205,69.31546919816174 19.573913043364882,71.820467493264 20.35652173962444,72.29015465592965 21.452173912897706,72.13359226915054 21.921739130280912,71.507342715282 22.547826087102294,69.15890679927543 22.547826087102294,68.37609479599632 22.078260869719088,67.5932827773504 15.504347826354206,63.99234729097225 14.252173912711442,63.99234729097225 13.469565217383206,64.77515938109718 13.469565217383206,65.71453386894427 14.252173912711442,66.96703315107152 17.38260869588703,69.31546919816174 18.63478260859847,71.19421793450601 19.73043478280306,72.13359226915054 20.66956521756947,71.97702988167293 21.452173912897706,71.03765554307029 21.921739130280912,69.15890679927543 21.921739130280912,68.0629699905403 21.608695652335882,67.5932827773504 19.573913043364882,65.87109628156759 15.504347826354206,63.83578487089835 14.252173912711442,63.99234729097225 13.469565217383206,64.93172179721296 13.469565217383206,65.71453386894427 13.939130434766412,66.65390833467245 14.878260869532824,67.5932827773504 17.226086956448853,69.15890679927543 18.947826087474823,71.66390510462224 20.04347826074809,72.29015465592965 21.139130434952676,72.13359226915054 21.765217390842736,71.35078032547608 22.547826087102294,69.15890679927543 22.234782609157264,67.90640758699737 16.130434782244265,63.99234729097225 15.191304347477853,63.67922245035879 14.408695652149618,63.83578487089835 13.626086956821382,64.93172179721296 14.095652174204588,66.65390833467245 15.034782608971,67.5932827773504 17.38260869588703,69.15890679927543 18.63478260859847,71.35078032547608 19.573913043364882,72.13359226915054 20.66956521756947,72.29015465592965 21.139130434952676,71.820467493264 22.391304347664118,68.68921959912404 22.078260869719088,67.5932827773504 20.66956521756947,66.34078351524659 16.286956522613764,63.522660029353574 15.034782608971,63.522660029353574 14.252173912711442,64.14890971011482 14.095652174204588,65.55797145632096 15.191304347477853,67.5932827773504 19.104347825981677,71.507342715282 20.200000000186265,72.13359226915054 20.9826086955145,72.13359226915054 21.608695652335882,71.35078032547608 22.704347825609148,68.53265719790943 22.391304347664118,67.43672037194483 18.947826087474823,64.93172179721296 16.600000000558794,63.522660029353574 15.973913043737411,63.522660029353574 15.191304347477853,63.67922245035879 14.565217391587794,64.46203454677016 14.565217391587794,65.87109628156759 14.878260869532824,66.81047074310482 17.852173913270235,68.68921959912404 19.104347825981677,71.03765554307029 20.513043478131294,72.13359226915054 21.295652174390852,71.97702988167293 21.608695652335882,71.66390510462224 22.860869565047324,68.845781999873 23.017391305416822,67.5932827773504 22.547826087102294,67.12359555880539 16.443478260189295,63.522660029353574 15.034782608971,63.67922245035879 14.565217391587794,64.46203454677016 14.565217391587794,65.55797145632096 14.878260869532824,66.34078351524659 15.66086956486106,67.28015796560794 17.539130435325205,68.21953239361756 18.165217391215265,69.00234439992346 19.573913043364882,71.66390510462224 22.078260869719088,73.54265372897498 28.182608695700765,80.11827320791781 29.121739130467176,80.58796027186327 29.904347825795412,80.43139791768044 30.68695652205497,79.64858613885008 32.72173913102597,76.36077649751678 33.504347826354206,74.95171513827518 34.13043478317559,72.60327942785807 36.165217391215265,68.845781999873 38.200000000186265,67.12359555880539 39.921739131212234,65.40140904230066 42.89565217401832,63.67922245035879 47.904347826726735,62.270160637330264 58.07826086971909,65.2448466278147 60.73913043458015,66.18422110471874 61.521739130839705,66.34078351524659 62.30434782616794,66.02765869302675 62.930434782058,64.77515938109718 66.06086956523359,55.85110062779859 67.0,51.623914195923135 67.0,49.901727000949904 66.21739130467176,48.49266469432041 64.65217391308397,47.2401648235973 59.173913043923676,43.95235247351229 56.35652173962444,42.69985245820135 54.00869565177709,41.29078989336267 49.62608695682138,39.41203972813673 47.43478260934353,39.41203972813673 45.71304347831756,39.72516476199962 44.30434782616794,40.35141482204199 42.26956521719694,42.073602435644716 41.33043478243053,43.326102470979095 39.76521739177406,46.77047736174427 39.29565217345953,47.396727309562266 37.10434782598168,48.649227175395936 36.165217391215265,49.74516452499665 34.44347826112062,53.65922623849474 31.782608696259558,57.57328756246716 30.060869565233588,61.64391092630103 29.74782608728856,63.99234729097225 30.530434782616794,66.02765869302675 30.060869565233588,67.43672037194483 28.965217391960323,68.0629699905403 25.0521739134565,67.90640758699737 24.269565218128264,68.0629699905403 23.64347826037556,68.845781999873 22.704347825609148,70.88109315140173 22.078260869719088,71.66390510462224 20.66956521756947,71.820467493264 19.260869565419853,71.19421793450601 17.539130435325205,68.845781999873 15.191304347477853,67.5932827773504 14.095652174204588,66.65390833467245 13.939130434766412,64.77515938109718 14.565217391587794,63.67922245035879 15.66086956486106,63.3660976071842 16.9130434775725,63.67922245035879 22.547826087102294,67.12359555880539 22.860869565047324,68.0629699905403 22.704347825609148,68.53265719790943 21.608695652335882,70.09828118234873 21.139130434952676,71.66390510462224 20.04347826074809,71.97702988167293 18.947826087474823,71.35078032547608 17.38260869588703,68.845781999873 14.252173912711442,67.28015796560794 13.626086956821382,66.18422110471874 13.626086956821382,65.2448466278147 14.252173912711442,63.99234729097225 14.878260869532824,63.522660029353574 15.817391305230558,63.3660976071842 17.069565217942,63.99234729097225 21.765217390842736,67.12359555880539 22.547826087102294,67.90640758699737 22.547826087102294,68.21953239361756 20.35652173962444,71.97702988167293 18.63478260859847,71.03765554307029 16.75652173999697,68.37609479599632 14.095652174204588,67.43672037194483 13.31304347794503,66.02765869302675 13.469565217383206,65.2448466278147 14.095652174204588,63.99234729097225 14.721739130094647,63.3660976071842 15.504347826354206,63.20953518524766 17.539130435325205,63.99234729097225 21.295652174390852,66.4973459248431 22.391304347664118,67.43672037194483 22.704347825609148,68.21953239361756 22.704347825609148,69.00234439992346 22.234782609157264,69.94171878672205 21.921739130280912,71.66390510462224 21.608695652335882,71.820467493264 20.826086957007647,71.97702988167293 19.260869565419853,71.35078032547608 18.478260870091617,70.41140597173944 17.38260869588703,68.68921959912404 16.75652173999697,68.21953239361756 14.565217391587794,67.28015796560794 13.782608695328236,66.65390833467245 13.31304347794503,65.0882842130959 13.469565217383206,64.30547212902457 14.095652174204588,63.3660976071842 15.034782608971,62.89641033811495 16.600000000558794,63.3660976071842 19.104347825981677,65.2448466278147" stroke="#4dd2ff" stroke-linecap="round" stroke-linejoin="round" stroke-width="0.5"><title>2022-04-18 3.3km</title></polyline><polyline fill="none" points="92.5689840959385,37.19294444331899 92.95006183441728,36.93882661405951 93.20411365991458,36.30353203159757 89.9014399247244,33.7623535762541 89.26631036074832,33.50823571975343 88.5041548833251,33.50823571975343 87.74199940590188,33.7623535762541 87.23389575490728,34.27058928320184 87.10686984146014,34.77882498269901 87.10686984146014,35.66823743679561 87.6149734929204,36.55764986621216 90.02846583817154,38.20941574079916 91.29872496658936,40.11529933591373 92.06088044401258,40.75059384247288 92.95006183441728,40.75059384247288 93.20411365991458,40.24235823797062 94.34734687628224,37.32000335725024 94.34734687628224,36.68470878270455 93.7122173118405,35.92235527606681 90.40954357665032,33.50823571975343 89.26631036074832,33.0 88.37712897034362,33.12705893069506 87.6149734929204,33.88941250392236 87.36092166695744,35.03294282918796 87.74199940590188,36.1764731137082 90.02846583817154,37.8282390080858 91.42575087957084,39.607063721399754 92.06088044401258,39.98824043315835 92.95006183441728,39.98824043315835 93.7122173118405,39.098828099202365 94.09329505031928,37.7011800960172 93.9662691373378,36.43059094925411 91.80682861851528,34.65176605852321 89.9014399247244,33.50823571975343 88.88523262180388,33.381176790222526 88.2501030578278,33.50823571975343 87.99605123186484,33.88941250392236 87.86902531888336,34.27058928320184 87.86902531888336,35.160001751966774 88.37712897034362,36.30353203159757 90.40954357665032,37.955297919223085 91.29872496658936,39.86118152993731 92.06088044401258,40.36941714002751 92.95006183441728,40.24235823797062 93.45816548541188,39.48000481678173 94.09329505031928,37.57412118348293 94.09329505031928,36.93882661405951 93.83924322482198,36.43059094925411 91.9338545310311,34.77882498269901 89.6473880992271,33.50823571975343 88.37712897034362,33.63529464812018 87.6149734929204,34.65176605852321 87.6149734929204,35.160001751966774 88.12307714438066,36.1764731137082 90.02846583817154,37.7011800960172 91.29872496658936,39.73412262601778 92.31493226997554,40.36941714002751 92.69601000845432,40.24235823797062 92.95006183441728,39.98824043315835 93.9662691373378,37.955297919223085 94.09329505031928,36.93882661405951 93.7122173118405,36.30353203159757 92.5689840959385,35.287060673581436 89.9014399247244,33.63529464812018 89.01225853525102,33.50823571975343 88.5041548833251,33.7623535762541 87.86902531888336,34.905883906176314 87.99605123186484,36.30353203159757 88.37712897034362,36.81176769849844 90.28251766366884,38.33647465053946 91.17169905407354,39.86118152993731 93.45816548541188,41.64000613009557 98.41217608889565,46.72236158535816 99.42838339181617,48.120009193662554 99.80946113029495,49.390597875462845 98.66622791439295,51.04236308671534 98.41217608889565,52.05883394321427 98.79325382737443,53.075304767582566 100.69864252069965,54.98118747631088 101.58782391063869,56.505893561057746 101.71484982408583,57.90354074165225 101.20674617215991,61.461187835084274 101.46079799765721,64.00236408831552 102.34997938852757,65.90824614535086 103.49321260442957,67.56001050304621 104.00131625542417,69.08471598825417 105.52562721027061,70.99059774284251 104.76347173284739,69.97412748774514 104.00131625542417,69.72000991925597 101.07972025917843,70.10118627152406 99.55540930479765,70.86353896255605 98.41217608889565,72.26118551613763 97.77704652398825,74.04000831372105 97.77704652398825,75.31059596594423 98.2851501754485,76.96235983842053 99.80946113029495,79.24941736739129 102.98510895250365,82.29882715153508 106.03373086219653,85.98353025317192 106.7958863391541,86.61882384866476 107.6850677295588,86.8729412832763 109.20937868440524,86.61882384866476 110.35261190030724,85.85647153295577 111.62287102872506,84.58588429936208 112.8931301580742,80.26588732749224 112.51205241959542,78.99529987201095 103.49321260442957,70.48236261913553 102.34997938852757,70.10118627152406 101.33377208467573,69.97412748774514 100.57161660771817,70.22824505460449 99.42838339181617,70.86353896255605 98.41217608889565,72.0070679653436 97.52299469802529,73.78589077736251 97.39596878550947,74.67530214600265 97.39596878550947,76.45412480970845 98.41217608889565,78.10588862304576 100.82566843321547,80.3929460705258 102.34997938852757,83.18823828385212 103.49321260442957,84.58588429936208 105.90670494921505,86.36470641219057 106.7958863391541,86.74588256655261 108.19317138148472,86.8729412832763 109.46343050990254,86.36470641219057 111.1147673772648,85.22117792232893 112.25800059363246,83.56941447593272 112.63907833211124,82.04470968060195 112.51205241959542,80.3929460705258 111.87692285468802,78.86824112362228 110.47963781282306,76.96235983842053 108.19317138148472,74.80236091138795 104.25536808138713,71.11765652219765 102.73105712700635,70.35530383721925 101.46079799765721,70.10118627152406 100.31756478175521,70.48236261913553 98.41217608889565,72.0070679653436 97.77704652398825,73.15059692715295 97.52299469802529,75.43765472853556 98.03109834995121,77.21647734963335 98.66622791439295,78.36000612541102 101.33377208467573,81.53647473244928 103.49321260442957,83.31529701501131 105.52562721027061,85.85647153295577 106.7958863391541,86.8729412832763 107.55804181657732,87.0 108.5742491199635,86.8729412832763 110.09856007434428,86.11058897338808 112.13097468065098,83.82353193475865 112.63907833211124,82.42588588641956 112.51205241959542,80.26588732749224 111.87692285468802,78.61412362591363 110.35261190030724,77.08941859425977 107.17696407809854,73.27765569835901 105.3986012977548,71.62589163566008 103.87429034337401,69.59295113384724 103.87429034337401,68.83059841254726 104.38239399436861,67.81412808899768 104.38239399436861,66.67059893650003 103.36618669144809,62.60471717384644 103.36618669144809,56.378834723262116 102.98510895250365,54.85412863222882 100.82566843321547,51.42353966180235 100.69864252069965,50.91530422726646 101.46079799765721,48.882362409029156 101.07972025917843,48.247068064287305 100.57161660771817,47.738832579459995 99.04730565287173,46.72236158535816 97.77704652398825,45.45177279715426 96.50678739510477,43.54588952055201 96.50678739510477,43.03765396098606 96.76083922060207,42.40235950006172 98.03109834995121,40.62353494181298 97.90407243696973,39.607063721399754 95.10950235370547,36.30353203159757 92.95006183441728,34.905883906176314 90.28251766366884,33.63529464812018 89.01225853525102,33.381176790222526 88.2501030578278,33.50823571975343 87.36092166695744,34.27058928320184 87.23389575490728,35.287060673581436 87.6149734929204,36.049414195353165 89.3933362737298,37.32000335725024 90.91764722811058,39.48000481678173 91.6798027055338,39.98824043315835 92.5689840959385,40.11529933591373 92.95006183441728,39.86118152993731 94.2203209628351,38.20941574079916 94.47437278926373,37.19294444331899 93.9662691373378,36.30353203159757 92.95006183441728,35.4141195951961 91.42575087957084,34.77882498269901 89.77441401220858,33.63529464812018 90.79062131559476,38.97176919225603 91.42575087957084,39.73412262601778 92.69601000845432,40.24235823797062 93.33113957336172,39.73412262601778 93.45816548541188,38.97176919225603 92.8230359214358,38.08235683012754 91.6798027055338,37.19294444331899 92.44195818249136,36.81176769849844" stroke="#4dd2ff" stroke-linecap="round" stroke-linejoin="round" stroke-width="0.5"><title>2022-04-15 3.3km</title></polyline><polyline fill="none" points="179.47035156190395,67.52459167316556 179.47035156190395,66.63934580050409 181.2403835207224,62.21311637945473 178.58533557876945,56.0163950426504 159.11498402059078,40.08196795824915 148.4947922565043,34.770492009818554 142.29968039691448,35.65573801007122 139.64463245496154,37.426230000332 136.98958452045918,40.9672139370814 136.98958452045918,48.93442759197205 141.41466441750526,58.67213278077543 157.34495205804706,67.52459167316556 160.88501597568393,73.72131268959492 161.77003195881844,77.2622960517183 167.96514381840825,86.1147542046383 174.16025568172336,87.0 176.815303619951,84.34426260087639 179.47035156190395,73.72131268959492 184.78044743835926,62.21311637945473 184.78044743835926,57.7868868727237 182.1253995038569,54.245903202332556 160.88501597568393,42.73770588450134 141.41466441750526,38.311475987546146 137.8746004924178,40.08196795824915 134.33453657850623,45.39344378001988 134.33453657850623,50.70491947699338 136.98958452045918,56.90164096001536 142.29968039691448,60.44262458663434 156.45993607863784,62.21311637945473 162.65504793822765,64.86885404307395 166.19511185958982,69.2950834101066 171.5052077397704,80.80327935423702 174.16025568172336,82.57377098314464 176.815303619951,81.68852517101914 180.35536753758788,72.83606684114784 182.1253995038569,62.21311637945473 179.47035156190395,56.0163950426504 160.88501597568393,40.08196795824915 152.9198721535504,36.54098400659859 145.83974431455135,37.426230000332 140.52964843437076,45.39344378001988 140.52964843437076,54.245903202332556 144.95472833886743,59.55737868603319 156.45993607863784,63.98360815830529 160.88501597568393,74.60655853617936 165.3100958764553,80.80327935423702 171.5052077397704,83.45901679527014 175.9302876368165,82.57377098314464 178.58533557876945,79.03278770949692 183.01041547954082,67.52459167316556 183.89543145895004,59.55737868603319 182.1253995038569,55.13114912528545 174.16025568172336,46.27868973836303 162.65504793822765,38.311475987546146 152.03485618159175,35.65573801007122 144.95472833886743,39.19672197569162 141.41466441750526,47.16393569111824 141.41466441750526,57.7868868727237 144.95472833886743,63.98360815830529 160.0,71.95082098804414 167.96514381840825,79.91803353279829 174.16025568172336,81.68852517101914 179.47035156190395,79.03278770949692 183.89543145895004,72.83606684114784 185.66546341776848,66.63934580050409 185.66546341776848,61.32787048537284 182.1253995038569,56.0163950426504 166.19511185958982,41.852459914050996 155.57492009550333,37.426230000332 146.72476029768586,37.426230000332 144.0697123594582,39.19672197569162 141.41466441750526,44.508197819814086 141.41466441750526,51.590165412053466 147.60977627709508,63.09836227167398 161.77003195881844,71.06557513214648 171.5052077397704,80.80327935423702 176.815303619951,81.68852517101914 179.47035156190395,76.3770502153784 182.1253995038569,64.86885404307395 179.47035156190395,58.67213278077543 166.19511185958982,42.73770588450134 155.57492009550333,37.426230000332 147.60977627709508,37.426230000332 142.29968039691448,40.08196795824915 139.64463245496154,45.39344378001988 139.64463245496154,50.70491947699338 144.0697123594582,61.32787048537284 159.11498402059078,69.2950834101066 165.3100958764553,80.80327935423702 169.7351757772267,83.45901679527014 175.9302876368165,83.45901679527014 180.35536753758788,76.3770502153784 183.01041547954082,65.75409992411733 183.01041547954082,59.55737868603319 179.47035156190395,53.3606572765857 165.3100958764553,40.9672139370814 153.8048881366849,36.54098400659859 145.83974431455135,37.426230000332 141.41466441750526,41.852459914050996 139.64463245496154,44.508197819814086 139.64463245496154,53.3606572765857 143.1846963763237,59.55737868603319 154.6899041160941,67.52459167316556 162.65504793822765,80.80327935423702 169.7351757772267,82.57377098314464 177.70031959936023,79.91803353279829 179.47035156190395,78.14754188153893 183.01041547954082,71.06557513214648 183.01041547954082,61.32787048537284 181.2403835207224,57.7868868727237 174.16025568172336,50.70491947699338 157.34495205804706,36.54098400659859 149.3798082396388,34.770492009818554 143.1846963763237,36.54098400659859 139.64463245496154,41.852459914050996 139.64463245496154,50.70491947699338 145.83974431455135,59.55737868603319 155.57492009550333,64.86885404307395 162.65504793822765,79.03278770949692 165.3100958764553,80.80327935423702 173.27523969858885,81.68852517101914 179.47035156190395,78.14754188153893 184.78044743835926,67.52459167316556 184.78044743835926,59.55737868603319 181.2403835207224,53.3606572765857 165.3100958764553,41.852459914050996 152.03485618159175,36.54098400659859 147.60977627709508,37.426230000332 143.1846963763237,38.311475987546146 138.75961647555232,47.16393569111824 138.75961647555232,51.590165412053466 141.41466441750526,57.7868868727237 167.96514381840825,79.91803353279829 174.16025568172336,80.80327935423702 182.1253995038569,75.49180437624454 184.78044743835926,69.2950834101066 184.78044743835926,61.32787048537284 183.01041547954082,58.67213278077543 173.27523969858885,47.16393569111824 159.11498402059078,37.426230000332 150.26482421532273,35.65573801007122 143.1846963763237,40.08196795824915 141.41466441750526,42.73770588450134 139.64463245496154,54.245903202332556 143.1846963763237,62.21311637945473 148.4947922565043,65.75409992411733 159.11498402059078,70.18032927252352 163.54006391763687,77.2622960517183 169.7351757772267,80.80327935423702 176.815303619951,80.80327935423702 180.35536753758788,77.2622960517183 183.01041547954082,72.83606684114784 184.78044743835926,64.86885404307395 182.1253995038569,58.67213278077543 160.88501597568393,38.311475987546146 153.8048881366849,33.88524600490928 148.4947922565043,34.770492009818554 142.29968039691448,39.19672197569162 139.64463245496154,45.39344378001988 139.64463245496154,50.70491947699338 142.29968039691448,56.90164096001536 144.95472833886743,60.44262458663434 156.45993607863784,67.52459167316556 167.08012784272432,81.68852517101914 176.815303619951,82.57377098314464 179.47035156190395,80.80327935423702 182.1253995038569,75.49180437624454 183.89543145895004,69.2950834101066 183.89543145895004,62.21311637945473 182.1253995038569,58.67213278077543 175.9302876368165,49.81967353448272 166.19511185958982,42.73770588450134 147.60977627709508,40.9672139370814 145.83974431455135,41.852459914050996 141.41466441750526,51.590165412053466 141.41466441750526,57.7868868727237 143.1846963763237,63.09836227167398 145.83974431455135,65.75409992411733 160.0,71.95082098804414 169.7351757772267,79.03278770949692 174.16025568172336,79.91803353279829 181.2403835207224,76.3770502153784 183.89543145895004,62.21311637945473 182.1253995038569,56.90164096001536 167.96514381840825,43.62295185402036 156.45993607863784,35.65573801007122 150.26482421532273,33.88524600490928 142.29968039691448,37.426230000332 139.64463245496154,45.39344378001988 139.64463245496154,48.93442759197205 142.29968039691448,56.0163950426504 156.45993607863784,64.86885404307395 165.3100958764553,80.80327935423702 170.6201917566359,85.22950840368867 175.9302876368165,85.22950840368867 184.78044743835926,66.63934580050409 184.78044743835926,61.32787048537284 180.35536753758788,56.0163950426504 163.54006391763687,43.62295185402036 153.8048881366849,37.426230000332 148.4947922565043,35.65573801007122 143.1846963763237,37.426230000332 139.64463245496154,40.9672139370814 139.64463245496154,51.590165412053466 140.52964843437076,55.13114912528545 144.95472833886743,62.21311637945473 158.22996803745627,74.60655853617936 166.19511185958982,79.03278770949692 174.16025568172336,80.80327935423702 179.47035156190395,79.03278770949692 184.78044743835926,71.06557513214648 184.78044743835926,62.21311637945473 181.2403835207224,56.0163950426504 165.3100958764553,41.852459914050996 153.8048881366849,36.54098400659859 145.83974431455135,38.311475987546146 139.64463245496154,48.93442759197205 142.29968039691448,56.0163950426504 157.34495205804706,65.75409992411733 160.88501597568393,70.18032927252352 166.19511185958982,81.68852517101914 170.6201917566359,86.1147542046383 174.16025568172336,86.1147542046383 176.815303619951,82.57377098314464 183.89543145895004,63.98360815830529 183.89543145895004,59.55737868603319 180.35536753758788,54.245903202332556 160.88501597568393,39.19672197569162 151.14984019845724,35.65573801007122 144.0697123594582,36.54098400659859 139.64463245496154,40.08196795824915 137.8746004924178,48.049181644804776 142.29968039691448,56.90164096001536 153.8048881366849,63.98360815830529 162.65504793822765,79.91803353279829 167.96514381840825,84.34426260087639 174.16025568172336,86.1147542046383 176.815303619951,81.68852517101914 184.78044743835926,61.32787048537284 182.1253995038569,56.0163950426504 168.85015979781747,46.27868973836303 161.77003195881844,39.19672197569162 146.72476029768586,33.0 142.29968039691448,33.88524600490928 137.8746004924178,40.08196795824915 139.64463245496154,50.70491947699338 144.95472833886743,59.55737868603319 159.11498402059078,68.40983754489571 165.3100958764553,80.80327935423702 167.96514381840825,83.45901679527014 175.9302876368165,86.1147542046383 181.2403835207224,82.57377098314464 182.1253995038569,73.72131268959492 185.66546341776848,64.86885404307395 184.78044743835926,60.44262458663434 166.19511185958982,41.852459914050996 165.3100958764553,40.9672139370814 138.75961647555232,55.13114912528545" stroke="#4dd2ff" stroke-linecap="round" stroke-linejoin="round" stroke-width="0.5"><title>2022-04-13 3.4km</title></polyline><polyline fill="none" points="31.469191430602223,98.22170208813623 30.705238424241543,98.73113639256917 29.686634416226298,98.73113639256917 29.05000691115856,98.34906066511758 27.776751900091767,96.82075770921074 27.394775397144258,96.0566062037833 27.267449896782637,95.29245468019508 28.031402902677655,93.76415157853626 28.66803040774539,93.50943438778631 29.304657912813127,93.63679298316129 31.72384243272245,95.03773750178516 33.63372494839132,96.56604054267518 34.01570145133883,97.4575506162364 33.888375950511545,98.09434351092204 32.61512093991041,100.13208068837412 31.978493434842676,100.25943925743923 30.832563925534487,99.49528783420101 29.941285417880863,97.8396263543982 28.413379405625165,96.82075770921074 27.90407740138471,96.31132337450981 27.522100898437202,95.54717185674235 27.522100898437202,94.65566173009574 28.158728403504938,93.76415157853626 29.05000691115856,93.63679298316129 30.705238424241543,95.03773750178516 33.37907394627109,96.82075770921074 33.76105044968426,97.8396263543982 33.37907394627109,99.11321211559698 32.742446441203356,100.13208068837412 32.360469937790185,100.25943925743923 31.72384243272245,100.25943925743923 30.95988942636177,99.62264640582725 28.158728403504938,96.82075770921074 27.649426399264485,95.67453044443391 27.649426399264485,94.65566173009574 28.286053904797882,93.76415157853626 28.922681409865618,93.63679298316129 29.559308914467692,93.8915101729799 30.95988942636177,94.78302032104693 33.37907394627109,96.94811629178002 33.76105044968426,97.4575506162364 33.888375950511545,98.09434351092204 32.742446441203356,100.51415639440529 32.742446441203356,101.1509492280893 32.99709744332358,101.78774204896763 38.72674498986453,107.64623540849425 39.87267449963838,108.53774517332204 40.25465100258589,109.04717931360938 40.38197650341317,109.93868904002011 39.363372495397925,111.97642546333373 39.363372495397925,112.74057658901438 41.40058051189408,116.05189792183228 41.78255701530725,116.81604895018972 41.655231514014304,121.27359625184909 42.29185901908204,125.47642599698156 43.565114030148834,127.51416143286042 43.692439530510455,129.16982137900777 43.94709053309634,130.0613305454608 44.456392536871135,130.82548123947345 45.47499654535204,131.58963191579096 44.456392536871135,130.44340589479543 43.18313752673566,130.0613305454608 40.891278507653624,130.69812279194593 39.61802349798381,131.46227347105742 38.599419488571584,132.6084994559642 37.70814098184928,134.39151757233776 37.58081548055634,136.0471771636512 37.96279198350385,137.57547824899666 39.363372495397925,139.61321291630156 43.310463027562946,144.19811544427648 44.32906703557819,145.216982583981 45.85697304829955,146.36320807691664 47.25755355972797,147.0 48.403483069036156,147.0 49.931389081757516,146.74528323253617 51.20464409189299,145.85377452964894 52.47789910249412,143.43396506854333 52.85987560544163,141.39623064384796 52.605224603787065,139.995288151782 51.841271597426385,138.59434559894726 45.47499654535204,131.84434880362824 43.94709053309634,130.95283968700096 42.67383552202955,130.69812279194593 41.01860400894657,130.82548123947345 39.745348998345435,131.3349150258582 38.72674498986453,132.09906568960287 37.70814098184928,133.62736696307547 37.453489979729056,135.2830265937373 37.835466482676566,136.81132771540433 38.981395992450416,139.23113767593168 40.38197650341317,141.01415542466566 44.71104353899136,145.34434097376652 46.23894955124706,146.6179248476401 47.63953006314114,147.0 49.167436075396836,146.74528323253617 50.82266758941114,145.72641614126042 51.96859709825367,144.32547383848578 52.605224603787065,142.92453147447668 52.85987560544163,141.52358904946595 52.73255010461435,140.63208020105958 51.96859709825367,138.3396287644282 51.20464409189299,137.32076140656136 49.42208707751706,136.1745355904568 48.276157568674535,134.77359287044965 46.11162405088544,132.48114101495594 45.220345543231815,131.08019813382998 44.71104353899136,129.55189673881978 44.32906703557819,129.55189673881978 44.71104353899136,124.8396336468868 43.692439530510455,121.14623776613735 43.05581202544272,115.41510538454168 42.546510021202266,114.52359581063502 40.891278507653624,112.1037839858327 40.509302004706115,111.46699136984535 40.63662750599906,110.95755726774223 41.01860400894657,110.19340610015206 40.891278507653624,109.30189638095908 39.23604699410498,106.62736707506701 36.562211472541094,104.46227175928652 36.05290946830064,103.95283754612319 36.05290946830064,103.18868621089496 36.562211472541094,101.53302492224611 36.43488597078249,100.64151496207342 35.41628196276724,99.62264640582725 34.397677954752,97.96698493277654 30.95988942636177,94.01886876719072 30.19593642000109,93.50943438778631 29.686634416226298,93.38207579148002 28.795355909038335,93.50943438778631 27.90407740138471,94.01886876719072 27.14012439502403,95.03773750178516 27.14012439502403,95.67453044443391 27.394775397144258,96.43868195870891 29.81395991705358,98.73113639256917 31.469191430602223,99.75000497722067 33.25174844497815,99.36792926187627 34.01570145133883,98.98585354187526 34.270352453459054,98.47641924163327 34.397677954752,97.71226777555421 34.270352453459054,97.07547487341799 34.01570145133883,96.56604054267518 32.10581893566996,95.16509609110653 29.304657912813127,93.8915101729799 28.031402902677655,93.76415157853626 27.267449896782637,94.14622736093588 27.14012439502403,94.65566173009574 27.267449896782637,95.29245468019508 28.922681409865618,97.33019203599542 29.304657912813127,98.85849496768788 30.57791292341426,100.13208068837412 31.469191430602223,100.25943925743923 33.37907394627109,99.11321211559698 34.01570145133883,98.34906066511758 33.888375950511545,96.82075770921074 32.86977194203064,95.41981326905079 30.832563925534487,94.27358595374972 29.43198341410607,93.8915101729799 28.286053904797882,94.14622736093588 27.776751900091767,94.91037891153246 28.031402902677655,95.80188903119415 29.177332411520183,97.07547487341799 29.686634416226298,98.98585354187526 30.068610919173807,99.62264640582725 31.214540428947657,100.51415639440529 32.48779543861747,100.64151496207342 33.124422944150865,100.13208068837412 33.76105044968426,97.58490919624455 32.742446441203356,95.80188903119415 31.469191430602223,94.14622736093588 30.832563925534487,93.76415157853626 29.81395991705358,93.76415157853626 28.540704906452447,94.01886876719072 27.649426399264485,94.65566173009574 27.394775397144258,95.41981326905079 27.394775397144258,96.31132337450981 28.286053904797882,98.09434351092204 29.304657912813127,98.85849496768788 30.832563925534487,99.36792926187627 32.48779543861747,100.3867978262715 32.99709744332358,100.25943925743923 33.37907394627109,99.87736354791559 33.63372494839132,98.60377781721763 33.506399447098374,96.56604054267518 32.742446441203356,95.29245468019508 30.705238424241543,93.50943438778631 29.81395991705358,93.12735859770328 29.177332411520183,93.12735859770328 28.413379405625165,93.50943438778631 27.90407740138471,94.01886876719072 27.394775397144258,95.03773750178516 27.394775397144258,95.92924761795439 28.031402902677655,96.94811629178002 29.559308914467692,97.8396263543982 30.068610919173807,99.36792926187627 30.705238424241543,100.13208068837412 31.851167933549732,100.51415639440529 33.25174844497815,100.3867978262715 33.506399447098374,99.11321211559698 34.270352453459054,98.22170208813623 34.397677954752,97.33019203599542 33.888375950511545,96.69339912640862 29.43198341410607,93.50943438778631 28.540704906452447,93.0 27.90407740138471,93.2547171949409 27.394775397144258,94.14622736093588 27.14012439502403,95.41981326905079 28.540704906452447,97.20283345505595 29.177332411520183,99.24057068885304 30.57791292341426,100.25943925743923 31.34186592930928,100.51415639440529 31.978493434842676,100.3867978262715 32.61512093991041,100.00472211837769 32.99709744332358,99.36792926187627 32.86977194203064,98.98585354187526 33.37907394627109,98.85849496768788 31.978493434842676,98.47641924163327" stroke="#4dd2ff" stroke-linecap="round" stroke-linejoin="round" stroke-width="0.5"><title>2022-04-09 3.1km</title></polyline><polyline fill="none" points="109.60767352208495,126.86440826021135 110.52269004657865,113.13559470232576 73.00701250135899,103.98305187281221 113.26773962378502,143.33898345194757 122.41790487244725,115.88135747984052 88.56229343637824,96.6610173471272 77.58209513500333,103.06779757235199 115.09777267277241,144.25423759315163 122.41790487244725,117.7118659792468 77.58209513500333,102.15254326444119 116.9278057217598,142.42372930422425 123.33292140066624,114.05084896553308 78.49711165577173,100.32203464116901 114.18275614827871,141.5084751546383 124.24793792888522,116.79661173187196 91.30734300985932,97.57627167738974 77.58209513500333,103.06779757235199 113.26773962378502,142.42372930422425 125.16295445337892,115.88135747984052 89.47730996087193,96.6610173471272 76.66707860678434,102.15254326444119 114.18275614827871,143.33898345194757 125.16295445337892,112.22034043632448 89.47730996087193,93.91525434330106 77.58209513500333,103.06779757235199 116.0127891972661,141.5084751546383 123.33292140066624,114.05084896553308 78.49711165577173,99.40678032301366 114.18275614827871,141.5084751546383 126.07797097787261,115.88135747984052 90.39232648909092,95.74576301779598 77.58209513500333,101.23728895373642 117.84282224625349,141.5084751546383 126.9929875023663,116.79661173187196 79.41212818399072,99.40678032301366 79.41212818399072,114.96610322315246 111.43770657107234,140.59322100132704 122.41790487244725,114.05084896553308 91.30734300985932,95.74576301779598 77.58209513500333,101.23728895373642 115.09777267277241,144.25423759315163 122.41790487244725,116.79661173187196 92.22235953807831,95.74576301779598 78.49711165577173,100.32203464116901 115.09777267277241,140.59322100132704 125.16295445337892,116.79661173187196 92.22235953807831,93.0 76.66707860678434,100.32203464116901 117.84282224625349,147.0 112.35272309556603,103.06779757235199" stroke="#4dd2ff" stroke-linecap="round" stroke-linejoin="round" stroke-width="0.5"><title>2022-01-19 2.1km</title></polyline><polyline fill="none" points="152.52501893416047,131.2153860591352 170.79719487205148,147.0 179.9332828372717,119.58461713045835 143.38893096894026,94.66153867077082 136.74450335279107,112.93846316635609 164.9833207130432,144.50769261457026 174.11940867826343,143.67692348081619 180.76383629068732,120.41538636013865 144.2194844186306,93.8307693367824 137.575056809932,111.27692464087158 164.15276725962758,142.84615434054285 175.7805155813694,141.18461605533957 179.9332828372717,117.09230941813439 152.52501893416047,94.66153867077082 140.0667171627283,97.98461597040296 139.23616370931268,115.43077092710882 166.6444276124239,143.67692348081619 182.4249431937933,120.41538636013865 153.3555723875761,95.49230799917132 140.0667171627283,97.98461597040296 137.575056809932,112.93846316635609 164.9833207130432,142.01538520026952 179.10272938758135,118.75384789612144 143.38893096894026,93.0 136.74450335279107,111.27692464087158 164.9833207130432,142.01538520026952 174.11940867826343,141.18461605533957 179.10272938758135,117.92307865712792 153.3555723875761,94.66153867077082 137.575056809932,98.81538528762758 137.575056809932,112.93846316635609 163.32221380621195,142.01538520026952 175.7805155813694,142.01538520026952 184.08605009689927,120.41538636013865 155.01667929068208,96.32307732850313 139.23616370931268,97.98461597040296 137.575056809932,114.60000167507678 165.81387416273355,141.18461605533957 177.44162248447537,120.41538636013865 150.8639120310545,97.15384664945304 135.91394990682602,101.30769321508706 168.30553451552987,143.67692348081619 179.9332828372717,116.26154017355293 152.52501893416047,94.66153867077082 138.40561025962234,98.81538528762758 140.89727061241865,119.58461713045835 166.6444276124239,144.50769261457026 180.76383629068732,117.92307865712792 149.2028051316738,94.66153867077082 136.74450335279107,98.81538528762758 135.91394990682602,114.60000167507678 164.9833207130432,143.67692348081619 179.10272938758135,117.09230941813439 150.8639120310545,97.15384664945304 137.575056809932,101.30769321508706 167.47498106211424,146.16923087555915 180.76383629068732,118.75384789612144 150.8639120310545,96.32307732850313 137.575056809932,100.47692391090095 136.74450335279107,116.26154017355293 164.9833207130432,144.50769261457026 178.272175937891,119.58461713045835 150.03335858508945,96.32307732850313 137.575056809932,98.81538528762758 139.23616370931268,116.26154017355293 165.81387416273355,145.3384617464617 182.4249431937933,118.75384789612144 140.0667171627283,97.98461597040296 138.40561025962234,115.43077092710882 164.9833207130432,143.67692348081619 175.7805155813694,142.84615434054285 182.4249431937933,119.58461713045835 139.23616370931268,96.32307732850313 139.23616370931268,116.26154017355293 161.66110690683126,143.67692348081619 173.28885522857308,144.50769261457026 163.32221380621195,123.73846324998885 171.62774832174182,132.87692442536354 176.61106903105974,120.41538636013865" stroke="#4dd2ff" stroke-linecap="round" stroke-linejoin="round" stroke-width="0.5"><title>2022-01-10 2.8km</title></polyline><polyline fill="none" points="62.81097131036222,197.11267833877355 43.04146284237504,184.18310231529176 42.28109713084996,192.16901712398976 54.82713135331869,205.85915524559096 60.910057036206126,195.2112702098675 42.28109713084996,185.70422899676487 43.04146284237504,193.69014367926866 55.58749706298113,205.4788736575283 60.14969132654369,194.45070694759488 48.74420566856861,186.08451066352427 43.04146284237504,187.6056373147294 55.20731420814991,205.85915524559096 60.52987417951226,194.45070694759488 47.603657104074955,185.70422899676487 41.900914277881384,187.6056373147294 55.20731420814991,205.85915524559096 60.52987417951226,194.07042531389743 47.983839958906174,185.32394732814282 43.04146284237504,186.84507399238646 54.82713135331869,205.4788736575283 61.29023989289999,195.2112702098675 47.603657104074955,185.70422899676487 42.28109713084996,187.6056373147294 54.82713135331869,207.0 61.29023989289999,194.45070694759488 42.66127998754382,186.08451066352427 42.66127998754382,194.45070694759488 55.20731420814991,206.2394368313253 62.430788457393646,194.83098857896402 42.28109713084996,186.84507399238646 42.28109713084996,193.69014367926866 54.44694849848747,205.4788736575283 60.52987417951226,194.45070694759488 43.80182855203748,185.32394732814282 42.28109713084996,192.5492987660691 51.025302801281214,200.15493126725778 58.62895990535617,193.30986204231158 43.80182855203748,185.32394732814282 41.900914277881384,192.92958040488884 54.06676564179361,205.4788736575283 58.62895990535617,205.09859206760302 61.67042274773121,194.83098857896402 48.74420566856861,185.32394732814282 42.28109713084996,187.6056373147294 55.58749706298113,207.0 60.14969132654369,194.45070694759488 47.223474249243736,185.70422899676487 41.900914277881384,187.9859189740382 55.96767991781235,207.0 60.910057036206126,195.2112702098675 43.42164569720626,185.70422899676487 41.900914277881384,192.16901712398976 49.124388525262475,202.43662089901045 57.86859419569373,206.2394368313253 61.67042274773121,195.2112702098675 45.702742828056216,184.94366565952078 41.900914277881384,195.2112702098675 56.72804562933743,207.0 59.00914276018739,193.30986204231158 45.702742828056216,183.04225728753954 39.619817147031426,167.830988955684 17.18902868963778,153.0" stroke="#4dd2ff" stroke-linecap="round" stroke-linejoin="round" stroke-width="0.5"><title>2022-01-04 2.5km</title></polyline><polyline fill="none" points="93.57309827208519,195.00000117067248 109.85458266362548,207.0 119.28070520982146,183.85714451409876 81.5762150362134,158.1428577248007 76.43469364568591,175.28571592550725 102.99922081455588,205.28571449313313 119.28070520982146,182.14285882376134 82.4331352636218,156.42857183050364 76.43469364568591,171.8571443958208 101.28538035228848,204.42857173550874 120.13762544095516,178.71428740303963 94.43001850321889,154.71428592316806 83.2900554947555,157.2857147809118 80.71929480135441,174.42857304867357 102.99922081455588,205.28571449313313 121.85146589949727,182.14285882376134 81.5762150362134,157.2857147809118 79.00545433908701,173.57143016625196 101.28538035228848,203.57142897509038 111.56842312589288,203.57142897509038 120.99454566836357,179.57143026217818 84.1469757296145,155.5714288773015 79.86237457022071,171.8571443958208 101.28538035228848,204.42857173550874 123.56530636921525,181.2857159730047 95.2869387306273,154.71428592316806 81.5762150362134,157.2857147809118 78.14853410795331,172.71428728289902 101.28538035228848,203.57142897509038 121.85146589949727,182.14285882376134 84.1469757296145,153.0 77.29161387681961,171.0000015022233 102.1423005796969,202.71428620815277 120.99454566836357,179.57143026217818 78.14853410795331,157.2857147809118 77.29161387681961,173.57143016625196 101.28538035228848,204.42857173550874 111.56842312589288,203.57142897509038 120.99454566836357,178.71428740303963 92.7161780372262,156.42857183050364 79.86237457022071,159.0000006686896 102.1423005796969,203.57142897509038 120.99454566836357,181.2857159730047 91.8592578060925,153.85714296158403 79.86237457022071,156.42857183050364 77.29161387681961,173.57143016625196 102.99922081455588,204.42857173550874 121.85146589949727,179.57143026217818 80.71929480135441,156.42857183050364 77.29161387681961,172.71428728289902 100.42846012115479,202.71428620815277 112.42534335702658,203.57142897509038 124.42222659289837,181.2857159730047 82.4331352636218,153.0 75.57777341082692,173.57143016625196 101.28538035228848,201.85714344028383 113.28226359188557,201.85714344028383 117.56686474755406,180.4285731203854" stroke="#4dd2ff" stroke-linecap="round" stroke-linejoin="round" stroke-width="0.5"><title>2021-12-13 2.2km</title></polyline><polyline fill="none" points="172.3228920842521,161.04969821253326 169.80801614839584,158.3664658170892 166.28718983847648,161.72050625807606 165.28123946487904,161.80435726209544 166.11953144334257,160.88199619785883 158.9940496259369,161.6366552534746 159.66468320880085,160.0434861043468 154.97024812921882,164.23603623791132 144.9107443871908,156.4378923213808 138.95887133991346,156.354041295941 143.56947722146288,170.3571579353884 149.3536918736063,176.8975325790234 152.03622620459646,183.01865060033742 151.78473861096427,192.40995151060633 153.12600577669218,195.7639865379315 149.18603347754106,198.78261760692112 151.8685678089969,203.39441424130928 151.44942181929946,205.57453593646642 150.0243254560046,202.2205024661962 160.50297518726438,205.07143094972707 154.04812695272267,202.63975667906925 148.7668874883093,204.31677344755735 148.01242470787838,206.41304422088433 146.75498673971742,206.41304422088433 149.10220427950844,207.0 146.0005239592865,204.31677344755735 148.93454588390887,201.80124824505765 161.00595037452877,204.65217678516638 162.68253433145583,206.24534256651532 163.77231390355155,204.40062428230885 165.86804384971038,203.89751926786266 144.9945735852234,165.74535408208612 141.80906406696886,157.19255153648555 145.2460611788556,157.5279556233436 147.67710791621357,154.67702071473468 148.85071668587625,155.93478616315406 149.01837508194149,153.0 146.41966994851828,154.92857381049544 148.09625390544534,153.5869572655065 157.7366116582416,162.1397612754954 159.2455372195691,161.13354921911377 163.1855095187202,162.47516528354026 169.5565285552293,158.61801886861213 173.58033005194739,160.96584720525425 178.27476513152942,153.83851037418935 181.0411286605522,154.00621244497597" stroke="#4dd2ff" stroke-linecap="round" stroke-linejoin="round" stroke-width="0.5"><title>2021-11-30 3.6km</title></polyline><polyline fill="none" points="66.83359013858717,257.463774657459 65.72419106308371,256.99215692211874 59.34514637896791,251.85984420400928 51.745762711856514,248.58625897596357 45.69953775033355,247.03269256459316 45.144838212640025,247.58753775141668 43.23112480726559,247.08817708530114 39.62557781196665,243.70362051116535 23.594761170912534,232.6621867424983 23.01232665637508,231.16410140538937 23.123266563750803,230.3595739605953 21.791987673263066,230.3595739605953 21.570107858162373,230.83119350855122 19.961479198769666,229.97118136743666 14.497688751900569,224.7833639201417 13.582434514537454,222.89688388066133 13.499229583889246,223.86786631838186 13.0,224.0065780840523 13.665639445185661,224.64465217015822 15.468412942951545,222.56397558478056 14.553158705704845,221.84267422187258 14.580893682548776,222.25880963282543 13.9152542372467,221.03814568946837 14.331278890487738,222.17558255261974 17.825885978410952,226.30919298619847 21.070878274273127,229.1389114514459 21.459167950670235,230.66473955407855 23.067796610062942,230.41505861491896 23.067796610062942,231.05313210823806 23.89984591677785,231.82991715086973 33.52388289675582,238.7932363122527 33.71802773489617,239.70873193553416 39.65331278881058,243.9533009705774 42.676425269572064,246.97720804344863 45.39445300458465,248.00367161244503 50.99691833590623,249.14110403854284 58.707241910509765,252.16500885007554 67.0,258.96185431053163" stroke="#4dd2ff" stroke-linecap="round" stroke-linejoin="round" stroke-width="0.5"><title>2021-11-29 5.7km</title></polyline><polyline fill="none" points="127.0,259.66179583373014 124.6424778761575,258.25966137455544 125.34336283197626,256.7937932682689 124.89734513277654,253.83018953731516 125.27964601770509,253.38405554718338 115.69026548683178,245.73604041454382 112.91858407086693,244.11083625507308 105.62300884968136,241.11536105413688 98.48672566364985,239.36268887203187 98.45486725668889,238.62975311791524 96.86194690258708,238.31108537770342 95.30088495579548,237.32321530213812 92.1150442478247,233.78600209066644 73.0,220.33820416621165 73.19115044246428,221.8678126609302 91.95575221232139,234.9013397594099 95.5876106194919,238.47041924943915 98.70973451330792,239.61762303160504 104.89026548678521,240.98789399926318 114.25663716823328,244.7481712590088 123.46371681417804,252.2049870249466" stroke="#4dd2ff" stroke-linecap="round" stroke-linejoin="round" stroke-width="0.5"><title>2021-11-08 4.6km</title></polyline><polyline fill="none" points="140.41931302659214,230.33844267757377 146.01879455603193,235.55430644896114 149.20349967607763,237.0595551521401 149.30848995456472,238.00471118360292 157.39274141285568,244.79582932591438 158.65262475702912,243.81566826661583 159.5975372651592,244.13072004757123 160.6474400520092,242.94052437192295 161.41736876231153,243.08054740086664 163.9371354506584,244.86584082606714 165.93195074552204,245.4259328066837 172.26636422565207,250.04669029533397 179.30071289709304,251.83198231569258 184.86519766703714,250.8868277615402 185.2151652625762,251.86698803806212 184.93519118614495,253.37223396578338 185.7401166560594,252.9521653605625 185.35515230090823,252.6021081742365 187.0,252.6021081742365 185.56513285823166,251.9369994821609 185.8451069346629,252.84714820614317 185.42514581989963,252.77713676908752 186.75502268329728,253.02217679622117 184.86519766703714,253.26721681642812 184.02527543751057,257.5029075248167 183.08036292961333,259.1131695775548 181.99546338315122,265.8342602098128 178.25081011024304,265.5892205364653 176.15100453665946,266.6743961813627 174.92611795221455,266.42935653124005 170.6915100455517,262.2636814446305 170.7965003241552,261.4935564248008 170.1315618926892,260.6534199634334 170.30654569040053,258.8681297188159 173.24627349327784,256.1026794152567 165.96694750490133,255.75262235337868 165.7219701880822,254.0023368364782 163.5171743358951,250.8868277615402 159.45755022694357,246.54611666180426 149.23849643557332,237.86468807421625 149.20349967607763,237.16457249392988 147.87362281267997,236.81451468309388 145.87880751793273,235.37927751330426 137.79455605952535,227.81802417960716 137.68956578103825,226.87286705704173 134.7498379779281,222.5671499935561 134.81983149703592,221.4819689381984 134.1548930653371,220.8168579026824 135.55476344772615,218.96154790610308 134.95981853525154,218.47146595496451 134.88982501626015,216.5811496017268 133.0,215.35594434093218 133.27997407643124,214.06072716531344 133.83992222941015,213.81568605656503 133.20998055743985,213.3256038185791" stroke="#4dd2ff" stroke-linecap="round" stroke-linejoin="round" stroke-width="0.5"><title>2021-07-04 5.1km</title></polyline></svg>