<?xml version="1.0" encoding="utf-8" ?>
<svg baseProfile="full" height="300mm" version="1.1" viewBox="0,0,200,300" width="200mm" xmlns="http://www.w3.org/2000/svg" xmlns:ev="http://www.w3.org/2001/xml-events" xmlns:xlink="http://www.w3.org/1999/xlink"><defs /><rect fill="#222222" height="300" width="200" x="0" y="0" /><text fill="#FFFFFF" style="font-size:12px; font-family:Arial; font-weight:bold;" x="10" y="20">Over 2km Runs</text><text fill="#FFFFFF" style="font-size:4px; font-family:Arial" x="10" y="280">ATHLETE</text><text fill="#FFFFFF" style="font-size:9px; font-family:Arial" x="10" y="290">WonSikin</text><text fill="#FFFFFF" style="font-size:4px; font-family:Arial" x="120" y="280">STATISTICS</text><text fill="#FFFFFF" style="font-size:3px; font-family:Arial" x="120" y="285">Number: 17</text><text fill="#FFFFFF" style="font-size:3px; font-family:Arial" x="120" y="290">Weekly: 1.4</text><text fill="#FFFFFF" style="font-size:3px; font-family:Arial" x="141" y="285">Total: 58.0 km</text><text fill="#FFFFFF" style="font-size:3px; font-family:Arial" x="141" y="290">Avg: 3.4 km</text><text fill="#FFFFFF" style="font-size:3px; font-family:Arial" x="167" y="285">Min: 2.1 km</text><text fill="#FFFFFF" style="font-size:3px; font-family:Arial" x="167" y="290">Max: 5.7 km</text><polyline fill="none" points="49.19303161278367,60.67105359211564 51.324056923389435,59.25000101979822 51.324056923389435,58.53947473037988 38.53790504857898,42.19736927188933 24.331069637089968,32.96052639558911 19.358677241951227,32.96052639558911 15.80696838721633,35.802631945349276 15.096626620739698,45.03947467636317 16.51731016114354,48.592106368392706 38.53790504857898,69.90789503697306 42.089613903313875,70.61842128168792 45.64132275804877,69.90789503697306 49.9033733792603,62.802632429637015 52.74474046379328,56.407895841635764 52.034398693591356,51.43421167135239 39.95858859270811,41.48684291355312 25.04141141101718,32.96052639558911 19.358677241951227,32.25 15.096626620739698,34.38157917652279 12.965601310133934,38.64473745319992 12.965601310133934,42.90789562650025 15.80696838721633,49.30263269878924 19.358677241951227,52.144737989641726 29.30346203222871,56.407895841635764 34.98619619756937,66.3552637686953 39.24824682250619,69.90789503697306 44.22063921391964,69.90789503697306 49.19303161278367,64.93421124201268 51.324056923389435,59.25000101979822 51.324056923389435,53.565790618769825 49.19303161278367,49.30263269878924 28.593120262026787,35.802631945349276 20.77936078608036,32.96052639558911 16.51731016114354,35.09210556373 14.386284850537777,38.64473745319992 14.386284850537777,43.61842198111117 16.51731016114354,49.30263269878924 20.06901901215315,54.27631692867726 35.69653796777129,67.77631628513336 41.379272133111954,70.61842128168792 44.93098098784685,69.90789503697306 49.9033733792603,59.96052730921656 49.9033733792603,54.27631692867726 49.19303161278367,51.43421167135239 44.93098098784685,47.17105370014906 31.434487342834473,37.93421107996255 24.331069637089968,33.67105278838426 17.227651931345463,34.38157917652279 12.965601310133934,39.35526382178068 12.965601310133934,45.750001021660864 14.386284850537777,48.592106368392706 16.51731016114354,52.144737989641726 27.882778488099575,58.53947473037988 35.69653796777129,71.3289475236088 41.379272133111954,72.03947376366705 44.93098098784685,70.61842128168792 47.062006298452616,67.06579002924263 49.9033733792603,59.25000101979822 49.9033733792603,53.565790618769825 45.64132275804877,47.17105370014906 26.462094951421022,35.802631945349276 20.77936078608036,33.67105278838426 17.227651931345463,34.38157917652279 14.386284850537777,37.223684704862535 12.965601310133934,40.06579018943012 14.386284850537777,47.17105370014906 17.937993701547384,51.43421167135239 27.882778488099575,56.407895841635764 32.144829113036394,63.51315870322287 47.062006298452616,67.06579002924263 49.9033733792603,59.25000101979822 49.9033733792603,54.27631692867726 48.48268983885646,50.01315902452916 43.51029744371772,45.03947467636317 30.01380380243063,36.51315832789987 24.331069637089968,33.67105278838426 18.648335471749306,35.09210556373 16.51731016114354,37.223684704862535 15.096626620739698,41.48684291355312 15.096626620739698,47.17105370014906 17.227651931345463,49.30263269878924 28.593120262026787,57.82894843816757 37.827563278377056,69.19736878853291 41.379272133111954,70.61842128168792 44.93098098784685,68.48684253823012 47.77234806865454,64.93421124201268 50.61371514946222,57.11842214129865 49.9033733792603,50.72368535026908 44.93098098784685,45.03947467636317 30.01380380243063,35.09210556373 25.75175317749381,33.67105278838426 15.096626620739698,38.64473745319992 15.096626620739698,47.17105370014906 15.80696838721633,49.30263269878924 19.358677241951227,52.85526430606842 28.593120262026787,55.69736954104155 30.72414557263255,57.82894843816757 32.144829113036394,64.93421124201268 34.27585442736745,68.48684253823012 37.827563278377056,70.61842128168792 42.089613903313875,71.3289475236088 44.93098098784685,69.19736878853291 47.77234806865454,64.22368497401476 49.19303161278367,54.98684323579073 47.062006298452616,48.592106368392706 40.66893036291003,43.61842198111117 29.30346203222871,35.802631945349276 22.910386096686125,33.67105278838426 17.227651931345463,34.38157917652279 14.386284850537777,39.35526382178068 14.386284850537777,45.03947467636317 17.227651931345463,50.01315902452916 28.593120262026787,55.69736954104155 30.72414557263255,58.53947473037988 34.98619619756937,67.06579002924263 37.827563278377056,69.90789503697306 42.089613903313875,72.03947376366705 44.93098098784685,70.61842128168792 52.034398693591356,53.565790618769825 49.19303161278367,48.592106368392706 42.089613903313875,42.90789562650025 30.72414557263255,36.51315832789987 23.620727866888046,33.67105278838426 17.227651931345463,35.09210556373 15.096626620739698,36.51315832789987 12.965601310133934,40.06579018943012 12.965601310133934,45.03947467636317 15.096626620739698,48.592106368392706 19.358677241951227,52.144737989641726 28.593120262026787,56.407895841635764 35.69653796777129,67.77631628513336 38.53790504857898,69.90789503697306 42.089613903313875,70.61842128168792 47.062006298452616,67.06579002924263 50.61371514946222,57.82894843816757 50.61371514946222,53.565790618769825 49.19303161278367,50.01315902452916 45.64132275804877,47.17105370014906 28.593120262026787,35.802631945349276 19.358677241951227,33.67105278838426 15.096626620739698,35.09210556373 12.255259536206722,40.776316554285586 14.386284850537777,48.592106368392706 17.227651931345463,51.43421167135239 24.331069637089968,55.69736954104155 32.144829113036394,66.3552637686953 37.827563278377056,42.90789562650025 20.77936078608036,32.96052639558911 16.51731016114354,32.96052639558911 12.965601310133934,38.64473745319992 12.965601310133934,42.19736927188933 15.80696838721633,47.88158003613353 28.593120262026787,55.69736954104155 30.72414557263255,58.53947473037988 35.69653796777129,67.77631628513336 41.379272133111954,70.61842128168792 45.64132275804877,69.90789503697306 51.324056923389435,58.53947473037988 51.324056923389435,54.98684323579073 50.61371514946222,51.43421167135239 44.93098098784685,45.750001021660864 28.593120262026787,35.802631945349276 22.200044326484203,32.96052639558911 18.648335471749306,32.96052639558911 15.80696838721633,35.09210556373 13.675943076610565,40.06579018943012 14.386284850537777,45.03947467636317 15.80696838721633,48.592106368392706 27.882778488099575,55.69736954104155 32.855170886963606,66.3552637686953 37.117221511900425,69.90789503697306 42.089613903313875,71.3289475236088 45.64132275804877,70.61842128168792 52.034398693591356,57.11842214129865 52.034398693591356,54.27631692867726 50.61371514946222,51.43421167135239 42.7999556735158,45.03947467636317 26.462094951421022,35.802631945349276 19.358677241951227,33.67105278838426 15.096626620739698,35.09210556373 12.965601310133934,38.64473745319992 14.386284850537777,46.460527362301946 18.648335471749306,51.43421167135239 28.593120262026787,56.407895841635764 34.98619619756937,67.77631628513336 37.827563278377056,70.61842128168792 43.51029744371772,72.03947376366705 47.77234806865454,69.19736878853291 52.74474046379328,57.82894843816757 52.74474046379328,54.27631692867726 49.19303161278367,50.01315902452916 30.72414557263255,37.93421107996255 22.910386096686125,34.38157917652279 17.227651931345463,35.09210556373 13.675943076610565,39.35526382178068 13.675943076610565,44.32894833013415 15.80696838721633,48.592106368392706 26.462094951421022,55.69736954104155 34.27585442736745,70.61842128168792 39.24824682250619,72.03947376366705 44.93098098784685,70.61842128168792 52.034398693591356,56.407895841635764 52.034398693591356,52.144737989641726 49.9033733792603,50.01315902452916 41.379272133111954,45.03947467636317 28.593120262026787,35.802631945349276 22.910386096686125,32.96052639558911 18.648335471749306,32.96052639558911 16.51731016114354,34.38157917652279 12.965601310133934,38.64473745319992 12.255259536206722,41.48684291355312 13.675943076610565,48.592106368392706 18.648335471749306,52.85526430606842 25.04141141101718,54.27631692867726 28.593120262026787,56.407895841635764 34.27585442736745,66.3552637686953 37.827563278377056,69.19736878853291 41.379272133111954,69.90789503697306 44.93098098784685,68.48684253823012 47.062006298452616,65.64473750628531 50.61371514946222,56.407895841635764 49.19303161278367,50.72368535026908 45.64132275804877,47.88158003613353 30.01380380243063,37.93421107996255 23.620727866888046,35.09210556373 19.358677241951227,34.38157917652279 16.51731016114354,35.802631945349276 12.965601310133934,40.776316554285586 12.965601310133934,45.750001021660864 15.096626620739698,48.592106368392706 27.882778488099575,56.407895841635764 33.56551265716553,67.06579002924263 43.51029744371772,72.03947376366705 47.77234806865454,66.3552637686953 51.324056923389435,57.11842214129865 50.61371514946222,50.01315902452916 46.351664528250694,45.750001021660864 32.855170886963606,38.64473745319992 20.06901901215315,33.67105278838426 15.80696838721633,35.09210556373 12.965601310133934,40.776316554285586 12.965601310133934,45.750001021660864 14.386284850537777,48.592106368392706 17.937993701547384,51.43421167135239 24.331069637089968,53.565790618769825 27.882778488099575,55.69736954104155 29.30346203222871,57.82894843816757 32.144829113036394,66.3552637686953 34.27585442736745,69.19736878853291 41.379272133111954,72.75 44.22063921391964,72.03947376366705 47.062006298452616,69.19736878853291 52.74474046379328,57.11842214129865 51.324056923389435,52.144737989641726 47.062006298452616,48.592106368392706 37.827563278377056,44.32894833013415 23.620727866888046,32.25 17.227651931345463,33.67105278838426 13.675943076610565,38.64473745319992 13.675943076610565,45.03947467636317 17.227651931345463,50.01315902452916" stroke="#4dd2ff" stroke-linecap="round" stroke-linejoin="round" stroke-width="0.5"><title>2022-05-06 3.4km</title></polyline><polyline fill="none" points="80.15504790097475,61.46311574243009 77.50000000372529,61.46311574243009 72.85366617888212,57.47950935084373 62.897236563265324,53.495902865193784 60.24218866601586,50.17623072117567 58.250902742147446,46.856558511033654 58.250902742147446,43.536886234767735 59.57842668890953,39.55327941477299 62.897236563265324,35.56967250071466 68.20733236148953,34.241803508251905 73.51742815598845,36.23360699415207 92.76652541384101,49.512296283617616 95.42157331109047,53.495902865193784 95.42157331109047,57.47950935084373 90.77523948997259,70.09426259528846 88.12019159272313,72.75 82.81009579822421,72.08606565184891 78.82752395048738,69.43032823875546 77.50000000372529,66.77459078188986 77.50000000372529,62.12705013062805 75.50871407985687,59.471312559209764 66.87980841100216,55.48770611919463 62.897236563265324,52.16803401429206 60.905950643122196,47.52049295697361 60.905950643122196,42.20901730470359 62.897236563265324,38.22541045490652 66.87980841100216,34.90573800727725 72.18990420922637,34.90573800727725 86.79266764596105,44.86475515272468 94.09404936432838,51.504099586978555 95.42157331109047,54.823771703988314 95.42157331109047,58.80737815797329 93.43028738722205,66.11065641138703 90.11147751659155,72.08606565184891 86.79266764596105,72.75 83.47385777160525,72.08606565184891 73.51742815598845,57.47950935084373 63.560998536646366,50.840165155008435 61.56971261277795,44.86475515272468 63.560998536646366,38.22541045490652 67.5435703843832,34.90573800727725 74.1811901293695,36.23360699415207 93.43028738722205,51.504099586978555 94.75781133770943,58.80737815797329 90.77523948997259,68.76639387849718 86.12890566885471,71.4221313027665 82.14633382111788,70.09426259528846 77.50000000372529,65.4467220371589 74.1811901293695,58.80737815797329 63.560998536646366,51.504099586978555 61.56971261277795,46.856558511033654 62.897236563265324,38.22541045490652 68.20733236148953,34.241803508251905 72.85366617888212,34.241803508251905 90.11147751659155,46.856558511033654 94.75781133770943,52.83196844160557 95.42157331109047,58.14344375580549 92.76652541384101,68.10245951637626 88.78395356610417,72.08606565184891 83.47385777160525,71.4221313027665 80.15504790097475,67.43852515053004 74.84495210275054,59.471312559209764 64.2247605137527,52.16803401429206 61.56971261277795,46.192624061368406 62.897236563265324,38.88934493530542 66.87980841100216,34.90573800727725 72.85366617888212,35.56967250071466 89.4477155432105,47.52049295697361 92.10276344045997,50.17623072117567 93.43028738722205,54.823771703988314 91.43900146707892,63.45491890143603 87.45642961934209,68.76639387849718 84.13761974871159,70.75819695089012 82.14633382111788,70.09426259528846 78.16376197710633,66.77459078188986 73.51742815598845,57.47950935084373 64.88852248713374,52.16803401429206 60.905950643122196,48.18442740291357 60.905950643122196,40.881148365326226 62.897236563265324,36.23360699415207 67.5435703843832,34.241803508251905 73.51742815598845,35.56967250071466 91.43900146707892,48.18442740291357 94.09404936432838,52.16803401429206 94.09404936432838,55.48770611919463 87.45642961934209,70.75819695089012 84.13761974871159,72.08606565184891 82.14633382111788,72.08606565184891 78.16376197710633,68.76639387849718 74.84495210275054,58.14344375580549 66.87980841100216,53.495902865193784 62.897236563265324,49.512296283617616 62.23347458988428,42.20901730470359 63.560998536646366,38.22541045490652 67.5435703843832,34.90573800727725 72.85366617888212,34.90573800727725 88.12019159272313,46.192624061368406 92.10276344045997,50.17623072117567 93.43028738722205,55.48770611919463 90.77523948997259,65.4467220371589 86.12890566885471,70.09426259528846 81.48257184773684,69.43032823875546 72.85366617888212,56.81557494215667 61.56971261277795,48.848361844196916 60.905950643122196,46.192624061368406 60.905950643122196,39.55327941477299 65.55228446051478,34.241803508251905 72.18990420922637,34.241803508251905 92.10276344045997,48.848361844196916 94.09404936432838,52.83196844160557 94.09404936432838,58.14344375580549 92.76652541384101,62.79098451696336 89.4477155432105,68.10245951637626 86.79266764596105,70.09426259528846 83.47385777160525,70.09426259528846 80.15504790097475,68.10245951637626 74.1811901293695,56.81557494215667 62.897236563265324,48.848361844196916 61.56971261277795,46.856558511033654 62.23347458988428,38.88934493530542 66.87980841100216,34.241803508251905 72.85366617888212,33.57786900922656 92.76652541384101,49.512296283617616 94.75781133770943,53.495902865193784 94.75781133770943,57.47950935084373 92.10276344045997,64.78278766106814 88.78395356610417,68.10245951637626 84.13761974871159,68.10245951637626 80.15504790097475,65.4467220371589 73.51742815598845,56.81557494215667 64.2247605137527,49.512296283617616 62.23347458988428,43.536886234767735 64.2247605137527,37.56147596985102 68.20733236148953,34.90573800727725 73.51742815598845,35.56967250071466 86.12890566885471,44.86475515272468 92.76652541384101,50.840165155008435 94.09404936432838,56.81557494215667 89.4477155432105,69.43032823875546 87.45642961934209,71.4221313027665 83.47385777160525,71.4221313027665 78.82752395048738,66.77459078188986 74.1811901293695,57.47950935084373 65.55228446051478,52.16803401429206 62.23347458988428,48.848361844196916 60.905950643122196,44.86475515272468 60.905950643122196,39.55327941477299 61.56971261277795,37.56147596985102 65.55228446051478,34.90573800727725 71.52614223212004,34.90573800727725 92.76652541384101,50.17623072117567 94.75781133770943,54.15983728598803 94.75781133770943,58.80737815797329 90.77523948997259,70.09426259528846 88.12019159272313,72.08606565184891 85.46514369547367,72.75 82.14633382111788,71.4221313027665 78.16376197710633,67.43852515053004 74.84495210275054,57.47950935084373 71.52614223212004,54.823771703988314 63.560998536646366,52.16803401429206 60.905950643122196,48.848361844196916 59.57842668890953,44.20082069374621 61.56971261277795,38.88934493530542 64.88852248713374,36.23360699415207 71.52614223212004,36.23360699415207 90.11147751659155,48.18442740291357 95.42157331109047,54.15983728598803 96.08533528447151,60.79918134957552 94.09404936432838,67.43852515053004 88.78395356610417,72.08606565184891 82.81009579822421,71.4221313027665 80.15504790097475,68.76639387849718 75.50871407985687,58.14344375580549 64.88852248713374,51.504099586978555 62.23347458988428,48.848361844196916 60.905950643122196,40.881148365326226 61.56971261277795,37.56147596985102 64.88852248713374,33.57786900922656 68.20733236148953,33.57786900922656 73.51742815598845,35.56967250071466 88.78395356610417,46.856558511033654 94.09404936432838,52.83196844160557 94.75781133770943,54.823771703988314 94.75781133770943,59.471312559209764 92.76652541384101,67.43852515053004 88.78395356610417,72.75 84.13761974871159,72.08606565184891 80.15504790097475,69.43032823875546 75.50871407985687,56.81557494215667 66.21604643762112,52.16803401429206 61.56971261277795,47.52049295697361 60.905950643122196,40.881148365326226 62.897236563265324,36.89754148386419 65.55228446051478,34.241803508251905 68.20733236148953,32.913934506475925 73.51742815598845,34.241803508251905 88.78395356610417,46.192624061368406 94.09404936432838,52.16803401429206 95.42157331109047,57.47950935084373 92.76652541384101,67.43852515053004 90.11147751659155,70.75819695089012 88.12019159272313,71.4221313027665 82.14633382111788,69.43032823875546 61.56971261277795,48.848361844196916 60.24218866601586,42.20901730470359 62.897236563265324,35.56967250071466 66.87980841100216,33.57786900922656 73.51742815598845,34.90573800727725 92.76652541384101,50.17623072117567 96.74909726157784,55.48770611919463 95.42157331109047,64.78278766106814 92.10276344045997,70.75819695089012 88.78395356610417,72.75 83.47385777160525,70.75819695089012 80.8188098743558,67.43852515053004 78.82752395048738,61.46311574243009 75.50871407985687,56.81557494215667 65.55228446051478,52.16803401429206 62.23347458988428,48.18442740291357 60.905950643122196,44.86475515272468 60.905950643122196,38.22541045490652 64.2247605137527,32.913934506475925 69.53485630825162,32.25 73.51742815598845,33.57786900922656 82.81009579822421,42.87295177113265 91.43900146707892,48.848361844196916 94.09404936432838,52.16803401429206 96.08533528447151,58.14344375580549 92.76652541384101,68.76639387849718 89.4477155432105,72.08606565184891 84.80138172209263,72.08606565184891 82.14633382111788,69.43032823875546 76.17247605323792,56.81557494215667 62.897236563265324,50.17623072117567 59.57842668890953,43.536886234767735 61.56971261277795,38.22541045490652 66.21604643762112,33.57786900922656 71.52614223212004,34.241803508251905 85.46514369547367,45.528689607046545 92.10276344045997,49.512296283617616 96.74909726157784,54.15983728598803 96.74909726157784,58.14344375580549 96.08533528447151,61.46311574243009 92.76652541384101,68.76639387849718 88.78395356610417,72.75 85.46514369547367,72.75 82.14633382111788,70.75819695089012 77.50000000372529,64.11885328218341 78.16376197710633,60.79918134957552" stroke="#4dd2ff" stroke-linecap="round" stroke-linejoin="round" stroke-width="0.5"><title>2022-05-04 3.3km</title></polyline><polyline fill="none" points="122.86976650403813,71.39383733225986 121.39070048811845,70.71575595391914 121.39070048811845,70.46918089967221 122.06860574544407,69.48288064438384 122.43837224971503,69.48288064438384 123.48604401107877,70.09931831143331 124.10232151765376,70.59246842726134 124.34883252065629,71.02397476590704 124.34883252065629,71.76369988988154 124.22557701915503,71.94863116519991 123.8558105151169,72.19520619581454 123.48604401107877,72.31849370955024 123.05464975629002,72.19520619581454 122.56162775075063,71.64041237160563 122.1302334961947,71.2089060501894 121.63721149042249,70.59246842726134 121.51395598938689,70.09931831143331 121.63721149042249,69.6061681797728 121.94535024394281,69.48288064438384 122.25348899746314,69.54452441213652 123.5476717618294,70.16096207662486 124.16394926863723,70.77739971678238 124.28720476990566,71.14726228895597 124.28720476990566,71.51712485239841 124.16394926863723,71.76369988988154 123.5476717618294,71.88698740699328 123.11627750704065,71.76369988988154 122.37674449873157,71.08561852760613 121.329072737135,70.53082466381602 121.14418948511593,70.2226058418164 121.14418948511593,69.9143870138796 121.39070048811845,69.48288064438384 121.57558373990469,69.29794933961239 122.00697799469344,69.1746618016623 122.5,69.29794933961239 124.41046027094126,70.65411219070666 124.53371577267535,70.90068724169396 124.53371577267535,71.39383733225986 124.22557701915503,72.2568499527406 123.79418276436627,72.56506873411126 123.36278850957751,72.44178122235462 122.56162775075063,71.88698740699328 121.57558373990469,70.8390434794128 121.329072737135,70.34589337138459 121.329072737135,69.9143870138796 121.57558373990469,69.48288064438384 121.94535024394281,69.29794933961239 122.56162775075063,69.42123687628191 124.28720476990566,70.59246842726134 124.53371577267535,70.90068724169396 124.53371577267535,71.27054981107358 123.97906601661816,72.50342497846577 123.73255501361564,72.75 123.36278850957751,72.688356245053 123.05464975629002,72.38013746612705 122.56162775075063,71.39383733225986 121.69883924140595,70.8390434794128 121.39070048811845,70.53082466381602 121.20581723609939,70.0376745457761 121.39070048811845,69.48288064438384 121.82209474267438,69.1746618016623 122.31511674798094,69.23630557057913 124.34883252065629,70.77739971678238 124.53371577267535,71.14726228895597 124.53371577267535,71.39383733225986 124.34883252065629,72.0719186810311 123.97906601661816,72.56506873411126 123.73255501361564,72.688356245053 123.48604401107877,72.62671248975676 123.11627750704065,72.31849370955024 122.74651100300252,71.57876861223485 122.43837224971503,71.2089060501894 121.69883924140595,70.90068724169396 121.329072737135,70.59246842726134 121.14418948511593,70.16096207662486 121.329072737135,69.6061681797728 121.76046699192375,69.29794933961239 122.31511674798094,69.35959310794715 123.79418276436627,70.34589337138459 124.34883252065629,70.77739971678238 124.53371577267535,71.2089060501894 124.53371577267535,71.45548109244555 124.16394926863723,72.38013746612705 123.79418276436627,72.688356245053 123.36278850957751,72.62671248975676 122.93139425502159,72.38013746612705 121.39070048811845,70.77739971678238 121.14418948511593,70.34589337138459 121.14418948511593,69.85274324740749 121.329072737135,69.48288064438384 121.76046699192375,69.11301803239621 122.31511674798094,69.1746618016623 123.11627750704065,69.85274324740749 124.16394926863723,70.59246842726134 124.47208802192472,70.90068724169396 124.53371577267535,71.27054981107358 124.04069376713596,72.19520619581454 123.73255501361564,72.50342497846577 123.36278850957751,72.44178122235462 123.05464975629002,72.19520619581454 122.56162775075063,71.33219357172493 121.57558373990469,70.77739971678238 121.26744498638436,70.46918089967221 121.14418948511593,69.79109948093537 121.329072737135,69.42123687628191 121.57558373990469,69.1746618016623 122.00697799469344,69.11301803239621 122.68488325201906,69.42123687628191 123.8558105151169,70.28424960654229 124.34883252065629,70.8390434794128 124.47208802192472,71.08561852760613 124.47208802192472,71.51712485239841 124.34883252065629,72.01027492317371 124.10232151765376,72.44178122235462 123.67092726309784,72.56506873411126 123.23953300830908,72.38013746612705 122.5,71.2089060501894 121.57558373990469,70.71575595391914 121.26744498638436,70.40753713564482 121.14418948511593,69.72945571411401 121.39070048811845,69.29794933961239 122.1918612467125,69.23630557057913 123.6092995123472,70.2226058418164 124.53371577267535,71.02397476590704 125.33487653150223,71.51712485239841 125.82789853680879,71.51712485239841 126.32092054234818,71.39383733225986 127.49184780544601,70.65411219070666 127.61510330671445,70.40753713564482 127.61510330671445,70.0376745457761 127.43022005446255,69.54452441213652 127.36859230417758,69.05137426278088 127.55347555596381,68.31164900946897 129.03254157234915,65.66096656117588 129.5255635776557,65.04452871764079 130.08021333394572,63.81165295664687 131.49765159958042,61.53083253989462 131.80579035286792,60.35960030334536 132.79183436417952,58.32535462919623 132.97671761596575,58.07877937774174 133.28485636948608,57.89384793653153 134.45578363211825,57.70891649334226 134.20927262981422,57.58562886307482 134.20927262981422,57.27740978344809 134.70229463512078,55.797958115814254 134.8255501363892,55.18151987926103 134.70229463512078,54.19521864957642 134.57903913361952,53.20891735702753 134.2709003800992,52.34590367425699 133.53136737202294,50.98973921849392 133.34648412000388,50.434944633976556 133.34648412000388,49.75686233723536 133.46973962150514,49.14042385958601 133.46973962150514,48.83220461162273 133.16160086821765,48.58562920882832 131.68253485159948,48.27740994980559 131.68253485159948,47.969190684496425 130.8813740927726,46.982888994622044 129.64881907915697,44.27055902243592 128.47789181605913,42.113023477140814 128.47789181605913,41.743160210433416 129.58719132863916,40.26370705536101 131.06625734479167,37.61301979771815 131.18951284629293,37.181512526702136 131.18951284629293,36.750005243578926 131.00462959427387,36.44178574823309 130.69649084098637,36.256854047998786 129.27905257535167,35.2705516096903 127.49184780544601,34.40753692446742 125.95115403854288,33.48287827963941 123.9174382656347,32.43493174831383 123.17790525755845,32.25 122.31511674798094,32.31164391641505 120.34302872628905,32.86643915204331 117.81629094830714,33.91438565403223 116.76861918671057,34.65411255368963 116.39885268267244,35.085619895602576 115.35118092107587,36.811649141833186 115.04304216778837,37.61301979771815 114.73490341426805,38.16781484277453 114.30350915947929,41.06507753196638 113.93374265544116,42.544530610204674 113.81048715417273,43.46918871218804 113.13258189638145,44.332202890655026 112.5779321405571,44.332202890655026 112.26979338703677,44.08562741603237 112.26979338703677,43.03768160485197 112.02328238426708,41.743160210433416 112.20816563628614,40.88014588726219 113.25583739788271,38.352746520075016 113.25583739788271,37.92123926966451 112.94769864459522,37.181512526702136 112.70118764182553,37.11986862984486 112.26979338703677,37.243156423210166 111.09886612393893,37.85959537571762 110.91398287191987,38.22945873555727 110.85235512116924,38.78425375837833 110.17444986384362,39.77055597200524" stroke="#4dd2ff" stroke-linecap="round" stroke-linejoin="round" stroke-width="0.5"><title>2022-04-28 3.1km</title></polyline><polyline fill="none" points="174.36875127255917,60.45535809639841 173.64572482556105,61.90178659930825 170.0305925756693,61.17857234925032 163.52335453033447,54.669643972069025 152.67795778810978,48.883929662406445 149.0628255419433,43.09821517020464 149.78585198894143,35.86607179418206 152.67795778810978,32.97321436367929 155.57006358727813,32.25 160.63124873116612,34.41964308451861 185.93717446550727,54.669643972069025 185.93717446550727,59.73214384075254 180.15296286717057,71.30357158463448 176.53783061727881,72.75 171.4766454771161,70.58035737089813 167.13848677650094,65.51785780582577 164.2463809773326,58.2857153210789 151.95493133738637,52.50000112783164 148.3397990912199,48.16071536205709 147.6167726404965,43.09821517020464 151.23190489038825,35.86607179418206 155.57006358727813,33.69642872642726 161.35427518188953,35.14285744167864 182.3220422156155,50.33035825844854 185.93717446550727,54.669643972069025 186.6602009125054,58.2857153210789 184.49112156033516,62.6250008456409 180.15296286717057,67.68750049453229 175.8148041702807,69.85714315716177 172.19967192038894,69.1339289387688 161.35427518188953,60.45535809639841 153.4009842388332,50.33035825844854 151.23190489038825,45.267858126200736 151.23190489038825,40.205357854254544 152.67795778810978,37.312500493600965 157.01611648499966,35.14285744167864 162.07730162888765,35.14285744167864 181.5990157686174,48.883929662406445 185.93717446550727,53.94642969314009 186.6602009125054,57.562501057982445 180.15296286717057,68.41071471758187 175.8148041702807,70.58035737089813 171.4766454771161,69.1339289387688 169.30756612494588,67.68750049453229 162.80032807961106,57.562501057982445 150.50887843966484,48.883929662406445 149.0628255419433,45.267858126200736 149.0628255419433,41.651786517351866 151.95493133738637,35.86607179418206 157.01611648499966,34.41964308451861 160.63124873116612,35.14285744167864 183.76809511706233,51.7767868405208 185.93717446550727,58.2857153210789 183.04506866261363,64.07142933178693 177.26085706800222,69.85714315716177 174.36875127255917,71.30357158463448 170.7536190226674,69.85714315716177 168.58453967422247,68.41071471758187 162.80032807961106,56.11607252061367 152.67795778810978,49.60714396182448 151.23190489038825,47.43750105705112 149.78585198894143,41.651786517351866 152.67795778810978,35.86607179418206 158.46216938272119,34.41964308451861 162.07730162888765,35.86607179418206 183.76809511706233,52.50000112783164 185.93717446550727,56.11607252061367 182.3220422156155,65.51785780582577 179.42993642017245,69.85714315716177 176.53783061727881,71.30357158463448 172.92269837111235,70.58035737089813 168.58453967422247,66.2410720391199 163.52335453033447,56.8392867911607 152.67795778810978,51.05357255041599 151.23190489038825,48.883929662406445 149.0628255419433,45.267858126200736 149.0628255419433,40.92857218813151 152.67795778810978,35.14285744167864 157.01611648499966,34.41964308451861 161.35427518188953,35.86607179418206 185.21414801478386,53.94642969314009 185.93717446550727,56.11607252061367 185.21414801478386,61.90178659930825 179.42993642017245,69.85714315716177 175.8148041702807,71.30357158463448 172.19967192038894,70.58035737089813 167.86151322722435,66.2410720391199 161.35427518188953,56.11607252061367 153.4009842388332,51.05357255041599 149.0628255419433,46.71428675018251 149.0628255419433,40.205357854254544 149.78585198894143,37.312500493600965 151.95493133738637,34.41964308451861 155.57006358727813,32.97321436367929 159.1851958334446,34.41964308451861 185.21414801478386,53.22321541234851 185.93717446550727,55.39285824727267 185.21414801478386,61.17857234925032 180.8759893141687,68.41071471758187 176.53783061727881,70.58035737089813 172.19967192038894,69.85714315716177 152.67795778810978,51.05357255041599 150.50887843966484,45.991072439588606 150.50887843966484,40.92857218813151 153.4009842388332,36.589286144822836 155.57006358727813,34.41964308451861 160.63124873116612,35.14285744167864 181.5990157686174,49.60714396182448 186.6602009125054,53.94642969314009 186.6602009125054,59.00892958417535 181.5990157686174,65.51785780582577 180.15296286717057,69.85714315716177 177.26085706800222,72.02678579371423 174.36875127255917,71.30357158463448 167.13848677650094,65.51785780582577 161.35427518188953,57.562501057982445 152.67795778810978,51.05357255041599 150.50887843966484,45.267858126200736 151.95493133738637,38.75892917998135 157.01611648499966,35.14285744167864 160.63124873116612,35.86607179418206 178.70690996572375,45.991072439588606 183.76809511706233,49.60714396182448 186.6602009125054,53.22321541234851 186.6602009125054,57.562501057982445 181.5990157686174,67.68750049453229 179.42993642017245,71.30357158463448 175.8148041702807,72.02678579371423 170.0305925756693,68.41071471758187 162.07730162888765,56.11607252061367 151.95493133738637,48.883929662406445 149.0628255419433,43.82142949104309 149.78585198894143,40.205357854254544 151.23190489038825,37.312500493600965 155.57006358727813,35.14285744167864 160.63124873116612,35.14285744167864 183.76809511706233,51.05357255041599 185.93717446550727,54.669643972069025 185.93717446550727,56.11607252061367 182.3220422156155,66.96428626775742 179.42993642017245,70.58035737089813 175.09177771955729,71.30357158463448 167.13848677650094,65.51785780582577 161.35427518188953,56.8392867911607 151.95493133738637,51.05357255041599 149.0628255419433,45.267858126200736 151.23190489038825,38.75892917998135 154.1240106858313,35.86607179418206 159.90822228044271,35.86607179418206 181.5990157686174,49.60714396182448 185.21414801478386,52.50000112783164 185.93717446550727,56.8392867911607 182.3220422156155,65.51785780582577 177.26085706800222,70.58035737089813 174.36875127255917,70.58035737089813 170.7536190226674,67.68750049453229 164.2463809773326,57.562501057982445 152.67795778810978,51.05357255041599 149.78585198894143,45.991072439588606 151.23190489038825,39.482143519446254 155.57006358727813,35.86607179418206 160.63124873116612,35.86607179418206 183.76809511706233,52.50000112783164 185.21414801478386,56.8392867911607 179.42993642017245,70.58035737089813 176.53783061727881,72.75 173.64572482556105,72.02678579371423 169.30756612494588,67.68750049453229 167.13848677650094,61.17857234925032 151.23190489038825,48.883929662406445 150.50887843966484,45.991072439588606 150.50887843966484,39.482143519446254 151.95493133738637,35.14285744167864 156.29309003427625,33.69642872642726 162.80032807961106,36.589286144822836 185.21414801478386,53.94642969314009 185.21414801478386,60.45535809639841 181.5990157686174,67.68750049453229 179.42993642017245,71.30357158463448 176.53783061727881,72.75 172.19967192038894,71.30357158463448 151.23190489038825,46.71428675018251 149.0628255419433,41.651786517351866 149.78585198894143,38.03571483772248 151.23190489038825,36.589286144822836 155.57006358727813,34.41964308451861 160.63124873116612,35.14285744167864 170.0305925756693,42.37500084657222 181.5990157686174,48.883929662406445 185.93717446550727,52.50000112783164 187.3832273632288,54.669643972069025 187.3832273632288,59.00892958417535 182.3220422156155,69.85714315716177 177.26085706800222,72.75 174.36875127255917,72.75 170.0305925756693,68.41071471758187 164.969407428056,59.00892958417535 151.23190489038825,49.60714396182448 149.0628255419433,45.991072439588606 149.0628255419433,40.92857218813151 151.23190489038825,37.312500493600965 155.57006358727813,34.41964308451861 160.63124873116612,34.41964308451861 184.49112156033516,53.22321541234851 185.93717446550727,59.73214384075254 182.3220422156155,65.51785780582577 176.53783061727881,72.02678579371423 172.19967192038894,72.02678579371423 151.95493133738637,49.60714396182448 149.0628255419433,44.54464381188154 149.0628255419433,39.482143519446254 151.23190489038825,36.589286144822836 156.29309003427625,33.69642872642726 162.07730162888765,35.14285744167864 170.7536190226674,41.651786517351866 183.76809511706233,49.60714396182448 185.93717446550727,53.22321541234851 185.93717446550727,58.2857153210789 181.5990157686174,67.68750049453229 177.98388351872563,71.30357158463448 172.92269837111235,71.30357158463448 168.58453967422247,67.68750049453229 164.969407428056,58.2857153210789 161.35427518188953,55.39285824727267 154.1240106858313,52.50000112783164 150.50887843966484,48.16071536205709 149.0628255419433,40.205357854254544 151.23190489038825,37.312500493600965 154.84703713655472,33.69642872642726 159.1851958334446,33.69642872642726 186.6602009125054,52.50000112783164 187.3832273632288,56.8392867911607 183.76809511706233,62.6250008456409 181.5990157686174,70.58035737089813 179.42993642017245,72.02678579371423 175.09177771955729,72.02678579371423 171.4766454771161,70.58035737089813 164.2463809773326,61.90178659930825 154.84703713655472,53.94642969314009 149.0628255419433,47.43750105705112 149.0628255419433,43.09821517020464" stroke="#4dd2ff" stroke-linecap="round" stroke-linejoin="round" stroke-width="0.5"><title>2022-04-26 3.1km</title></polyline><polyline fill="none" points="31.149999998509884,109.01451773196459 28.449999999254942,109.01451773196459 25.074999999254942,104.28829030133784 18.324999999254942,101.58758885320276 14.275000002235174,97.53653659950942 13.599999997764826,94.16065964940935 14.275000002235174,90.7847826294601 17.649999998509884,85.38337926007807 23.725000001490116,84.03302839118987 29.125,86.05855469126254 48.69999999925494,99.5620627393946 50.724999997764826,104.28829030133784 50.05000000074506,109.01451773196459 44.649999998509884,117.79179689846933 39.92499999701977,119.81732279527932 33.849999997764826,117.79179689846933 28.449999999254942,108.33934239298105 16.300000000745058,102.93793958239257 12.924999997019768,98.21171198226511 13.599999997764826,91.45995804015547 16.974999997764826,85.38337926007807 21.699999999254942,84.03302839118987 27.774999998509884,86.05855469126254 46.0,97.53653659950942 49.375,101.58758885320276 50.724999997764826,105.63864101003855 46.67500000074506,115.09109566453844 42.625,119.14214749913663 38.57499999925494,119.81732279527932 36.55000000074506,118.46697220019996 32.5,115.09109566453844 27.099999997764826,106.31381635926664 16.300000000745058,98.88688736222684 14.275000002235174,94.16065964940935 14.275000002235174,90.1096072178334 16.300000000745058,85.38337926007807 20.349999997764826,83.3578529516235 25.074999999254942,84.03302839118987 48.69999999925494,100.23723811190575 50.05000000074506,104.28829030133784 45.32499999925494,116.4414462884888 41.274999998509884,120.49249808862805 36.55000000074506,119.81732279527932 32.5,116.4414462884888 27.099999997764826,106.98899170663208 14.275000002235174,97.53653659950942 12.25,92.8103088485077 12.924999997019768,88.7592563861981 17.649999998509884,84.03302839118987 23.050000000745058,83.3578529516235 29.125,85.38337926007807 47.349999997764826,97.53653659950942 50.724999997764826,102.93793958239257 48.69999999925494,111.04004373401403 46.0,115.76627097837627 40.599999997764826,119.81732279527932 35.87499999627471,119.14214749913663 31.149999998509884,115.09109566453844 26.424999997019768,104.96346565615386 14.949999999254942,97.53653659950942 13.599999997764826,94.16065964940935 13.599999997764826,90.1096072178334 15.625,85.38337926007807 20.349999997764826,82.68267751205713 26.424999997019768,84.03302839118987 47.349999997764826,97.53653659950942 48.69999999925494,99.5620627393946 50.724999997764826,102.93793958239257 50.05000000074506,107.66416705213487 44.649999998509884,117.79179689846933 42.625,120.49249808862805 39.92499999701977,120.49249808862805 33.849999997764826,118.46697220019996 30.474999997764826,115.76627097837627 25.074999999254942,104.96346565615386 15.625,99.5620627393946 13.599999997764826,96.86136121489108 12.25,93.48548424895853 13.599999997764826,88.0840809661895 16.300000000745058,84.03302839118987 20.349999997764826,82.68267751205713 26.424999997019768,84.70820382796228 46.67500000074506,97.53653659950942 50.05000000074506,101.58758885320276 50.724999997764826,105.63864101003855 46.67500000074506,115.76627097837627 42.625,119.14214749913663 37.225000001490116,119.14214749913663 33.17500000074506,115.09109566453844 27.774999998509884,106.31381635926664 16.300000000745058,98.88688736222684 14.275000002235174,93.48548424895853 14.275000002235174,89.43443180434406 15.625,86.05855469126254 19.0,82.68267751205713 23.050000000745058,82.0075020659715 27.774999998509884,84.03302839118987 46.67500000074506,97.53653659950942 50.724999997764826,102.26276421919465 50.724999997764826,106.31381635926664 48.024999998509884,112.39039438869804 45.32499999925494,116.4414462884888 40.599999997764826,119.14214749913663 35.87499999627471,118.46697220019996 33.17500000074506,115.76627097837627 27.099999997764826,106.31381635926664 14.275000002235174,98.88688736222684 12.924999997019768,94.83583504427224 12.924999997019768,90.7847826294601 15.625,86.05855469126254 19.0,84.03302839118987 25.75,84.03302839118987 52.07499999925494,101.58758885320276 52.75,103.61311494279653 51.399999998509884,106.98899170663208 44.649999998509884,118.46697220019996 41.274999998509884,120.49249808862805 37.899999998509884,119.81732279527932 20.349999997764826,105.63864101003855 14.949999999254942,98.21171198226511 14.275000002235174,96.18618582841009 14.275000002235174,91.45995804015547 14.949999999254942,88.0840809661895 17.649999998509884,84.03302839118987 21.699999999254942,82.0075020659715 26.424999997019768,82.68267751205713 45.32499999925494,94.83583504427224 50.724999997764826,100.23723811190575 50.724999997764826,103.61311494279653 42.625,118.46697220019996 39.25,120.49249808862805 34.524999998509884,118.46697220019996 29.125,112.39039438869804 19.675000000745058,106.31381635926664 15.625,102.26276421919465 13.599999997764826,96.86136121489108 13.599999997764826,93.48548424895853 16.974999997764826,86.05855469126254 21.024999998509884,84.70820382796228 27.774999998509884,86.05855469126254 46.67500000074506,96.18618582841009 48.69999999925494,98.21171198226511 50.724999997764826,102.26276421919465 50.05000000074506,106.98899170663208 44.649999998509884,119.14214749913663 41.274999998509884,121.16767338011414 35.87499999627471,117.79179689846933 34.524999998509884,115.09109566453844 31.149999998509884,111.71521906275302 27.099999997764826,104.96346565615386 17.649999998509884,100.9124134844169 14.275000002235174,97.53653659950942 13.599999997764826,90.7847826294601 16.974999997764826,83.3578529516235 21.699999999254942,81.33232662081718 27.099999997764826,83.3578529516235 46.0,95.51101043634117 50.05000000074506,100.23723811190575 50.05000000074506,106.98899170663208 45.32499999925494,117.11662159487605 40.599999997764826,120.49249808862805 35.87499999627471,119.14214749913663 31.149999998509884,114.41592035070062 29.125,106.31381635926664 27.774999998509884,104.28829030133784 25.75,102.93793958239257 18.324999999254942,101.58758885320276 14.949999999254942,97.53653659950942 14.275000002235174,92.13513344526291 16.300000000745058,86.7337301177904 21.699999999254942,82.68267751205713 29.125,84.03302839118987 46.67500000074506,96.86136121489108 50.05000000074506,101.58758885320276 50.05000000074506,104.28829030133784 43.974999997764826,118.46697220019996 39.92499999701977,119.81732279527932 35.87499999627471,117.79179689846933 30.474999997764826,111.71521906275302 27.099999997764826,104.28829030133784 16.300000000745058,98.21171198226511 14.275000002235174,95.51101043634117 13.599999997764826,90.7847826294601 14.275000002235174,86.7337301177904 16.300000000745058,84.03302839118987 20.349999997764826,81.33232662081718 25.074999999254942,82.0075020659715 43.974999997764826,94.83583504427224 48.69999999925494,100.23723811190575 50.05000000074506,106.31381635926664 45.32499999925494,116.4414462884888 41.94999999925494,118.46697220019996 37.225000001490116,117.79179689846933 33.849999997764826,114.41592035070062 27.774999998509884,104.96346565615386 16.300000000745058,98.21171198226511 13.599999997764826,90.1096072178334 18.324999999254942,81.33232662081718 25.074999999254942,82.68267751205713 29.125,84.70820382796228 37.899999998509884,91.45995804015547 48.69999999925494,98.21171198226511 50.724999997764826,101.58758885320276 50.724999997764826,104.96346565615386 43.974999997764826,118.46697220019996 40.599999997764826,120.49249808862805 35.19999999925494,118.46697220019996 29.800000000745058,113.0655697118491 26.424999997019768,105.63864101003855 17.649999998509884,100.23723811190575 14.275000002235174,96.86136121489108 14.275000002235174,90.1096072178334 16.974999997764826,84.03302839118987 21.699999999254942,81.33232662081718 27.099999997764826,82.0075020659715 35.87499999627471,88.7592563861981 46.67500000074506,95.51101043634117 50.724999997764826,100.23723811190575 50.724999997764826,103.61311494279653 45.32499999925494,118.46697220019996 41.94999999925494,119.81732279527932 37.899999998509884,119.14214749913663 33.849999997764826,115.09109566453844 27.099999997764826,102.26276421919465 16.300000000745058,96.18618582841009 14.275000002235174,93.48548424895853 14.275000002235174,90.1096072178334 17.649999998509884,84.03302839118987 23.050000000745058,81.33232662081718 30.474999997764826,84.03302839118987 41.274999998509884,92.8103088485077 47.349999997764826,100.23723811190575 48.69999999925494,103.61311494279653 48.024999998509884,106.98899170663208 42.625,118.46697220019996 39.92499999701977,119.14214749913663 35.19999999925494,117.11662159487605 17.649999998509884,99.5620627393946 14.275000002235174,94.83583504427224 14.275000002235174,89.43443180434406 16.300000000745058,84.70820382796228 21.024999998509884,81.33232662081718 25.074999999254942,81.33232662081718 29.125,84.03302839118987 46.67500000074506,97.53653659950942 50.724999997764826,102.93793958239257 50.724999997764826,105.63864101003855 46.0,113.74074503220618 45.32499999925494,117.79179689846933 44.649999998509884,119.81732279527932 42.625,120.49249808862805 35.87499999627471,118.46697220019996 33.17500000074506,115.76627097837627 29.125,106.98899170663208 25.75,104.96346565615386" stroke="#4dd2ff" stroke-linecap="round" stroke-linejoin="round" stroke-width="0.5"><title>2022-04-22 3.3km</title></polyline><polyline fill="none" points="63.70652173971757,106.82754027901683 62.415217391680926,106.12300944374874 60.889130434952676,104.8313695358811 59.950000000186265,104.2442604682874 58.77608695672825,104.12683865334839 58.0717391311191,104.71394772338681 58.0717391311191,105.53590040176641 58.65869565261528,106.71011847432237 60.53695652168244,107.88433649996296 61.94565217429772,109.88050703657791 63.35434782644734,110.81988135981373 63.70652173971757,110.70245957106818 63.35434782644734,109.76308524410706 63.70652173971757,107.88433649996296 63.002173913642764,106.71011847432237 58.65869565261528,104.12683865334839 58.0717391311191,104.12683865334839 57.602173913270235,104.2442604682874 57.25,104.8313695358811 57.25,105.77074401988648 57.71956521784887,106.47527486342005 59.950000000186265,107.76691469934303 60.65434782626107,108.23660189867951 62.18043478298932,110.11535062000621 62.7673913044855,110.46761599194724 63.58913043513894,110.35019420192111 63.941304347943515,109.88050703657791 64.41086956532672,108.11918009945657 64.41086956532672,107.53207109705545 64.05869565252215,106.9449620830128 59.128260869998485,104.2442604682874 58.18913043476641,104.2442604682874 57.602173913270235,104.8313695358811 57.602173913270235,105.53590040176641 58.18913043476641,106.47527486342005 60.53695652168244,108.23660189867951 61.476086956914514,109.64566345105413 62.297826087102294,110.35019420192111 63.002173913642764,110.23277241131291 63.58913043513894,109.52824165741913 63.941304347943515,108.11918009945657 63.941304347943515,107.29722749290522 63.70652173971757,106.9449620830128 62.18043478298932,105.65332221111748 59.128260869998485,104.12683865334839 58.18913043476641,104.2442604682874 57.602173913270235,104.94879134802613 57.602173913270235,105.53590040176641 57.95434782654047,106.24043125112075 58.65869565261528,106.9449620830128 60.41956521756947,108.11918009945657 61.71086956560612,109.9979288285831 62.5326086957939,110.46761599194724 63.35434782644734,110.35019420192111 63.82391304336488,109.76308524410706 64.41086956532672,108.11918009945657 64.17608695710078,107.17980569018982 59.59782608738169,104.2442604682874 58.89347826084122,104.0094168378273 58.306521739345044,104.12683865334839 57.71956521784887,104.94879134802613 58.0717391311191,106.24043125112075 58.77608695672825,106.9449620830128 60.53695652168244,108.11918009945657 61.476086956914514,109.76308524410706 62.18043478298932,110.35019420192111 63.002173913642764,110.46761599194724 63.35434782644734,110.11535062000621 64.29347826121375,107.76691469934303 64.05869565252215,106.9449620830128 63.002173913642764,106.00558763649315 59.71521739196032,103.8919950221898 58.77608695672825,103.8919950221898 58.18913043476641,104.36168228264432 58.0717391311191,105.41847859218251 58.89347826084122,106.9449620830128 61.82826086971909,109.88050703657791 62.65000000037253,110.35019420192111 63.236956521868706,110.35019420192111 63.70652173971757,109.76308524410706 64.52826086943969,107.64949289849028 64.29347826121375,106.82754027901683 61.71086956560612,104.94879134802613 59.950000000186265,103.8919950221898 59.48043478280306,103.8919950221898 58.89347826084122,104.0094168378273 58.423913043923676,104.59652591007762 58.423913043923676,105.65332221111748 58.65869565261528,106.35785305744503 60.889130434952676,107.76691469934303 61.82826086971909,109.52824165741913 62.88478260859847,110.35019420192111 63.47173913056031,110.23277241131291 63.70652173971757,109.9979288285831 64.64565217401832,107.88433649996296 64.76304347906262,106.9449620830128 64.41086956532672,106.59269666916225 59.83260869560763,103.8919950221898 58.77608695672825,104.0094168378273 58.423913043923676,104.59652591007762 58.423913043923676,105.41847859218251 58.65869565261528,106.00558763649315 59.245652174111456,106.71011847432237 60.65434782626107,107.41464929527137 61.12391304364428,108.00175829988439 62.18043478298932,109.9979288285831 64.05869565252215,111.40699029678944 68.63695652177557,116.33870490605477 69.34130434831604,116.69097020383924 69.92826086981222,116.57354843837675 70.51521739177406,115.98643960419577 72.04130434803665,113.520582373254 72.62826086953282,112.46378635370638 73.09782608738169,110.70245957106818 74.62391304364428,107.88433649996296 76.15000000037253,106.59269666916225 77.44130434840918,105.3010567817837 79.67173913074657,104.0094168378273 83.42826086981222,102.9526204779977 91.05869565252215,105.18363497091923 93.05434782616794,105.88816582853906 93.64130434812978,106.00558763649315 94.22826086962596,105.77074401988648 94.69782608700916,104.8313695358811 97.04565217392519,98.13832547096536 97.75,94.96793564700056 97.75,93.67629525065422 97.16304347850382,92.61949852085672 95.98913043458015,91.68012361775618 91.88043478270993,89.21426435513422 89.7673913044855,88.27488934365101 88.00652173906565,87.218092420022 84.71956521784887,85.80902979604434 83.07608695700765,85.80902979604434 81.784782608971,86.04387357155792 80.72826087009162,86.51356111653149 79.20217391336337,87.80520182673354 78.49782608728856,88.74457685335074 77.32391304383054,91.32785802136641 76.97173913056031,91.7975454821717 75.32826086971909,92.73692038154695 74.62391304364428,93.5588733938057 73.3326086960733,96.49441967881285 71.33695652196184,99.42996567196678 70.04565217439085,102.48293319484219 69.81086956569925,104.2442604682874 70.39782608766109,105.77074401988648 70.04565217439085,106.82754027901683 69.22391304373741,107.29722749290522 66.28913043485954,107.17980569018982 65.70217391336337,107.29722749290522 65.2326086955145,107.88433649996296 64.52826086943969,109.41081986366771 64.05869565252215,109.9979288285831 63.002173913642764,110.11535062000621 61.94565217429772,109.64566345105413 60.65434782626107,107.88433649996296 58.89347826084122,106.9449620830128 58.0717391311191,106.24043125112075 57.95434782654047,104.8313695358811 58.423913043923676,104.0094168378273 59.245652174111456,103.77457320550457 60.18478260887787,104.0094168378273 64.41086956532672,106.59269666916225 64.64565217401832,107.29722749290522 64.52826086943969,107.64949289849028 63.70652173971757,108.82371088687796 63.35434782644734,109.9979288285831 62.5326086957939,110.23277241131291 61.71086956560612,109.76308524410706 60.53695652168244,107.88433649996296 58.18913043476641,106.71011847432237 57.71956521784887,105.88816582853906 57.71956521784887,105.18363497091923 58.18913043476641,104.2442604682874 58.65869565261528,103.8919950221898 59.36304347869009,103.77457320550457 60.3021739134565,104.2442604682874 63.82391304336488,106.59269666916225 64.41086956532672,107.17980569018982 64.41086956532672,107.41464929527137 62.7673913044855,110.23277241131291 61.476086956914514,109.52824165741913 60.0673913047649,107.53207109705545 58.0717391311191,106.82754027901683 57.4847826086916,105.77074401988648 57.602173913270235,105.18363497091923 58.0717391311191,104.2442604682874 58.54130434803665,103.77457320550457 59.128260869998485,103.65715138893574 60.65434782626107,104.2442604682874 63.47173913056031,106.12300944374874 64.29347826121375,106.82754027901683 64.52826086943969,107.41464929527137 64.52826086943969,108.00175829988439 64.17608695710078,108.70628909009974 63.941304347943515,109.9979288285831 63.70652173971757,110.11535062000621 63.119565217755735,110.23277241131291 61.94565217429772,109.76308524410706 61.35869565280154,109.058554478921 60.53695652168244,107.76691469934303 60.0673913047649,107.41464929527137 58.423913043923676,106.71011847432237 57.83695652196184,106.24043125112075 57.4847826086916,105.06621315993834 57.602173913270235,104.47910409676842 58.0717391311191,103.77457320550457 58.77608695672825,103.42230775370263 59.950000000186265,103.77457320550457 61.82826086971909,105.18363497091923" stroke="#4dd2ff" stroke-linecap="round" stroke-linejoin="round" stroke-width="0.5"><title>2022-04-18 3.3km</title></polyline><polyline fill="none" points="116.92673807172105,84.14470833248924 117.2125463760458,83.95411996042822 117.40308524481952,83.47764902363997 114.92607994331047,81.57176518207416 114.449732770212,81.38117678975686 113.87811616249382,81.38117678975686 113.30649955431,81.57176518207416 112.92542181583121,81.95294196240138 112.83015238121152,82.33411873702426 112.83015238121152,83.00117807765491 113.2112301196903,83.6682373995427 115.02134937839583,84.90706180548295 115.97404372459278,86.33647450187709 116.5456603327766,86.81294538173825 117.2125463760458,86.81294538173825 117.40308524481952,86.43176867847797 118.26051015686244,84.24000251793768 118.26051015686244,83.7635315869702 117.78416298376396,83.19176645705011 115.30715768225491,81.38117678975686 114.449732770212,81.0 113.78284672787413,81.09529419802129 113.2112301196903,81.66705937788356 113.02069124998525,82.52470712189097 113.30649955431,83.38235483528115 115.02134937839583,84.62117925588973 116.06931315967813,85.95529779104982 116.5456603327766,86.24118032469414 117.2125463760458,86.24118032469414 117.78416298376396,85.57412107428536 118.06997128762305,84.52588507183827 117.97470185300335,83.57294321188238 116.35512146353722,82.2388245438924 114.92607994331047,81.38117678975686 114.16392446635291,81.2858825926669 113.68757729325444,81.38117678975686 113.49703842354938,81.66705937788356 113.40176898892969,81.95294196240138 113.40176898892969,82.62000131397508 113.78284672787413,83.47764902363997 115.30715768225491,84.7164734393591 115.97404372459278,86.14588614739478 116.5456603327766,86.52706285484601 117.2125463760458,86.43176867847797 117.59362411405891,85.8600036125863 118.06997128762305,84.4305908876704 118.06997128762305,83.95411996042822 117.87943241838366,83.57294321188238 116.45039089815691,82.33411873702426 114.73554107453674,81.38117678975686 113.78284672787413,81.47647098603193 113.2112301196903,82.2388245438924 113.2112301196903,82.62000131397508 113.59230785816908,83.38235483528115 115.02134937839583,84.52588507183827 115.97404372459278,86.05059196939692 116.73619920248166,86.52706285484601 117.02200750634074,86.43176867847797 117.2125463760458,86.24118032469414 117.97470185300335,84.7164734393591 118.06997128762305,83.95411996042822 117.78416298376396,83.47764902363997 116.92673807172105,82.71529550524428 114.92607994331047,81.47647098603193 114.25919390143827,81.38117678975686 113.87811616249382,81.57176518207416 113.40176898892969,82.42941292957403 113.49703842354938,83.47764902363997 113.78284672787413,83.85882577369921 115.21188824763522,85.00235598778818 115.87877429043874,86.14588614739478 117.59362411405891,87.48000459745526 121.30913206655532,91.291771188844 122.07128754397854,92.3400068951305 122.35709584783763,93.29294840653893 121.49967093579471,94.53177231492009 121.30913206655532,95.2941254574107 121.5949403704144,96.05647857568692 123.02398189064115,97.48589060711674 123.69086793297902,98.62942017079331 123.78613736806437,99.67765555623919 123.40505962911993,102.345890876255 123.59559849835932,104.25177306612022 124.26248454116285,105.68118460895494 125.11990945320576,106.92000787728466 125.50098719168454,108.06353699113242 126.64422040758654,109.49294830707368 126.07260379940271,108.73059561580885 125.50098719168454,108.54000743932556 123.30979019450024,108.82588970358483 122.16655697859824,109.39765422197524 121.30913206655532,110.44588913710322 120.83278489299119,111.78000623523258 120.83278489299119,112.73294697434176 121.21386263146996,113.97176987875719 122.35709584783763,115.68706302542705 124.73883171426132,117.97412036347669 127.02529814653099,120.73764768987894 127.59691475424916,121.21411788649857 128.26380079705268,121.40470596239902 129.40703401295468,121.21411788649857 130.26445892546326,120.64235364960041 131.2171532716602,119.68941322434694 132.16984761878848,116.44941549550276 131.88403931446373,115.4964749038918 125.11990945320576,109.11177196435165 124.26248454116285,108.82588970358483 123.50032906373963,108.73059561580885 122.92871245602146,108.92118379089516 122.07128754397854,109.39765422197524 121.30913206655532,110.2553009740077 120.6422460237518,111.58941808284726 120.5469765891321,112.25647660950199 120.5469765891321,113.59059360716492 121.30913206655532,114.82941646722611 123.11925132479519,116.54470955277793 124.26248454116285,118.64117871283088 125.11990945320576,119.68941322434694 126.93002871191129,121.02352980908472 127.59691475424916,121.30941192491446 128.64487853599712,121.40470596239902 129.59757288219407,121.02352980908472 130.83607553318143,120.16588344168849 131.69350044522434,118.92706085683312 131.97930874908343,117.78353226045147 131.88403931446373,116.54470955277793 131.4076921408996,115.40118084277492 130.3597283596173,113.97176987875719 128.64487853599712,112.35177068342455 125.69152606092393,109.58824239170644 124.54829284502193,109.01647787785623 123.59559849835932,108.82588970358483 122.7381735863164,109.11177196435165 121.30913206655532,110.2553009740077 120.83278489299119,111.11294769542292 120.6422460237518,112.82824104628526 121.02332376269624,114.1623580121668 121.49967093579471,115.02000459400006 123.50032906373963,117.40235604939517 125.11990945320576,118.73647276125848 126.64422040758654,120.64235364960041 127.59691475424916,121.40470596239902 128.168531362433,121.5 128.9306868398562,121.40470596239902 130.0739200557582,120.83294173004106 131.59823101060465,119.11764895101078 131.97930874908343,118.06941441481467 131.88403931446373,116.44941549550276 131.4076921408996,115.2105927192606 130.26445892546326,114.06706394569483 127.8827230585739,111.20824177365284 126.54895097296685,109.96941872674506 125.40571775753051,108.44471335038543 125.40571775753051,107.87294880929403 125.78679549554363,107.11059606657363 125.78679549554363,106.25294920243323 125.02464001812041,103.2035378802102 125.02464001812041,98.5341260425048 124.73883171426132,97.39059647417162 123.11925132479519,94.81765474623535 123.02398189064115,94.43647817044985 123.59559849835932,92.91177180665545 123.30979019450024,92.43530104809906 122.92871245602146,92.054124434595 121.7854792396538,91.291771188844 120.83278489299119,90.33882959780749 119.88009054632857,88.90941714029759 119.88009054632857,88.52824047068134 120.07062941556796,88.05176962504629 121.02332376269624,86.71765120630153 120.92805432761088,85.95529779104982 118.83212676504627,83.47764902363997 117.2125463760458,82.42941292957403 115.21188824763522,81.47647098603193 114.25919390143827,81.2858825926669 113.68757729325444,81.38117678975686 113.02069124998525,81.95294196240138 112.92542181583121,82.71529550524428 113.2112301196903,83.28706064657308 114.54500220529735,84.24000251793768 115.68823542119935,85.8600036125863 116.25985202938318,86.24118032469414 116.92673807172105,86.33647450187709 117.2125463760458,86.14588614739478 118.16524072224274,84.90706180548295 118.3557795919478,84.14470833248924 117.97470185300335,83.47764902363997 117.2125463760458,82.81058969639707 116.06931315967813,82.33411873702426 114.83081050915644,81.47647098603193 115.59296598657966,85.47882689419203 116.06931315967813,86.05059196939692 117.02200750634074,86.43176867847797 117.49835467990488,86.05059196939692 117.59362411405891,85.47882689419203 117.11727694096044,84.81176762259565 116.25985202938318,84.14470833248924 116.83146863663569,83.85882577369921" stroke="#4dd2ff" stroke-linecap="round" stroke-linejoin="round" stroke-width="0.5"><title>2022-04-15 3.3km</title></polyline><polyline fill="none" points="182.10276367515326,106.89344375487417 182.10276367515326,106.22950935084373 183.43028764426708,102.90983728412539 181.43900169059634,98.2622962826863 166.83623801916838,86.31147596798837 158.87109419703484,82.32786900736392 154.22476030141115,82.9918035082519 152.2334743477404,84.31967249978334 150.24218839406967,86.97541045211256 150.24218839406967,92.95082069374621 153.56099831685424,100.25409958511591 165.50871404632926,106.89344375487417 168.1637619882822,111.54098451696336 168.82752397283912,114.19672203809023 173.4738578684628,120.83606565371156 178.12019176408648,121.5 180.11147772148252,119.50819695089012 182.10276367515326,111.54098451696336 186.08533558249474,102.90983728412539 186.08533558249474,99.59016515407711 184.0940496325493,96.93442740198225 168.1637619882822,88.30327941384166 153.56099831685424,84.98360699042678 150.9059503749013,86.31147596798837 148.25090243667364,90.29508283454925 148.25090243667364,94.27868960797787 150.24218839406967,98.92623072024435 154.22476030141115,101.58196844067425 164.84495206549764,102.90983728412539 169.49128595739603,104.90164053160697 172.14633389934897,108.22131255734712 176.12890581041574,116.85245951544493 178.12019176408648,118.18032823782414 180.11147772148252,117.51639387849718 182.76652565598488,110.87705013062805 184.0940496325493,102.90983728412539 182.10276367515326,98.2622962826863 168.1637619882822,86.31147596798837 162.1899041198194,83.65573800448328 156.8798082433641,84.31967249978334 152.89723633229733,90.29508283454925 152.89723633229733,96.93442740198225 156.21604625880718,100.91803401429206 164.84495206549764,104.23770611919463 168.1637619882822,112.20491890143603 171.48257191106677,116.85245951544493 176.12890581041574,118.84426259621978 179.4477157332003,118.18032823782414 181.43900169059634,115.52459078188986 184.7578116171062,106.89344375487417 185.4215736016631,100.91803401429206 184.0940496325493,97.59836184419692 178.12019176408648,90.95901730377227 169.49128595739603,84.98360699042678 161.52614213898778,82.9918035082519 156.21604625880718,85.64754148200154 153.56099831685424,91.62295176833868 153.56099831685424,99.59016515407711 156.21604625880718,104.23770611919463 167.5000000037253,110.21311574149877 173.4738578684628,116.18852514959872 178.12019176408648,117.51639387849718 182.10276367515326,115.52459078188986 185.4215736016631,110.87705013062805 186.74909756705165,106.22950935084373 186.74909756705165,102.24590286426246 184.0940496325493,98.2622962826863 172.14633389934897,87.63934493530542 164.18119007721543,84.31967249978334 157.543570227921,84.31967249978334 155.55228427425027,85.64754148200154 153.56099831685424,89.63114836532623 153.56099831685424,94.94262405950576 158.20733221247792,103.57377170398831 168.82752397283912,109.54918134957552 176.12890581041574,116.85245951544493 180.11147772148252,117.51639387849718 182.10276367515326,113.53278766199946 184.0940496325493,104.90164053160697 182.10276367515326,100.25409958511591 172.14633389934897,88.30327941384166 164.18119007721543,84.31967249978334 158.20733221247792,84.31967249978334 154.22476030141115,86.31147596798837 152.2334743477404,90.29508283454925 152.2334743477404,94.27868960797787 155.55228427425027,102.24590286426246 166.83623801916838,108.22131255734712 171.48257191106677,116.85245951544493 174.80138183757663,118.84426259621978 179.4477157332003,118.84426259621978 182.76652565598488,113.53278766199946 184.7578116171062,105.565574943088 184.7578116171062,100.91803401429206 182.10276367515326,96.27049295697361 171.48257191106677,86.97541045211256 162.8536661081016,83.65573800448328 156.8798082433641,84.31967249978334 153.56099831685424,87.63934493530542 152.2334743477404,89.63114836532623 152.2334743477404,96.27049295697361 154.88852228596807,100.91803401429206 163.51742809265852,106.89344375487417 169.49128595739603,116.85245951544493 174.80138183757663,118.18032823782414 180.77523970603943,116.18852514959872 182.10276367515326,114.86065641138703 184.7578116171062,109.54918134957552 184.7578116171062,102.24590286426246 183.43028764426708,99.59016515407711 178.12019176408648,94.27868960797787 165.50871404632926,83.65573800448328 159.53485618531704,82.32786900736392 154.88852228596807,83.65573800448328 152.2334743477404,87.63934493530542 152.2334743477404,94.27868960797787 156.8798082433641,100.91803401429206 164.18119007721543,104.90164053160697 169.49128595739603,115.52459078188986 171.48257191106677,116.85245951544493 177.45642977952957,117.51639387849718 182.10276367515326,114.86065641138703 186.08533558249474,106.89344375487417 186.08533558249474,100.91803401429206 183.43028764426708,96.27049295697361 171.48257191106677,87.63934493530542 161.52614213898778,83.65573800448328 158.20733221247792,84.31967249978334 154.88852228596807,84.98360699042678 151.5697123631835,91.62295176833868 151.5697123631835,94.94262405950576 153.56099831685424,99.59016515407711 173.4738578684628,116.18852514959872 178.12019176408648,116.85245951544493 184.0940496325493,112.86885328218341 186.08533558249474,108.22131255734712 186.08533558249474,102.24590286426246 184.7578116171062,100.25409958511591 177.45642977952957,91.62295176833868 166.83623801916838,84.31967249978334 160.19861816614866,82.9918035082519 154.88852228596807,86.31147596798837 153.56099831685424,88.30327941384166 152.2334743477404,96.93442740198225 154.88852228596807,102.90983728412539 158.87109419703484,105.565574943088 166.83623801916838,108.8852469548583 170.15504794195294,114.19672203809023 174.80138183757663,116.85245951544493 180.11147772148252,116.85245951544493 182.76652565598488,114.19672203809023 184.7578116171062,110.87705013062805 186.08533558249474,104.90164053160697 184.0940496325493,100.25409958511591 168.1637619882822,84.98360699042678 162.8536661081016,81.66393450368196 158.87109419703484,82.32786900736392 154.22476030141115,85.64754148200154 152.2334743477404,90.29508283454925 152.2334743477404,94.27868960797787 154.22476030141115,98.92623072024435 156.21604625880718,101.58196844067425 164.84495206549764,106.89344375487417 172.8100958839059,117.51639387849718 180.11147772148252,118.18032823782414 182.10276367515326,116.85245951544493 184.0940496325493,112.86885328218341 185.4215736016631,108.22131255734712 185.4215736016631,102.90983728412539 184.0940496325493,100.25409958511591 179.4477157332003,93.61475515086204 172.14633389934897,88.30327941384166 158.20733221247792,86.97541045211256 156.8798082433641,87.63934493530542 153.56099831685424,94.94262405950576 153.56099831685424,99.59016515407711 154.88852228596807,103.57377170398831 156.8798082433641,105.565574943088 167.5000000037253,110.21311574149877 174.80138183757663,115.52459078188986 178.12019176408648,116.18852514959872 183.43028764426708,113.53278766199946 185.4215736016631,102.90983728412539 184.0940496325493,98.92623072024435 173.4738578684628,88.96721389051527 164.84495206549764,82.9918035082519 160.19861816614866,81.66393450368196 154.22476030141115,84.31967249978334 152.2334743477404,90.29508283454925 152.2334743477404,92.95082069374621 154.22476030141115,98.2622962826863 164.84495206549764,104.90164053160697 171.48257191106677,116.85245951544493 175.46514382213354,120.1721313027665 179.4477157332003,120.1721313027665 186.08533558249474,106.22950935084373 186.08533558249474,102.24590286426246 182.76652565598488,98.2622962826863 170.15504794195294,88.96721389051527 162.8536661081016,84.31967249978334 158.87109419703484,82.9918035082519 154.88852228596807,84.31967249978334 152.2334743477404,86.97541045211256 152.2334743477404,94.94262405950576 152.89723633229733,97.59836184419692 156.21604625880718,102.90983728412539 166.17247603088617,112.20491890143603 172.14633389934897,115.52459078188986 178.12019176408648,116.85245951544493 182.10276367515326,115.52459078188986 186.08533558249474,109.54918134957552 186.08533558249474,102.90983728412539 183.43028764426708,98.2622962826863 171.48257191106677,87.63934493530542 162.8536661081016,83.65573800448328 156.8798082433641,84.98360699042678 152.2334743477404,92.95082069374621 154.22476030141115,98.2622962826863 165.50871404632926,105.565574943088 168.1637619882822,108.8852469548583 172.14633389934897,117.51639387849718 175.46514382213354,120.83606565371156 178.12019176408648,120.83606565371156 180.11147772148252,118.18032823782414 185.4215736016631,104.23770611919463 185.4215736016631,100.91803401429206 182.76652565598488,96.93442740198225 168.1637619882822,85.64754148200154 160.86238015443087,82.9918035082519 155.55228427425027,83.65573800448328 152.2334743477404,86.31147596798837 150.9059503749013,92.28688623383641 154.22476030141115,98.92623072024435 162.8536661081016,104.23770611919463 169.49128595739603,116.18852514959872 173.4738578684628,119.50819695089012 178.12019176408648,120.83606565371156 180.11147772148252,117.51639387849718 186.08533558249474,102.24590286426246 184.0940496325493,98.2622962826863 174.13761985301971,90.95901730377227 168.82752397283912,85.64754148200154 157.543570227921,81.0 154.22476030141115,81.66393450368196 150.9059503749013,86.31147596798837 152.2334743477404,94.27868960797787 156.21604625880718,100.91803401429206 166.83623801916838,107.55737815890461 171.48257191106677,116.85245951544493 173.4738578684628,118.84426259621978 179.4477157332003,120.83606565371156 183.43028764426708,118.18032823782414 184.0940496325493,111.54098451696336 186.74909756705165,104.90164053160697 186.08533558249474,101.58196844067425 172.14633389934897,87.63934493530542 171.48257191106677,86.97541045211256 151.5697123631835,97.59836184419692" stroke="#4dd2ff" stroke-linecap="round" stroke-linejoin="round" stroke-width="0.5"><title>2022-04-13 3.4km</title></polyline><polyline fill="none" points="26.10189357260242,133.66627656610217 25.528928817715496,134.04835229436867 24.764975811820477,134.04835229436867 24.28750518290326,133.76179549877997 23.332563924603164,132.61556828184985 23.0460815471597,132.0424546529539 22.950587422121316,131.46934101020452 23.52355217654258,130.3231136839604 24.001022805459797,130.13207579089794 24.478493434377015,130.22759473742917 26.292881824076176,131.27830312633887 27.725293710827827,132.42453040694818 28.01177608827129,133.0931629622355 27.916281962301582,133.57075763319153 26.96134070493281,135.09906051622238 26.48387007554993,135.19457944307942 25.624422943685204,134.62146587553434 24.95596406282857,133.37971976585686 23.810034553986043,132.61556828184985 23.428058050572872,132.23349253088236 23.14157567359507,131.66037889255676 23.14157567359507,130.9917462975718 23.619046302046627,130.3231136839604 24.28750518290326,130.22759473742917 25.528928817715496,131.27830312633887 27.534305459354073,132.61556828184985 27.820787836797535,133.37971976585686 27.534305459354073,134.33490908669773 27.056834830436856,135.09906051622238 26.770352452993393,135.19457944307942 26.292881824076176,135.19457944307942 25.71991706965491,134.71698480437044 23.619046302046627,132.61556828184985 23.237069799099118,131.75589783326723 23.237069799099118,130.9917462975718 23.714540428016335,130.3231136839604 24.192011056933552,130.22759473742917 24.66948168585077,130.41863262967672 25.71991706965491,131.087265240727 27.534305459354073,132.7110872187186 27.820787836797535,133.0931629622355 27.916281962301582,133.57075763319153 27.056834830436856,135.38561729574576 27.056834830436856,135.86321192106698 27.24782308191061,136.34080653672572 31.545058742165565,140.73467655631248 32.40450587403029,141.40330888004974 32.690988251473755,141.78538448526524 32.78648237744346,142.45401677989867 32.02252937108278,143.9823190976167 32.02252937108278,144.5554324417608 33.55043538333848,147.038923441316 33.836917761247605,147.61203671258409 33.7414236352779,150.9551971888868 34.21889426372945,154.10731949761976 35.17383552202955,155.6356210745871 35.269329647533596,156.87736603431404 35.46031789947301,157.5459979090374 35.84229440195486,158.1191109296633 36.6062474087812,158.69222393690143 35.84229440195486,157.83255442115478 34.887353144586086,157.5459979090374 33.16845888039097,158.02359209395945 32.2135176230222,158.59670510329306 31.449564616195858,159.45637459191494 30.781105735804886,160.79363817931153 30.685611609835178,162.03538287279662 30.97209398727864,163.1816086868057 32.02252937108278,164.70990968728438 34.982847270555794,168.14858658332378 35.74680027645081,168.91273693786934 36.892729785759,169.77240605768748 37.943165169563144,170.25 38.80261230142787,170.25 39.94854181073606,170.05896242440213 40.903483068570495,169.39033089729492 41.85842432640493,167.5754738014657 42.14490670384839,166.04717298294418 41.95391845237464,164.9964661138365 41.38095369795337,163.94575919921044 36.6062474087812,158.8832616028376 35.46031789947301,158.21462976525072 34.505376641172916,158.02359209395945 33.26395300636068,158.1191109296633 32.309011748060584,158.50118626945186 31.545058742165565,159.07429926714394 30.781105735804886,160.2205252223648 30.59011748433113,161.46226994530298 30.876599861774594,162.60849578655325 31.73604699363932,164.42335325700697 32.78648237744346,165.76061656849924 36.033282653894275,169.0082557303831 37.179212163202465,169.9634436358465 38.22964754700661,170.25 39.375577055849135,170.05896242440213 40.61700069159269,169.29481210606173 41.47644782345742,168.24410537886433 41.95391845237464,167.1933986057993 42.14490670384839,166.14269178709947 42.049412578344345,165.4740601509111 41.47644782345742,163.75472157343756 40.903483068570495,162.99057105497923 39.56656530778855,162.1309016927844 38.707118175923824,161.08019465289544 37.08371803769842,159.36085576121695 36.415259156841785,158.3101486003725 36.033282653894275,157.16392255411483 35.74680027645081,157.16392255411483 36.033282653894275,153.6297252351651 35.269329647533596,150.8596783245448 34.79185901861638,146.56132903834805 34.40988251566887,145.89269685803447 33.16845888039097,144.07783798931632 32.88197650294751,143.6002435273258 32.97747062891722,143.21816795086488 33.26395300636068,142.64505457505584 33.16845888039097,141.97642228577752 31.927035245113075,139.97052530630026 29.92165860394016,138.34670381934848 29.53968210099265,137.9646281596506 29.53968210099265,137.391514658113 29.92165860394016,136.14976869162638 29.82616447797045,135.48113622167148 29.06221147160977,134.71698480437044 28.298258465714753,133.4752386995824 25.71991706965491,130.51415157539304 25.146952314767987,130.13207579089794 24.764975811820477,130.03655684366822 24.096516931429505,130.13207579089794 23.428058050572872,130.51415157539304 22.85509329615161,131.27830312633887 22.85509329615161,131.75589783326723 23.0460815471597,132.32901146903168 24.860469937324524,134.04835229436867 26.10189357260242,134.8125037329737 27.438811333384365,134.525946946349 28.01177608827129,134.23939015634824 28.202764339745045,133.85731443110853 28.298258465714753,133.28420083166566 28.202764339745045,132.80660615500528 28.01177608827129,132.42453040694818 26.579364201053977,131.3738220683299 24.478493434377015,130.41863262967672 23.52355217654258,130.3231136839604 22.950587422121316,130.6096705206437 22.85509329615161,130.9917462975718 22.950587422121316,131.46934101020452 24.192011056933552,132.99764402699657 24.478493434377015,134.1438712257659 25.43343469221145,135.09906051622238 26.10189357260242,135.19457944307942 27.534305459354073,134.33490908669773 28.01177608827129,133.76179549877997 27.916281962301582,132.61556828184985 27.152328955940902,131.5648599517299 25.624422943685204,130.7051894653123 24.573987560346723,130.41863262967672 23.714540428016335,130.6096705206437 23.332563924603164,131.18278418364935 23.52355217654258,131.8514167733956 24.382999308407307,132.80660615500528 24.764975811820477,134.23939015634824 25.05145818926394,134.71698480437044 25.910905321128666,135.38561729574576 26.86584657849744,135.48113622167148 27.343317207880318,135.09906051622238 27.820787836797535,133.18868189724162 27.056834830436856,131.8514167733956 26.10189357260242,130.6096705206437 25.624422943685204,130.3231136839604 24.860469937324524,130.3231136839604 23.90552867949009,130.51415157539304 23.237069799099118,130.9917462975718 23.0460815471597,131.5648599517299 23.0460815471597,132.23349253088236 23.714540428016335,133.57075763319153 24.478493434377015,134.1438712257659 25.624422943685204,134.525946946349 26.86584657849744,135.2900983695872 27.24782308191061,135.19457944307942 27.534305459354073,134.9080226609949 27.725293710827827,133.95283336297143 27.62979958485812,132.42453040694818 27.056834830436856,131.46934101020452 25.528928817715496,130.13207579089794 24.860469937324524,129.84551894827746 24.382999308407307,129.84551894827746 23.810034553986043,130.13207579089794 23.428058050572872,130.51415157539304 23.0460815471597,131.27830312633887 23.0460815471597,131.946935713524 23.52355217654258,132.7110872187186 24.66948168585077,133.37971976585686 25.05145818926394,134.525946946349 25.528928817715496,135.09906051622238 26.388375950045884,135.38561729574576 27.438811333384365,135.2900983695872 27.62979958485812,134.33490908669773 28.202764339745045,133.66627656610217 28.298258465714753,132.99764402699657 27.916281962301582,132.52004934474826 24.573987560346723,130.13207579089794 23.90552867949009,129.75 23.428058050572872,129.94103789608926 23.0460815471597,130.6096705206437 22.85509329615161,131.5648599517299 23.90552867949009,132.90212509129196 24.382999308407307,134.430428016698 25.43343469221145,135.19457944307942 26.006399446632713,135.38561729574576 26.48387007554993,135.2900983695872 26.96134070493281,135.00354158878326 27.24782308191061,134.525946946349 27.152328955940902,134.23939015634824 27.534305459354073,134.1438712257659 26.48387007554993,133.85731443110853" stroke="#4dd2ff" stroke-linecap="round" stroke-linejoin="round" stroke-width="0.5"><title>2022-04-09 3.1km</title></polyline><polyline fill="none" points="84.70575514063239,155.14830619562417 85.39201753214002,144.8516960265115 57.25525937601924,137.98728890530765 87.45080471411347,167.50423758849502 94.31342865526676,146.9110181098804 68.92172007635236,132.4957630103454 60.68657134845853,137.30084817949682 88.82332950085402,168.19067819509655 94.31342865526676,148.28389948420227 60.68657134845853,136.61440744809806 90.19585429131985,166.8177969781682 94.99969105049968,145.53813672345132 61.372833739966154,135.24152598064393 88.13706710934639,166.13135636597872 95.6859534457326,147.5974587984383 70.98050725460052,133.18220375850797 60.68657134845853,137.30084817949682 87.45080471411347,166.8177969781682 96.37221583724022,146.9110181098804 69.60798247158527,132.4957630103454 60.00030895322561,136.61440744809806 88.13706710934639,167.50423758849502 96.37221583724022,144.1652553267777 69.60798247158527,130.4364407574758 60.68657134845853,137.30084817949682 89.50959189981222,166.13135636597872 94.99969105049968,145.53813672345132 61.372833739966154,134.5550852417946 88.13706710934639,166.13135636597872 97.05847823247313,146.9110181098804 70.29424486681819,131.80932226311415 60.68657134845853,135.92796671576798 90.88211668282747,166.13135636597872 97.74474062398076,147.5974587984383 62.05909613519907,134.5550852417946 62.05909613519907,146.22457741759717 86.07827992737293,165.44491575099528 94.31342865526676,145.53813672345132 70.98050725460052,131.80932226311415 60.68657134845853,135.92796671576798 88.82332950085402,168.19067819509655 94.31342865526676,147.5974587984383 71.66676965355873,131.80932226311415 61.372833739966154,135.24152598064393 88.82332950085402,165.44491575099528 96.37221583724022,147.5974587984383 71.66676965355873,129.75 60.00030895322561,135.24152598064393 90.88211668282747,170.25 86.76454231888056,137.30084817949682" stroke="#4dd2ff" stroke-linecap="round" stroke-linejoin="round" stroke-width="0.5"><title>2022-01-19 2.1km</title></polyline><polyline fill="none" points="116.89376420155168,158.4115395443514 130.59789615496993,170.25 137.44996212795377,149.68846284784377 110.04169822856784,130.9961540028453 105.05837751552463,144.70384737476707 126.23749053478241,168.38076946139336 133.08955650776625,167.75769261084497 138.07287721708417,150.311539770104 110.66461331397295,130.37307700235397 105.68129260838032,143.45769348088652 125.61457544565201,167.13461575563997 134.33538668602705,165.88846204150468 137.44996212795377,147.81923206336796 116.89376420155168,130.9961540028453 107.55003787204623,133.48846197780222 106.92712278291583,146.57307819556445 127.48332070931792,167.75769261084497 139.31870739534497,150.311539770104 117.51667929068208,131.61923099961132 107.55003787204623,133.48846197780222 105.68129260838032,144.70384737476707 126.23749053478241,166.51153890043497 136.82704704254866,149.06538592185825 110.04169822856784,129.75 105.05837751552463,143.45769348088652 126.23749053478241,166.51153890043497 133.08955650776625,165.88846204150468 136.82704704254866,148.44230899307877 117.51667929068208,130.9961540028453 105.68129260838032,134.11153896525502 105.68129260838032,144.70384737476707 124.9916603565216,166.51153890043497 134.33538668602705,166.51153890043497 140.56453757360578,150.311539770104 118.76250946894288,132.24230799637735 106.92712278291583,133.48846197780222 105.68129260838032,145.95000125654042 126.86040562018752,165.88846204150468 135.58121686428785,150.311539770104 115.64793402329087,132.86538498755544 104.43546243011951,135.98076991178095 128.72915088757873,167.75769261084497 137.44996212795377,147.1961551308632 116.89376420155168,130.9961540028453 106.30420769378543,134.11153896525502 108.17295296117663,149.68846284784377 127.48332070931792,168.38076946139336 138.07287721708417,148.44230899307877 114.40210384875536,130.9961540028453 105.05837751552463,134.11153896525502 104.43546243011951,145.95000125654042 126.23749053478241,167.75769261084497 136.82704704254866,147.81923206336796 115.64793402329087,132.86538498755544 105.68129260838032,135.98076991178095 128.10623579844832,169.6269231569022 138.07287721708417,149.06538592185825 115.64793402329087,132.24230799637735 105.68129260838032,135.35769293271005 105.05837751552463,147.1961551308632 126.23749053478241,168.38076946139336 136.20413195341825,149.68846284784377 115.02501893788576,132.24230799637735 105.68129260838032,134.11153896525502 106.92712278291583,147.1961551308632 126.86040562018752,169.00384630914778 139.31870739534497,149.06538592185825 107.55003787204623,133.48846197780222 106.30420769378543,146.57307819556445 126.23749053478241,167.75769261084497 134.33538668602705,167.13461575563997 139.31870739534497,149.68846284784377 106.92712278291583,132.24230799637735 106.92712278291583,147.1961551308632 123.7458301782608,167.75769261084497 132.46664142236114,168.38076946139336 124.9916603565216,152.80384743772447 131.22081124410033,159.65769331902266 134.95830177143216,150.311539770104" stroke="#4dd2ff" stroke-linecap="round" stroke-linejoin="round" stroke-width="0.5"><title>2022-01-10 2.8km</title></polyline><polyline fill="none" points="184.60822848323733,162.83450875338167 169.78109713084996,153.13732673600316 169.2108228476718,159.1267628427595 178.62034851498902,169.39436643384397 183.18254277668893,161.40845265705138 169.2108228476718,154.27817174745724 169.78109713084996,160.26760775921866 179.19062279723585,169.109155242797 182.6122684944421,160.8380302102305 174.05815425142646,154.5633829976432 169.78109713084996,155.7042279858142 178.90548565611243,169.39436643384397 182.8974056346342,160.8380302102305 173.2027428271249,154.27817174745724 168.92568570747972,155.7042279858142 178.90548565611243,169.39436643384397 182.8974056346342,160.55281898519024 173.48787996917963,153.99296049587429 169.78109713084996,155.13380549382418 178.62034851498902,169.109155242797 183.46767991874367,161.40845265705138 173.2027428271249,154.27817174745724 169.2108228476718,155.7042279858142 178.62034851498902,170.25 183.46767991874367,160.8380302102305 169.49595998972654,154.5633829976432 169.49595998972654,160.8380302102305 178.90548565611243,169.67957762349397 184.3230913421139,161.12324143387377 169.2108228476718,155.13380549382418 169.2108228476718,160.26760775921866 178.33521137293428,169.109155242797 182.8974056346342,160.8380302102305 170.3513714140281,153.99296049587429 169.2108228476718,159.41197407385334 175.7689771000296,165.11619844986126 181.4717199280858,159.98239653138444 170.3513714140281,153.99296049587429 168.92568570747972,159.69718530308455 178.05007423087955,169.109155242797 181.4717199280858,168.82394405035302 183.75281705986708,161.12324143387377 174.05815425142646,153.99296049587429 169.2108228476718,155.7042279858142 179.19062279723585,170.25 182.6122684944421,160.8380302102305 172.9176056869328,154.27817174745724 168.92568570747972,155.98943922994658 179.47575993835926,170.25 183.18254277668893,161.40845265705138 170.06623427197337,154.27817174745724 168.92568570747972,159.1267628427595 174.3432913934812,166.8274656739086 180.90144564583898,169.67957762349397 183.75281705986708,161.40845265705138 171.7770571205765,153.70774924429134 168.92568570747972,161.40845265705138 180.0460342215374,170.25 181.75685707014054,159.98239653138444 171.7770571205765,152.28169296542183 167.2148628588766,140.87324171653017 150.39177151676267,129.75" stroke="#4dd2ff" stroke-linecap="round" stroke-linejoin="round" stroke-width="0.5"><title>2022-01-04 2.5km</title></polyline><polyline fill="none" points="27.679823700338602,210.0000008782372 39.890936993062496,219.0 46.960528902709484,201.64285838603973 18.682161271572113,182.3571432940662 14.82602022960782,195.21428694482893 34.7494156062603,217.71428587008268 46.960528902709484,200.35714411828667 19.32485144585371,181.07142887357622 14.82602022960782,192.6428582975641 33.464035261422396,217.07142880186439 47.60321907699108,197.7857155520469 28.32251387089491,179.7857144428417 19.967541616410017,181.7142860852182 18.039471097290516,194.57142978720367 34.7494156062603,217.71428587008268 48.888599421828985,200.35714411828667 18.682161271572113,181.7142860852182 16.754090752452612,193.9285726249218 33.464035261422396,216.42857173085213 41.17631734162569,216.42857173085213 48.24590924754739,198.42857269756496 20.610231794416904,180.42857165820897 17.39678092300892,192.6428582975641 33.464035261422396,217.07142880186439 50.17397977039218,199.71428698021919 28.965204045176506,179.7857144428417 18.682161271572113,181.7142860852182 16.111400574445724,193.2857154617086 33.464035261422396,216.42857173085213 48.888599421828985,200.35714411828667 20.610231794416904,178.5 15.468710403889418,192.00000112690032 34.1067254319787,215.78571465611458 48.24590924754739,198.42857269756496 16.111400574445724,181.7142860852182 15.468710403889418,193.9285726249218 33.464035261422396,217.07142880186439 41.17631734162569,216.42857173085213 48.24590924754739,197.7857155520469 27.037133526057005,181.07142887357622 17.39678092300892,183.00000050105155 34.1067254319787,216.42857173085213 48.24590924754739,199.71428698021919 26.394443351775408,179.1428572209552 17.39678092300892,181.07142887357622 15.468710403889418,193.9285726249218 34.7494156062603,217.07142880186439 48.888599421828985,198.42857269756496 18.039471097290516,181.07142887357622 15.468710403889418,193.2857154617086 32.8213450871408,215.78571465611458 41.81900751590729,216.42857173085213 50.816669940948486,199.71428698021919 19.32485144585371,178.5 14.183330055326223,193.9285726249218 33.464035261422396,215.1428575804457 42.461697690188885,215.1428575804457 45.67514855414629,199.07142984028906" stroke="#4dd2ff" stroke-linecap="round" stroke-linejoin="round" stroke-width="0.5"><title>2021-12-13 2.2km</title></polyline><polyline fill="none" points="86.74216906283982,184.53727365937084 84.85601211106405,182.5248493627878 82.21539237862453,185.04037969349883 81.46092959819362,185.10326794651337 82.08964858204126,184.4114971483359 76.74553721933626,184.97749144001864 77.24851240613498,183.7826145782601 73.72768609668128,186.9270271784626 66.18305829027668,181.0784192410065 61.71915350481868,181.01553097192664 65.17710791598074,191.5178684515413 69.51526890485547,196.42314943426754 71.52716965298168,201.01398795028217 71.33855395787396,208.05746363289654 72.34450433216989,210.5729899033904 69.38952510780655,212.83696320524905 71.40142585639842,216.29581068095285 71.08706636424176,217.9309019523207 70.01824409188703,215.41537684958894 77.87723139021546,217.5535732122371 73.03609521430917,215.72981750930194 69.07516561611556,216.9875800856389 68.50931853055954,218.55978316569235 67.56624005455524,218.55978316569235 69.32665320928209,219.0 67.00039296899922,216.9875800856389 69.20090941269882,215.10093618382234 78.25446278043091,217.23913258884568 79.51190074835904,218.43400692485739 80.32923542731442,217.05046821164433 81.90103288693354,216.6731394508388 66.24593018856831,188.05901556147728 63.85679804976098,181.64441365224775 66.43454588367604,181.89596671739127 68.25783093669452,179.75776553608011 69.13803751417436,180.70108962233644 69.26378131099045,178.5 67.31475246115588,179.94643035775516 68.57219042885117,178.94021794910077 75.80245874333195,185.35482095659245 76.93415291444398,184.60016191436443 79.8891321385745,185.606373962597 84.66739641618915,182.7135141514009 87.68524753861129,184.47438540391158 91.20607384829782,179.1288827805547 93.28084649494849,179.25465933373198" stroke="#4dd2ff" stroke-linecap="round" stroke-linejoin="round" stroke-width="0.5"><title>2021-11-30 3.6km</title></polyline><polyline fill="none" points="142.62519260391127,211.84783099309425 141.79314329731278,211.49411769158905 137.00885978422593,207.64488315299968 131.30932203389239,205.18969423198723 126.77465331275016,204.02451942345942 126.35862865950912,204.4406533135625 124.9233436054783,204.06613281398313 122.21918335894588,201.52771538335946 110.1960708781844,193.24664005686645 109.75924499228131,192.12307605403475 109.8424499228131,191.51968047043192 108.8439907549182,191.51968047043192 108.67758089362178,191.87339513143525 107.47110939910635,191.22838602555566 103.37326656386722,187.337522940099 102.68682588590309,185.92266291051055 102.62442218791693,186.65089973880094 102.25,186.75493356306106 102.74922958388925,187.23348912762594 104.10130970727187,185.67298168857815 103.41486902930774,185.13200566641171 103.43567026196979,185.4441072246118 102.93644067796413,184.52860926708672 103.24845916789491,185.38168691447936 105.86941448377911,188.48189473964158 108.30315870570485,190.60418358858442 108.59437596297357,191.7485546655662 109.80084745760541,191.56129396118922 109.80084745760541,192.0398490811931 110.42488443758339,192.62243786314502 117.64291217259597,197.8449272341968 117.78852080123033,198.53154895163607 122.23998459160794,201.71497572795488 124.50731895223726,203.98290603258647 126.54583975346759,204.7527537093265 130.74768875190057,205.60582802889985 136.53043143288232,207.87375663753483 142.75,212.97139073291328" stroke="#4dd2ff" stroke-linecap="round" stroke-linejoin="round" stroke-width="0.5"><title>2021-11-29 5.7km</title></polyline><polyline fill="none" points="187.75,213.4963468752976 185.98185840714723,212.44474603090202 186.5075221239822,211.3453449512017 186.1730088496115,209.12264215297182 186.45973451330792,208.78804166041664 179.26769911509473,203.05203031090787 177.1889380532084,201.83312719129026 171.71725663729012,199.5865207905881 166.36504424770828,198.272016654053 166.34115044260398,197.72231483843643 165.1464601769112,197.48331403327757 163.9756637167884,196.74241147658904 161.58628318586852,194.08950156797073 147.25,184.0036531246733 147.39336283190642,185.1508594956831 161.46681415929925,194.92600481957197 164.19070796470623,197.6028144370939 166.53230088495184,198.46321727370378 171.167699115118,199.49092049946194 178.19247787620407,202.31112844427116 185.09778761060443,207.9037402686954" stroke="#4dd2ff" stroke-linecap="round" stroke-linejoin="round" stroke-width="0.5"><title>2021-11-08 4.6km</title></polyline><polyline fill="none" points="17.8144847699441,240.25383200819488 22.014095916994847,244.1657298367063 24.402624757029116,245.29466636411962 24.48136746592354,246.0035333877313 30.54455605952535,251.0968719944649 31.489468567655422,250.36175119996187 32.19815294875298,250.59804003566387 32.98558003897779,249.7053932789422 33.56302657164633,249.81041055064998 35.45285158790648,251.14938061955036 36.94896305911243,251.56944960504188 41.699773169122636,255.03501772152958 46.975534672732465,256.373986736784 51.14889825030696,255.66512082115514 51.41137394681573,256.4002410285466 51.201393389492296,257.52917547436664 51.80508749198634,257.2141240204219 51.51636422565207,256.95158113067737 52.75,256.95158113067737 51.67384964367375,256.4527496116352 51.88383020099718,257.13536115462193 51.56885936483741,257.0828525768302 52.56626701238565,257.266632597195 51.14889825030696,257.4504126123502 50.518956578103825,260.6271806436125 49.810272197122686,261.8348771831952 48.996597537305206,266.8756951573596 46.18810758262407,266.6919154023926 44.61325340240728,267.505797136022 43.69458846410271,267.32201739843003 40.51863253407646,264.1977610834874 40.5973752430873,263.62016731861513 40.09867141942959,262.99006497257506 40.22990926774219,261.65109728911193 42.43470511981286,259.57700956144254 36.975210628588684,259.314466765034 36.791477640974335,258.0017526273732 35.13788075186312,255.66512082115514 32.09316267014947,252.40958749636775 24.428872326621786,245.89851605566218 24.402624757029116,245.37342937049107 23.405217109480873,245.1108860123204 21.90910563839134,244.03445813499275 15.845917044673115,238.36351813471993 15.767174335662276,237.65465029279585 13.56237848335877,234.42536249521072 13.61487362277694,233.61147670366336 13.116169799002819,233.1126434270118 14.166072585736401,231.72116092959186 13.71986390138045,231.35359946620883 13.667368762078695,229.9358622012951 12.25,229.01695825569914 12.459980557323433,228.04554537398508 12.879941672086716,227.86176454243832 12.407485418021679,227.494202863978" stroke="#4dd2ff" stroke-linecap="round" stroke-linejoin="round" stroke-width="0.5"><title>2021-07-04 5.1km</title></polyline></svg>