<?xml version="1.0" encoding="utf-8" ?>
<svg baseProfile="full" height="300mm" version="1.1" viewBox="0,0,200,300" width="200mm" xmlns="http://www.w3.org/2000/svg" xmlns:ev="http://www.w3.org/2001/xml-events" xmlns:xlink="http://www.w3.org/1999/xlink"><defs /><rect fill="#222222" height="300" width="200" x="0" y="0" /><text fill="#FFFFFF" style="font-size:12px; font-family:Arial; font-weight:bold;" x="10" y="20">Over 2km Runs</text><text fill="#FFFFFF" style="font-size:4px; font-family:Arial" x="10" y="280">ATHLETE</text><text fill="#FFFFFF" style="font-size:9px; font-family:Arial" x="10" y="290">WonSikin</text><text fill="#FFFFFF" style="font-size:4px; font-family:Arial" x="120" y="280">STATISTICS</text><text fill="#FFFFFF" style="font-size:3px; font-family:Arial" x="120" y="285">Number: 13</text><text fill="#FFFFFF" style="font-size:3px; font-family:Arial" x="120" y="290">Weekly: 1.3</text><text fill="#FFFFFF" style="font-size:3px; font-family:Arial" x="141" y="285">Total: 45.1 km</text><text fill="#FFFFFF" style="font-size:3px; font-family:Arial" x="141" y="290">Avg: 3.5 km</text><text fill="#FFFFFF" style="font-size:3px; font-family:Arial" x="167" y="285">Min: 2.1 km</text><text fill="#FFFFFF" style="font-size:3px; font-family:Arial" x="167" y="290">Max: 5.7 km</text><polyline fill="none" points="32.559999998658895,62.282152246683836 29.679999995976686,62.282152246683836 26.07999999821186,57.24084298685193 18.87999999895692,54.36009477637708 14.559999998658895,50.038972372189164 13.839999999850988,46.438036957755685 14.559999998658895,42.837101470679045 18.16000000014901,37.07560454308987 24.640000000596046,35.635230283252895 30.399999998509884,37.79579166974872 51.28000000119209,52.19953358732164 53.439999997615814,57.24084298685193 52.71999999880791,62.282152246683836 46.95999999716878,71.64458335842937 41.91999999433756,73.80514431465417 35.439999997615814,71.64458335842937 29.679999995976686,61.56196521874517 16.719999998807907,55.80046888720244 13.119999997317791,50.75915944762528 13.839999999850988,43.55728857498616 17.439999997615814,37.07560454308987 22.480000000447035,35.635230283252895 28.95999999716878,37.79579166974872 48.399999998509884,50.038972372189164 52.0,54.36009477637708 53.439999997615814,58.68121707625687 49.11999999731779,68.76383537519723 44.79999999701977,73.08495733141899 40.479999996721745,73.80514431465417 38.31999999657273,72.36477034538984 33.99999999627471,68.76383537519723 28.239999998360872,59.401404115371406 16.719999998807907,51.47934651840478 14.559999998658895,46.438036957755685 14.559999998658895,42.116914364509284 16.719999998807907,37.07560454308987 21.03999999910593,34.915043148212135 26.07999999821186,35.635230283252895 51.28000000119209,52.91972065158188 52.71999999880791,57.24084298685193 47.67999999970198,70.20420937333256 43.35999999567866,74.52533129323274 38.31999999657273,73.80514431465417 33.99999999627471,70.20420937333256 28.239999998360872,60.121591152623296 14.559999998658895,50.038972372189164 12.399999998509884,44.9976627714932 13.119999997317791,40.67654014378786 18.16000000014901,35.635230283252895 23.91999999806285,34.915043148212135 30.399999998509884,37.07560454308987 49.8399999961257,50.038972372189164 53.439999997615814,55.80046888720244 51.28000000119209,64.44271331559867 48.399999998509884,69.48402237612754 42.639999996870756,73.80514431465417 37.599999994039536,73.08495733141899 32.559999998658895,68.76383537519723 27.519999995827675,57.96103003248572 15.279999997466803,50.038972372189164 13.839999999850988,46.438036957755685 13.839999999850988,42.116914364509284 16.0,37.07560454308987 21.03999999910593,34.19485601224005 27.519999995827675,35.635230283252895 49.8399999961257,50.038972372189164 51.28000000119209,52.19953358732164 53.439999997615814,55.80046888720244 52.71999999880791,60.84177818801254 46.95999999716878,71.64458335842937 44.79999999701977,74.52533129323274 41.91999999433756,74.52533129323274 35.439999997615814,72.36477034538984 31.839999996125698,69.48402237612754 26.07999999821186,57.96103003248572 16.0,52.19953358732164 13.839999999850988,49.318785294890404 12.399999998509884,45.71784986462444 13.839999999850988,39.95635303016752 16.719999998807907,35.635230283252895 21.03999999910593,34.19485601224005 27.519999995827675,36.35541741549969 49.11999999731779,50.038972372189164 52.71999999880791,54.36009477637708 53.439999997615814,58.68121707625687 49.11999999731779,69.48402237612754 44.79999999701977,73.08495733141899 39.03999999910593,73.08495733141899 34.71999999880791,68.76383537519723 28.95999999716878,59.401404115371406 16.719999998807907,51.47934651840478 14.559999998658895,45.71784986462444 14.559999998658895,41.39672725647688 16.0,37.79579166974872 19.599999997764826,34.19485601224005 23.91999999806285,33.47466886974871 28.95999999716878,35.635230283252895 49.11999999731779,50.038972372189164 53.439999997615814,55.080281833186746 53.439999997615814,59.401404115371406 50.559999998658895,65.88308734726161 47.67999999970198,70.20420937333256 42.639999996870756,73.08495733141899 37.599999994039536,72.36477034538984 34.71999999880791,69.48402237612754 28.239999998360872,59.401404115371406 14.559999998658895,51.47934651840478 13.119999997317791,47.158224046230316 13.119999997317791,42.837101470679045 16.0,37.79579166974872 19.599999997764826,35.635230283252895 26.800000000745058,35.635230283252895 54.87999999895692,54.36009477637708 55.600000001490116,56.52065593842417 54.15999999642372,60.121591152623296 46.95999999716878,72.36477034538984 43.35999999567866,74.52533129323274 39.75999999791384,73.80514431465417 21.03999999910593,58.68121707625687 15.279999997466803,50.75915944762528 14.559999998658895,48.598598215729 14.559999998658895,43.55728857498616 15.279999997466803,39.95635303016752 18.16000000014901,35.635230283252895 22.480000000447035,33.47466886974871 27.519999995827675,34.19485601224005 47.67999999970198,47.158224046230316 53.439999997615814,52.91972065158188 53.439999997615814,56.52065593842417 44.79999999701977,72.36477034538984 41.19999999552965,74.52533129323274 36.15999999642372,72.36477034538984 30.399999998509884,65.88308734726161 20.320000000298023,59.401404115371406 16.0,55.080281833186746 13.839999999850988,49.318785294890404 13.839999999850988,45.71784986462444 17.439999997615814,37.79579166974872 21.759999997913837,36.35541741549969 28.95999999716878,37.79579166974872 49.11999999731779,48.598598215729 51.28000000119209,50.75915944762528 53.439999997615814,55.080281833186746 52.71999999880791,60.121591152623296 46.95999999716878,73.08495733141899 43.35999999567866,75.2455182718113 37.599999994039536,71.64458335842937 36.15999999642372,68.76383537519723 32.559999998658895,65.16290033236146 28.239999998360872,57.96103003248572 18.16000000014901,53.63990771584213 14.559999998658895,50.038972372189164 13.839999999850988,42.837101470679045 17.439999997615814,34.915043148212135 22.480000000447035,32.75448172818869 28.239999998360872,34.915043148212135 48.399999998509884,47.87841113097966 52.71999999880791,52.91972065158188 52.71999999880791,60.121591152623296 47.67999999970198,70.92439636681229 42.639999996870756,74.52533129323274 37.599999994039536,73.08495733141899 32.559999998658895,68.0436483733356 30.399999998509884,59.401404115371406 28.95999999716878,57.24084298685193 26.800000000745058,55.80046888720244 18.87999999895692,54.36009477637708 15.279999997466803,50.038972372189164 14.559999998658895,44.27747567370534 16.719999998807907,38.515978790819645 22.480000000447035,34.19485601224005 30.399999998509884,35.635230283252895 49.11999999731779,49.318785294890404 52.71999999880791,54.36009477637708 52.71999999880791,57.24084298685193 46.23999999836087,72.36477034538984 41.91999999433756,73.80514431465417 37.599999994039536,71.64458335842937 31.839999996125698,65.16290033236146 28.239999998360872,57.24084298685193 16.719999998807907,50.75915944762528 14.559999998658895,47.87841113097966 13.839999999850988,42.837101470679045 14.559999998658895,38.515978790819645 16.719999998807907,35.635230283252895 21.03999999910593,32.75448172818869 26.07999999821186,33.47466886974871 46.23999999836087,47.158224046230316 51.28000000119209,52.91972065158188 52.71999999880791,59.401404115371406 47.67999999970198,70.20420937333256 44.07999999821186,72.36477034538984 39.03999999910593,71.64458335842937 35.439999997615814,68.0436483733356 28.95999999716878,57.96103003248572 16.719999998807907,50.75915944762528 13.839999999850988,42.116914364509284 18.87999999895692,32.75448172818869 26.07999999821186,34.19485601224005 30.399999998509884,36.35541741549969 39.75999999791384,43.55728857498616 51.28000000119209,50.75915944762528 53.439999997615814,54.36009477637708 53.439999997615814,57.96103003248572 46.23999999836087,72.36477034538984 42.639999996870756,74.52533129323274 36.87999999895692,72.36477034538984 31.11999999731779,66.60327435843647 27.519999995827675,58.68121707625687 18.16000000014901,52.91972065158188 14.559999998658895,49.318785294890404 14.559999998658895,42.116914364509284 17.439999997615814,35.635230283252895 22.480000000447035,32.75448172818869 28.239999998360872,33.47466886974871 37.599999994039536,40.67654014378786 49.11999999731779,47.87841113097966 53.439999997615814,52.91972065158188 53.439999997615814,56.52065593842417 47.67999999970198,72.36477034538984 44.07999999821186,73.80514431465417 39.75999999791384,73.08495733141899 35.439999997615814,68.76383537519723 28.239999998360872,55.080281833186746 16.719999998807907,48.598598215729 14.559999998658895,45.71784986462444 14.559999998658895,42.116914364509284 18.16000000014901,35.635230283252895 23.91999999806285,32.75448172818869 31.839999996125698,35.635230283252895 43.35999999567866,44.9976627714932 49.8399999961257,52.91972065158188 51.28000000119209,56.52065593842417 50.559999998658895,60.121591152623296 44.79999999701977,72.36477034538984 41.91999999433756,73.08495733141899 36.87999999895692,70.92439636681229 18.16000000014901,52.19953358732164 14.559999998658895,47.158224046230316 14.559999998658895,41.39672725647688 16.719999998807907,36.35541741549969 21.759999997913837,32.75448172818869 26.07999999821186,32.75448172818869 30.399999998509884,35.635230283252895 49.11999999731779,50.038972372189164 53.439999997615814,55.80046888720244 53.439999997615814,58.68121707625687 48.399999998509884,67.32346136681736 47.67999999970198,71.64458335842937 46.95999999716878,73.80514431465417 44.79999999701977,74.52533129323274 37.599999994039536,72.36477034538984 34.71999999880791,69.48402237612754 30.399999998509884,60.121591152623296 26.800000000745058,57.96103003248572" stroke="#4dd2ff" stroke-linecap="round" stroke-linejoin="round" stroke-width="0.5"><title>2022-04-22 3.3km</title></polyline><polyline fill="none" points="85.28695652168244,59.949376297648996 83.90956521732733,59.19787674001418 82.28173913015053,57.820127504877746 81.27999999979511,57.19387783273123 80.027826086618,57.06862789671868 79.27652173954993,57.69487757142633 79.27652173954993,58.57162709510885 79.90260869544,59.824126372579485 81.90608695615083,61.07662559999153 83.40869565214962,63.20587417227216 84.91130434768274,64.20787345035933 85.28695652168244,64.08262354228646 84.91130434768274,63.080624260241166 85.28695652168244,61.07662559999153 84.53565217368305,59.824126372579485 79.90260869544,57.06862789671868 79.27652173954993,57.06862789671868 78.77565217390656,57.19387783273123 78.39999999990687,57.820127504877746 78.39999999990687,58.8221269545611 78.90086956555024,59.57362652104348 81.27999999979511,60.9513756793458 82.0313043477945,61.45237535843626 83.6591304349713,63.456373994704336 84.28521739086136,63.832123724743724 85.16173913003877,63.706873815273866 85.53739130403847,63.20587417227216 86.03826086921617,61.32712543942034 86.03826086921617,60.70087583689019 85.66260869568214,60.074626221787184 80.4034782606177,57.19387783273123 79.40173912979662,57.19387783273123 78.77565217390656,57.820127504877746 78.77565217390656,58.57162709510885 79.40173912979662,59.57362652104348 81.90608695615083,61.45237535843626 82.90782608697191,62.95537434774451 83.78434782614931,63.706873815273866 84.53565217368305,63.58162390533835 85.16173913003877,62.83012443454936 85.53739130403847,61.32712543942034 85.53739130403847,60.450375992339104 85.28695652168244,60.074626221787184 83.6591304349713,58.69687702530064 80.4034782606177,57.06862789671868 79.40173912979662,57.19387783273123 78.77565217390656,57.9453774378635 78.77565217390656,58.57162709510885 79.15130434790626,59.32312666764483 79.90260869544,60.074626221787184 81.78086956497282,61.32712543942034 83.1582608697936,63.331124083837494 84.03478260803968,63.832123724743724 84.91130434768274,63.706873815273866 85.41217391239479,63.080624260241166 86.03826086921617,61.32712543942034 85.78782608686015,60.3251260695979 80.90434782579541,57.19387783273123 80.15304347779602,56.94337796024047 79.52695652190596,57.06862789671868 78.90086956555024,57.9453774378635 79.27652173954993,59.32312666764483 80.027826086618,60.074626221787184 81.90608695615083,61.32712543942034 82.90782608697191,63.080624260241166 83.6591304349713,63.706873815273866 84.53565217368305,63.832123724743724 84.91130434768274,63.456373994704336 85.91304347803816,60.9513756793458 85.66260869568214,60.074626221787184 84.53565217368305,59.0726268121507 81.02956521743909,56.818128023529425 80.027826086618,56.818128023529425 79.40173912979662,57.31912776804529 79.27652173954993,58.44637716491707 80.15304347779602,60.074626221787184 83.28347826050594,63.20587417227216 84.15999999968335,63.706873815273866 84.78608695603907,63.706873815273866 85.28695652168244,63.080624260241166 86.16347826039419,60.82612575846724 85.91304347803816,59.949376297648996 83.1582608697936,57.9453774378635 81.27999999979511,56.818128023529425 80.7791304346174,56.818128023529425 80.15304347779602,56.94337796024047 79.65217391261831,57.569627637276426 79.65217391261831,58.69687702530064 79.90260869544,59.448376594576985 82.28173913015053,60.9513756793458 83.28347826050594,62.83012443454936 84.41043478203937,63.706873815273866 85.03652173886076,63.58162390533835 85.28695652168244,63.331124083837494 86.28869565203786,61.07662559999153 86.41391304368153,60.074626221787184 86.03826086921617,59.69887644704431 81.15478260815144,56.818128023529425 80.027826086618,56.94337796024047 79.65217391261831,57.569627637276426 79.65217391261831,58.44637716491707 79.90260869544,59.0726268121507 80.52869565179572,59.824126372579485 82.0313043477945,60.57562591484748 82.53217391297221,61.20187551993877 83.6591304349713,63.331124083837494 85.66260869568214,64.83412298327312 90.54608695628121,70.09461856633425 91.29739130428061,70.47036821744405 91.92347826063633,70.34511833405122 92.54956521745771,69.7188689110335 94.17739130416885,67.08862119796686 94.80347826052457,65.96137211052701 95.30434782616794,64.08262354228646 96.93217391287908,61.07662559999153 98.55999999959022,59.69887644704431 99.937391304411,58.32112723379396 102.31652173912153,56.94337796024047 106.32347826100886,55.816128509817645 114.46260869549587,58.19587730220519 116.59130434738472,58.94737688382156 117.2173913042061,59.0726268121507 117.84347826056182,58.8221269545611 118.34434782573953,57.820127504877746 120.84869565162808,50.680880502332 121.59999999962747,47.299131356645375 121.59999999962747,45.92138160066679 120.97391304327175,44.79413175559603 119.72173913009465,43.79213185887784 115.33913043467328,41.16188197862357 113.08521739114076,40.15988196642138 111.20695652160794,39.032631914597005 107.70086956489831,37.52963178232312 105.94782608700916,37.52963178232312 104.57043478265405,37.780131809646264 103.44347826065496,38.28113185754046 101.81565217394382,39.65888194856234 101.06434782594442,40.66088197682984 99.81217391276732,43.41638188948855 99.43652173876762,43.917381847742945 97.68347826087847,44.91938174027018 96.93217391287908,45.796131619950756 95.55478260852396,48.92738099070266 93.42608695616946,52.05863004992716 92.04869565228,55.31512874108739 91.79826086945832,57.19387783273123 92.4243478262797,58.8221269545611 92.04869565228,59.949376297648996 91.1721739131026,60.450375992339104 88.04173913039267,60.3251260695979 87.41565217403695,60.450375992339104 86.91478260839358,61.07662559999153 86.16347826039419,62.70487452112138 85.66260869568214,63.331124083837494 84.53565217368305,63.456373994704336 83.40869565214962,62.95537434774451 82.0313043477945,61.07662559999153 80.15304347779602,60.074626221787184 79.27652173954993,59.32312666764483 79.15130434790626,57.820127504877746 79.65217391261831,56.94337796024047 80.52869565179572,56.69287808588706 81.53043478215113,56.94337796024047 86.03826086921617,59.69887644704431 86.28869565203786,60.450375992339104 86.16347826039419,60.82612575846724 85.28695652168244,62.078624945832416 84.91130434768274,63.331124083837494 84.03478260803968,63.58162390533835 83.1582608697936,63.080624260241166 81.90608695615083,61.07662559999153 79.40173912979662,59.824126372579485 78.90086956555024,58.94737688382156 78.90086956555024,58.19587730220519 79.40173912979662,57.19387783273123 79.90260869544,56.818128023529425 80.65391304343939,56.69287808588706 81.6556521737948,57.19387783273123 85.41217391239479,59.69887644704431 86.03826086921617,60.3251260695979 86.03826086921617,60.57562591484748 84.28521739086136,63.58162390533835 82.90782608697191,62.83012443454936 81.40521739143878,60.70087583689019 79.27652173954993,59.949376297648996 78.65043478226289,58.8221269545611 78.77565217390656,58.19587730220519 79.27652173954993,57.19387783273123 79.77739130379632,56.69287808588706 80.4034782606177,56.56762814801186 82.0313043477945,57.19387783273123 85.03652173886076,59.19787674001418 85.91304347803816,59.949376297648996 86.16347826039419,60.57562591484748 86.16347826039419,61.20187551993877 85.78782608686015,61.95337502937764 85.53739130403847,63.331124083837494 85.28695652168244,63.456373994704336 84.66086956486106,63.58162390533835 83.40869565214962,63.080624260241166 82.7826086957939,62.32912477734499 81.90608695615083,60.9513756793458 81.40521739143878,60.57562591484748 79.65217391261831,59.824126372579485 79.02608695626259,59.32312666764483 78.65043478226289,58.07062737038359 78.77565217390656,57.44437770312652 79.27652173954993,56.69287808588706 80.027826086618,56.317128270631656 81.27999999979511,56.69287808588706 83.28347826050594,58.19587730220519" stroke="#4dd2ff" stroke-linecap="round" stroke-linejoin="round" stroke-width="0.5"><title>2022-04-18 3.3km</title></polyline><polyline fill="none" points="160.05518727656454,35.754355554585345 160.36004946753383,35.55106129113119 160.5632909280248,35.04282562516164 157.92115193977952,33.00988286093343 157.41304828831926,32.80658857570961 156.80332390638068,32.80658857570961 156.1935995244421,33.00988286093343 155.78711660392582,33.416471426491626 155.6854958734475,33.82305998611264 155.6854958734475,34.5345899494132 156.09197879442945,35.246119892806746 158.0227726707235,36.56753259245306 159.03897997317836,38.09223946859129 159.64870435511693,38.60047507379204 160.36004946753383,38.60047507379204 160.5632909280248,38.19388659030665 161.47787750093266,35.856002685730346 161.47787750093266,35.34776702604722 160.9697738494724,34.7378842207836 158.3276348616928,32.80658857570961 157.41304828831926,32.39999999990687 156.70170317636803,32.501647144556046 156.09197879442945,33.11153000302147 155.88873733347282,34.0263542633038 156.1935995244421,34.941178490873426 158.0227726707235,36.26259120623581 159.14060070365667,37.68565097707324 159.64870435511693,37.99059234641027 160.36004946753383,37.99059234641027 160.9697738494724,37.27906247926876 161.2746360404417,36.16094407660421 161.17301530996338,35.14447275933344 159.44546289462596,33.72141284670215 157.92115193977952,32.80658857570961 157.10818609734997,32.70494143210817 156.60008244635537,32.80658857570961 156.39684098539874,33.11153000302147 156.29522025538608,33.416471426491626 156.29522025538608,34.12800140143372 156.70170317636803,35.04282562516164 158.3276348616928,36.364238335285336 159.03897997317836,37.888945223763585 159.64870435511693,38.29553371190559 160.36004946753383,38.19388659030665 160.76653238851577,37.58400385337882 161.2746360404417,36.05929694673978 161.2746360404417,35.55106129113119 161.07139457995072,35.14447275933344 159.54708362510428,33.82305998611264 157.71791047928855,32.80658857570961 156.70170317636803,32.90823571837973 156.09197879442945,33.72141284670215 156.09197879442945,34.12800140143372 156.4984617154114,34.941178490873426 158.0227726707235,36.16094407660421 159.03897997317836,37.78729810065124 159.85194581607357,38.29553371190559 160.15680800704286,38.19388659030665 160.36004946753383,37.99059234641027 161.17301530996338,36.364238335285336 161.2746360404417,35.55106129113119 160.9697738494724,35.04282562516164 160.05518727656454,34.22964853886515 157.92115193977952,32.90823571837973 157.20980682829395,32.80658857570961 156.80332390638068,33.00988286093343 156.29522025538608,33.924707124824636 156.39684098539874,35.04282562516164 156.70170317636803,35.44941415858921 158.2260141307488,36.669179720338434 158.93735924363136,37.888945223763585 160.76653238851577,39.312004903913476 164.72974087111652,43.37788926810026 165.54270671354607,44.49600735481363 165.84756890451536,45.51247830025386 164.9329823316075,46.833890469162725 164.72974087111652,47.64706715452485 165.0346030620858,48.46024381404277 166.5589140164666,49.98494998086244 167.27025912888348,51.20471484877635 167.3718798593618,52.32283259322867 166.9653969379142,55.16895026806742 167.16863839840516,57.20189127046615 167.87998351082206,58.72659691609442 168.79457008372992,60.048008402460255 169.2010530042462,61.26777279051021 170.42050176812336,62.79247819422744 169.81077738618478,61.97930199012626 169.2010530042462,61.77600793517195 166.86377620743588,62.08094901707955 165.64432744402438,62.69083117006812 164.72974087111652,63.80894841288682 164.2216372191906,65.2320066508837 164.2216372191906,66.24847677256912 164.6281201406382,67.56988787068985 165.84756890451536,69.39953389379662 168.38808716228232,71.83906172111165 170.82698469003662,74.78682420239784 171.43670907150954,75.29505907883868 172.14805418346077,75.49835302657448 173.36750294733793,75.29505907883868 174.2820895202458,74.68517722620163 175.2982968231663,73.66870743932668 176.3145041265525,70.21270986180753 176.0096419355832,69.19623989739921 168.79457008372992,62.38589009526186 167.87998351082206,62.08094901707955 167.06701766792685,61.97930199012626 166.45729328645393,62.18259604356717 165.54270671354607,62.69083117006812 164.72974087111652,63.60565437225159 164.01839575869963,65.0287126217736 163.9167750282213,65.74024171673227 163.9167750282213,67.16329984762706 164.72974087111652,68.48471089836676 166.6605347469449,70.31435685628094 167.87998351082206,72.55059062689543 168.79457008372992,73.66870743932668 170.72536395909265,75.09176512970589 171.43670907150954,75.39670605317224 172.55453710537404,75.49835302657448 173.5707444078289,75.09176512970589 174.89181390218437,74.17694233777002 175.80640047509223,72.85553158062976 176.11126266606152,71.63576774450485 176.0096419355832,70.31435685628094 175.50153828412294,69.09459289885126 174.38371025025845,67.56988787068985 172.55453710537404,65.84188872890081 169.40429446520284,62.89412521768827 168.18484570179135,62.28424306970555 167.16863839840516,62.08094901707955 166.2540518254973,62.38589009526186 164.72974087111652,63.60565437225159 164.2216372191906,64.52047754172236 164.01839575869963,66.35012378264219 164.42487868014723,67.77318187966011 164.9329823316075,68.68800490011927 167.06701766792685,71.22917978593614 168.79457008372992,72.6522376119392 170.42050176812336,74.68517722620163 171.43670907150954,75.49835302657448 172.04643345344812,75.59999999997672 172.85939929634333,75.49835302657448 174.07884805975482,74.88847117871046 175.70477974461392,73.05882554780692 176.11126266606152,71.9407087090658 176.0096419355832,70.21270986180753 175.50153828412294,68.89129890059121 174.2820895202458,67.67153487540781 171.74157126247883,64.62212455854751 170.3188810381107,63.30071330838837 169.0994322746992,61.674360907054506 169.0994322746992,61.06447872996796 169.5059151952155,60.25130247103516 169.5059151952155,59.33647914917674 168.6929493532516,56.08377373893745 168.6929493532516,51.103067778632976 168.38808716228232,49.88330290571321 166.6605347469449,47.13883172930218 166.5589140164666,46.732243381789885 167.16863839840516,45.10588992713019 166.86377620743588,44.59765445126686 166.45729328645393,44.19106606359128 165.23784452257678,43.37788926810026 164.2216372191906,42.361418237676844 163.20542991627008,40.83671161625534 163.20542991627008,40.43012316862587 163.40867137676105,39.92188759997953 164.42487868014723,38.49882795335725 164.3232579496689,37.68565097707324 162.08760188287124,35.04282562516164 160.36004946753383,33.924707124824636 158.2260141307488,32.90823571837973 157.20980682829395,32.70494143210817 156.60008244635537,32.80658857570961 155.88873733347282,33.416471426491626 155.78711660392582,34.22964853886515 156.09197879442945,34.839531356235966 157.51466901926324,35.856002685730346 158.73411778267473,37.58400385337882 159.3438421646133,37.99059234641027 160.05518727656454,38.09223946859129 160.36004946753383,37.888945223763585 161.37625677045435,36.56753259245306 161.57949823141098,35.754355554585345 161.17301530996338,35.04282562516164 160.36004946753383,34.33129567618016 159.14060070365667,33.82305998611264 157.81953120976686,32.90823571837973 158.63249705266207,37.177415353711694 159.14060070365667,37.78729810065124 160.15680800704286,38.19388659030665 160.66491165850312,37.78729810065124 160.76653238851577,37.177415353711694 160.2584287370555,36.46588546410203 159.3438421646133,35.754355554585345 159.95356654608622,35.44941415858921" stroke="#4dd2ff" stroke-linecap="round" stroke-linejoin="round" stroke-width="0.5"><title>2022-04-15 3.3km</title></polyline><polyline fill="none" points="49.57628124952316,108.01967333909124 49.57628124952316,107.31147664040327 50.99230681732297,103.77049310412258 48.868268463760614,98.81311603449285 33.29198721796274,86.06557436659932 24.795833807438612,81.81639360822737 19.839744318276644,82.5245904084295 17.71570596843958,83.94098400045186 15.591667618602514,86.77377114910632 15.591667618602514,93.14754207339138 19.131731536239386,100.93770622462034 31.875961646437645,108.01967333909124 34.70801278203726,112.97705015167594 35.4160255715251,115.80983684118837 40.372115056961775,122.89180336426944 45.32820454612374,123.59999999962747 47.4522428996861,121.47541008051485 49.57628124952316,112.97705015167594 53.82435795292258,103.77049310412258 53.82435795292258,100.2295094979927 51.70031960308552,97.39672256167978 34.70801278203726,88.19016470760107 19.131731536239386,84.64918079040945 16.299680396914482,86.06557436659932 13.46762926504016,90.31475502345711 13.46762926504016,94.5639355815947 15.591667618602514,99.52131276857108 19.839744318276644,102.35409966949373 31.167948864400387,103.77049310412258 36.124038353562355,105.89508323464543 38.95608948916197,109.43606672808528 43.20416619256139,118.64262348320335 45.32820454612374,120.05901678744704 47.4522428996861,119.35082013718784 50.28429403156042,112.26885347254574 51.70031960308552,103.77049310412258 49.57628124952316,98.81311603449285 34.70801278203726,86.06557436659932 28.335897725075483,83.23278720490634 22.671795453876257,83.94098400045186 18.423718750476837,90.31475502345711 18.423718750476837,97.39672256167978 21.963782671839,101.64590294938534 31.167948864400387,105.18688652664423 34.70801278203726,113.68524682894349 38.24807670339942,118.64262348320335 43.20416619256139,120.76721343677491 46.74423011392355,120.05901678744704 48.868268463760614,117.2262301677838 52.408332385122776,108.01967333909124 53.116345170885324,101.64590294938534 51.70031960308552,98.10491930041462 45.32820454612374,91.02295179106295 36.124038353562355,84.64918079040945 27.627884946763515,82.5245904084295 21.963782671839,85.35737758036703 19.131731536239386,91.73114855308086 19.131731536239386,100.2295094979927 21.963782671839,105.18688652664423 34.0,111.56065679062158 40.372115056961775,117.9344268264249 45.32820454612374,119.35082013718784 49.57628124952316,117.2262301677838 53.116345170885324,112.26885347254574 54.53237073495984,107.31147664040327 54.53237073495984,103.0622963886708 51.70031960308552,98.81311603449285 38.95608948916197,87.48196793161333 30.45993607863784,83.94098400045186 23.379808239638805,83.94098400045186 21.25576988980174,85.35737758036703 19.131731536239386,89.60655825678259 19.131731536239386,95.27213232964277 24.087821025401354,104.47868981771171 35.4160255715251,110.85246010590345 43.20416619256139,118.64262348320335 47.4522428996861,119.35082013718784 49.57628124952316,115.10164017323405 51.70031960308552,105.89508323464543 49.57628124952316,100.93770622462034 38.95608948916197,88.19016470760107 30.45993607863784,83.94098400045186 24.087821025401354,83.94098400045186 19.839744318276644,86.06557436659932 17.71570596843958,90.31475502345711 17.71570596843958,94.5639355815947 21.25576988980174,103.0622963886708 33.29198721796274,109.43606672808528 38.24807670339942,118.64262348320335 41.78814062476158,120.76721343677491 46.74423011392355,120.76721343677491 50.28429403156042,115.10164017323405 52.408332385122776,106.60327993985265 52.408332385122776,101.64590294938534 49.57628124952316,96.6885258210823 38.24807670339942,86.77377114910632 29.04391051083803,83.23278720490634 22.671795453876257,83.94098400045186 19.131731536239386,87.48196793161333 17.71570596843958,89.60655825678259 17.71570596843958,96.6885258210823 20.547757104039192,101.64590294938534 29.75192329660058,108.01967333909124 36.124038353562355,118.64262348320335 41.78814062476158,120.05901678744704 48.160255681723356,117.9344268264249 49.57628124952316,116.5180335054174 52.408332385122776,110.85246010590345 52.408332385122776,103.0622963886708 50.99230681732297,100.2295094979927 45.32820454612374,94.5639355815947 31.875961646437645,83.23278720490634 25.50384659320116,81.81639360822737 20.547757104039192,83.23278720490634 17.71570596843958,87.48196793161333 17.71570596843958,94.5639355815947 22.671795453876257,101.64590294938534 30.45993607863784,105.89508323464543 36.124038353562355,117.2262301677838 38.24807670339942,118.64262348320335 44.620191760361195,119.35082013718784 49.57628124952316,116.5180335054174 53.82435795292258,108.01967333909124 53.82435795292258,101.64590294938534 50.99230681732297,96.6885258210823 38.24807670339942,87.48196793161333 27.627884946763515,83.23278720490634 24.087821025401354,83.94098400045186 20.547757104039192,84.64918079040945 17.00769318267703,91.73114855308086 17.00769318267703,95.27213232964277 19.131731536239386,100.2295094979927 40.372115056961775,117.9344268264249 45.32820454612374,118.64262348320335 51.70031960308552,114.39344350155443 53.82435795292258,109.43606672808528 53.82435795292258,103.0622963886708 52.408332385122776,100.93770622462034 44.620191760361195,91.73114855308086 33.29198721796274,83.94098400045186 26.21185937523842,82.5245904084295 20.547757104039192,86.06557436659932 19.131731536239386,88.19016470760107 17.71570596843958,97.39672256167978 20.547757104039192,103.77049310412258 24.795833807438612,106.60327993985265 33.29198721796274,110.14426341839135 36.83205113559961,115.80983684118837 41.78814062476158,118.64262348320335 47.4522428996861,118.64262348320335 50.28429403156042,115.80983684118837 52.408332385122776,112.26885347254574 53.82435795292258,105.89508323464543 51.70031960308552,100.93770622462034 34.70801278203726,84.64918079040945 29.04391051083803,81.10819680429995 24.795833807438612,81.81639360822737 19.839744318276644,85.35737758036703 17.71570596843958,90.31475502345711 17.71570596843958,94.5639355815947 19.839744318276644,99.52131276857108 21.963782671839,102.35409966949373 31.167948864400387,108.01967333909124 39.66410227492452,119.35082013718784 47.4522428996861,120.05901678744704 49.57628124952316,118.64262348320335 51.70031960308552,114.39344350155443 53.116345170885324,109.43606672808528 53.116345170885324,103.77049310412258 51.70031960308552,100.93770622462034 46.74423011392355,93.8557388279587 38.95608948916197,88.19016470760107 24.087821025401354,86.77377114910632 22.671795453876257,87.48196793161333 19.131731536239386,95.27213232964277 19.131731536239386,100.2295094979927 20.547757104039192,104.47868981771171 22.671795453876257,106.60327993985265 34.0,111.56065679062158 41.78814062476158,117.2262301677838 45.32820454612374,117.9344268264249 50.99230681732297,115.10164017323405 53.116345170885324,103.77049310412258 51.70031960308552,99.52131276857108 40.372115056961775,88.89836148358881 31.167948864400387,82.5245904084295 26.21185937523842,81.10819680429995 19.839744318276644,83.94098400045186 17.71570596843958,90.31475502345711 17.71570596843958,93.14754207339138 19.839744318276644,98.81311603449285 31.167948864400387,105.89508323464543 38.24807670339942,118.64262348320335 42.49615340679884,122.18360672332346 46.74423011392355,122.18360672332346 53.82435795292258,107.31147664040327 53.82435795292258,103.0622963886708 50.28429403156042,98.81311603449285 36.83205113559961,88.89836148358881 29.04391051083803,83.94098400045186 24.795833807438612,82.5245904084295 20.547757104039192,83.94098400045186 17.71570596843958,86.77377114910632 17.71570596843958,95.27213232964277 18.423718750476837,98.10491930041462 21.963782671839,103.77049310412258 32.58397443220019,113.68524682894349 38.95608948916197,117.2262301677838 45.32820454612374,118.64262348320335 49.57628124952316,117.2262301677838 53.82435795292258,110.85246010590345 53.82435795292258,103.77049310412258 50.99230681732297,98.81311603449285 38.24807670339942,87.48196793161333 29.04391051083803,83.23278720490634 22.671795453876257,84.64918079040945 17.71570596843958,93.14754207339138 19.839744318276644,98.81311603449285 31.875961646437645,106.60327993985265 34.70801278203726,110.14426341839135 38.95608948916197,119.35082013718784 42.49615340679884,122.89180336426944 45.32820454612374,122.89180336426944 47.4522428996861,120.05901678744704 53.116345170885324,105.18688652664423 53.116345170885324,101.64590294938534 50.28429403156042,97.39672256167978 34.70801278203726,85.35737758036703 26.919872161000967,82.5245904084295 21.25576988980174,83.23278720490634 17.71570596843958,86.06557436659932 16.299680396914482,92.43934531603009 19.839744318276644,99.52131276857108 29.04391051083803,105.18688652664423 36.124038353562355,117.9344268264249 40.372115056961775,121.47541008051485 45.32820454612374,122.89180336426944 47.4522428996861,119.35082013718784 53.82435795292258,103.0622963886708 51.70031960308552,98.81311603449285 41.08012784272432,91.02295179106295 35.4160255715251,85.35737758036703 23.379808239638805,80.40000000037253 19.839744318276644,81.10819680429995 16.299680396914482,86.06557436659932 17.71570596843958,94.5639355815947 21.963782671839,101.64590294938534 33.29198721796274,108.72787003591657 38.24807670339942,118.64262348320335 40.372115056961775,120.76721343677491 46.74423011392355,122.89180336426944 50.99230681732297,120.05901678744704 51.70031960308552,112.97705015167594 54.53237073495984,105.89508323464543 53.82435795292258,102.35409966949373 38.95608948916197,87.48196793161333 38.24807670339942,86.77377114910632 17.00769318267703,98.10491930041462" stroke="#4dd2ff" stroke-linecap="round" stroke-linejoin="round" stroke-width="0.5"><title>2022-04-13 3.4km</title></polyline><polyline fill="none" points="93.17535314429551,84.57736167043913 92.5641907393001,84.9849091139622 91.74930753279477,84.9849091139622 91.24000552855432,84.67924853193108 90.22140152007341,83.45660616725218 89.91582031734288,82.84528496302664 89.81395991705358,82.23396374413278 90.42512232158333,81.01132126280572 90.93442432628945,80.80754751025233 91.44372633006424,80.90943438652903 93.37907394627109,82.03019000135828 94.90697995852679,83.25283243402373 95.21256116079167,83.96604049298912 95.1107007600367,84.47547480859794 94.09209675202146,86.1056645505596 93.58279474731535,86.20755140588153 92.66605114005506,85.59623026719783 91.95302833383903,84.27170108351856 90.73070352431387,83.45660616725218 90.32326192082837,83.04905869951472 90.0176807185635,82.43773748539388 90.0176807185635,81.7245293839369 90.52698272233829,81.01132126280572 91.24000552855432,80.90943438652903 92.5641907393001,82.03019000135828 94.70325915701687,83.45660616725218 95.00884035928175,84.27170108351856 94.70325915701687,85.29056969238445 94.19395715277642,86.1056645505596 93.88837595004588,86.20755140588153 93.37907394627109,86.20755140588153 92.76791154081002,85.69811712461524 90.52698272233829,83.45660616725218 90.11954111931846,82.53962435538415 90.11954111931846,81.7245293839369 90.62884312355891,81.01132126280572 91.1381451273337,80.90943438652903 91.64744713157415,81.11320813826751 92.76791154081002,81.82641625683755 94.70325915701687,83.55849303328432 95.00884035928175,83.96604049298912 95.1107007600367,84.47547480859794 94.19395715277642,86.41132511536125 94.19395715277642,86.92075938242488 94.39767795428634,87.43019363924395 98.98139599198475,92.1169883266557 99.89813959924504,92.8301961387042 100.20372080197558,93.23774345091078 100.30558120273054,93.95095123187639 99.49069799622521,95.58114037069026 99.49069799622521,96.19246127118822 101.12046440923586,98.84151833737269 101.4260456119664,99.4528391599888 101.32418521121144,103.01887700147927 101.83348721498623,106.38114079739898 102.8520912239328,108.01132914610207 102.9539516242221,109.3358571032295 103.15767242619768,110.04906443634536 103.56511402921751,110.66038499155547 104.3799972361885,111.27170553267933 103.56511402921751,110.35472471581306 102.54651002120227,110.04906443634536 100.71302280575037,110.55849823344033 99.69441879773512,111.16981877677608 98.87953559076414,112.08679956465494 98.16651278501377,113.51321405789349 98.0646523842588,114.83774173096754 98.37023358652368,116.06038259912748 99.49069799622521,117.69057033304125 102.64837042195722,121.35849235544447 103.46325362846255,122.17358606704511 104.68557843845338,123.09056646144018 105.80604284768924,123.59999999997672 106.72278645494953,123.59999999997672 107.94511126494035,123.39622658595908 108.96371527342126,122.68301962374244 109.98231928190216,120.74717205483466 110.28790048416704,119.11698451510165 110.08417968265712,117.99623052135576 109.47301727766171,116.87547647918109 104.3799972361885,111.47547904297244 103.15767242619768,110.7622717495542 102.13906841771677,110.55849823344033 100.81488320697099,110.66038499155547 99.79627919849008,111.06793202064 98.98139599198475,111.67925255163573 98.16651278501377,112.90189357055351 97.96279198350385,114.22642127505969 98.26837318576872,115.44906217220705 99.18511679349467,117.38491014076862 100.30558120273054,118.81132433970924 103.76883483072743,122.27547277905978 104.99115964071825,123.29433987813536 106.11162404995412,123.59999999997672 107.33394885994494,123.39622658595908 108.65813407115638,122.58113291300833 109.57487767841667,121.46037907083519 110.08417968265712,120.33962517953478 110.28790048416704,119.21887123945635 110.18604008341208,118.50566416082438 109.57487767841667,116.67170301161241 108.96371527342126,115.85660912527237 107.53766966192052,114.93962847231887 106.62092605466023,113.818874296383 104.88929924042895,111.9849128118949 104.17627643421292,110.86415850697085 103.76883483072743,109.6415173910791 103.46325362846255,109.6415173910791 103.76883483072743,105.8717069174163 102.9539516242221,102.91699021286331 102.44464961998165,98.33208430756349 102.03720801696181,97.61887664848473 100.71302280575037,95.68302718852647 100.4074416034855,95.173593095853 100.50930200470611,94.76604581426363 100.81488320697099,94.15472488000523 100.71302280575037,93.44151710474398 99.38883759500459,91.30189365998376 97.24976917775348,89.56981740728952 96.84232757426798,89.16227003687527 96.84232757426798,88.55094896862283 97.24976917775348,87.22641993768048 97.14790877653286,86.51321196963545 96.33302557002753,85.69811712461524 95.5181423635222,84.37358794617467 92.76791154081002,81.2150950137293 92.15674913581461,80.80754751025233 91.74930753279477,80.70566063316073 91.0362847270444,80.80754751025233 90.32326192082837,81.2150950137293 89.71209951583296,82.03019000135828 89.71209951583296,82.53962435538415 89.91582031734288,83.15094556694385 91.85116793354973,84.9849091139622 93.17535314429551,85.80000398179982 94.60139875579625,85.49434340931475 95.21256116079167,85.18868283333723 95.41628196230158,84.7811353931902 95.5181423635222,84.1698142203968 95.41628196230158,83.66037989861798 95.21256116079167,83.25283243402373 93.6846551480703,82.13207687286194 91.44372633006424,81.11320813826751 90.42512232158333,81.01132126280572 89.81395991705358,81.316981888609 89.71209951583296,81.7245293839369 89.81395991705358,82.23396374413278 91.1381451273337,83.8641536287032 91.44372633006424,85.08679597405717 92.46233033854514,86.1056645505596 93.17535314429551,86.20755140588153 94.70325915701687,85.29056969238445 95.21256116079167,84.67924853193108 95.1107007600367,83.45660616725218 94.29581755306572,82.33585061517078 92.66605114005506,81.41886876302306 91.54558673128486,81.11320813826751 90.62884312355891,81.316981888609 90.22140152007341,81.92830312915612 90.42512232158333,82.64151122490875 91.34186592884362,83.66037989861798 91.74930753279477,85.18868283333723 92.05488873505965,85.69811712461524 92.9716323427856,86.41132511536125 93.99023635080084,86.51321196963545 94.4995383550413,86.1056645505596 95.00884035928175,84.0679273569258 94.19395715277642,82.64151122490875 93.17535314429551,81.316981888609 92.66605114005506,81.01132126280572 91.85116793354973,81.01132126280572 90.83256392506883,81.2150950137293 90.11954111931846,81.7245293839369 89.91582031734288,82.33585061517078 89.91582031734288,83.04905869951472 90.62884312355891,84.47547480859794 91.44372633006424,85.08679597405717 92.66605114005506,85.49434340931475 93.99023635080084,86.30943826085422 94.39767795428634,86.20755140588153 94.70325915701687,85.90189083828591 94.90697995852679,84.88302225375082 94.80511955730617,83.25283243402373 94.19395715277642,82.23396374413278 92.5641907393001,80.80754751025233 91.85116793354973,80.50188687816262 91.34186592884362,80.50188687816262 90.73070352431387,80.80754751025233 90.32326192082837,81.2150950137293 89.91582031734288,82.03019000135828 89.91582031734288,82.74339809431694 90.42512232158333,83.55849303328432 91.64744713157415,84.27170108351856 92.05488873505965,85.49434340931475 92.5641907393001,86.1056645505596 93.48093434656039,86.41132511536125 94.60139875579625,86.30943826085422 94.80511955730617,85.29056969238445 95.41628196230158,84.57736167043913 95.5181423635222,83.8641536287032 95.1107007600367,83.3547193009872 91.54558673128486,80.80754751025233 90.83256392506883,80.40000000002328 90.32326192082837,80.6037737558363 89.91582031734288,81.316981888609 89.71209951583296,82.33585061517078 90.83256392506883,83.76226676395163 91.34186592884362,85.39245655108243 92.46233033854514,86.20755140588153 93.0734927430749,86.41132511536125 93.58279474731535,86.30943826085422 94.09209675202146,86.00377769465558 94.39767795428634,85.49434340931475 94.29581755306572,85.18868283333723 94.70325915701687,85.08679597405717 93.58279474731535,84.7811353931902" stroke="#4dd2ff" stroke-linecap="round" stroke-linejoin="round" stroke-width="0.5"><title>2022-04-09 3.1km</title></polyline><polyline fill="none" points="173.68613881617785,107.49152660835534 174.41815203428268,96.50847576186061 144.40560999885201,89.18644149880856 176.61419169604778,120.67118676099926 183.93432389572263,98.70508598349988 156.84983474761248,83.32881387788802 148.06567610800266,88.45423805806786 178.07821813598275,121.40339007414877 183.93432389572263,100.16949278302491 148.06567610800266,87.72203461173922 179.54224457591772,119.93898344319314 184.66633712127805,97.24067917186767 148.7976893223822,86.25762771256268 177.3462049178779,119.20678012352437 185.39835034310818,99.43728938512504 159.04587440565228,84.06101734191179 148.06567610800266,88.45423805806786 176.61419169604778,119.93898344319314 186.13036356121302,98.70508598349988 157.5818479694426,83.32881387788802 147.33366288244724,87.72203461173922 177.3462049178779,120.67118676099926 186.13036356121302,95.77627234905958 157.5818479694426,81.13220347464085 148.06567610800266,88.45423805806786 178.81023135781288,119.20678012352437 184.66633712127805,97.24067917186767 148.7976893223822,85.52542425785214 177.3462049178779,119.20678012352437 186.86237677931786,98.70508598349988 158.31386119127274,82.59661041386425 148.06567610800266,86.98983116261661 180.27425779774785,119.20678012352437 187.59439000114799,99.43728938512504 149.52970254421234,85.52542425785214 149.52970254421234,97.97288257814944 175.1501652561128,118.47457680106163 183.93432389572263,97.24067917186767 159.04587440565228,82.59661041386425 148.06567610800266,86.98983116261661 178.07821813598275,121.40339007414877 183.93432389572263,99.43728938512504 159.77788762748241,82.59661041386425 148.7976893223822,86.25762771256268 178.07821813598275,118.47457680106163 186.13036356121302,99.43728938512504 159.77788762748241,80.3999999994412 147.33366288244724,86.25762771256268 180.27425779774785,123.59999999962747 175.88217847421765,88.45423805806786" stroke="#4dd2ff" stroke-linecap="round" stroke-linejoin="round" stroke-width="0.5"><title>2022-01-19 2.1km</title></polyline><polyline fill="none" points="28.02001514658332,158.9723088471219 42.637755896896124,171.59999999962747 49.946626268327236,149.66769370343536 20.711144775152206,129.72923093661666 15.39560268074274,144.35077053215355 37.986656568944454,169.60615409072489 45.29552694037557,168.94153878372163 50.61106903105974,150.3323090877384 21.375587534159422,129.06461546942592 16.060045443475246,143.02153971232474 37.32221380621195,168.27692347206175 46.62441246584058,166.9476928440854 49.946626268327236,147.67384753376245 28.02001514658332,129.72923093661666 18.053373727947474,132.3876927755773 17.388930965214968,146.344616740942 39.315542086958885,168.94153878372163 51.93995455279946,150.3323090877384 28.684457909315825,130.3938463991508 18.053373727947474,132.3876927755773 16.060045443475246,144.35077053215355 37.986656568944454,167.61230815947056 49.28218350932002,149.00307831633836 20.711144775152206,128.3999999994412 15.39560268074274,143.02153971232474 37.986656568944454,167.61230815947056 45.29552694037557,166.9476928440854 49.28218350932002,148.33846292551607 28.684457909315825,129.72923093661666 16.060045443475246,133.05230822972953 16.060045443475246,144.35077053215355 36.65777104347944,167.61230815947056 46.62441246584058,167.61230815947056 53.268840074539185,150.3323090877384 30.013343431055546,131.05846186168492 17.388930965214968,132.3876927755773 16.060045443475246,145.68000133987516 38.65109932795167,166.9476928440854 47.95329798385501,150.3323090877384 26.691129624843597,131.7230773186311 14.731159925460815,135.04615457169712 40.6444276124239,168.94153878372163 49.946626268327236,147.00923213828355 28.02001514658332,129.72923093661666 16.724488206207752,133.05230822972953 18.71781649067998,149.66769370343536 39.315542086958885,169.60615409072489 50.61106903105974,148.33846292551607 25.362244103103876,129.72923093661666 15.39560268074274,133.05230822972953 14.731159925460815,145.68000133987516 37.986656568944454,168.94153878372163 49.28218350932002,147.67384753376245 26.691129624843597,131.7230773186311 16.060045443475246,135.04615457169712 39.97998484969139,170.9353847000748 50.61106903105974,149.00307831633836 26.691129624843597,131.05846186168492 16.060045443475246,134.38153912778944 15.39560268074274,147.00923213828355 37.986656568944454,169.60615409072489 48.617740750312805,149.66769370343536 26.026686865836382,131.05846186168492 16.060045443475246,133.05230822972953 17.388930965214968,147.00923213828355 38.65109932795167,170.2707693958655 51.93995455279946,149.00307831633836 18.053373727947474,132.3876927755773 16.724488206207752,146.344616740942 37.986656568944454,168.94153878372163 46.62441246584058,168.27692347206175 51.93995455279946,149.66769370343536 17.388930965214968,131.05846186168492 17.388930965214968,147.00923213828355 35.32888552173972,168.94153878372163 44.63108418136835,169.60615409072489 36.65777104347944,152.9907705988735 43.30219865590334,160.3015395393595 47.2888552211225,150.3323090877384" stroke="#4dd2ff" stroke-linecap="round" stroke-linejoin="round" stroke-width="0.5"><title>2022-01-10 2.8km</title></polyline><polyline fill="none" points="118.2487770486623,163.69014267111197 102.43317027390003,153.3464818522334 101.82487770542502,159.73521369928494 111.86170508340001,170.6873241965659 116.72804562933743,162.16901616798714 101.82487770542502,154.5633831974119 102.43317027390003,160.95211494341493 112.46999765187502,170.38309892592952 116.11975306086242,161.56056555826217 106.99536453559995,154.86760853091255 102.43317027390003,156.08450985187665 112.16585136763752,170.6873241965659 116.42389934509993,161.56056555826217 106.08292568288743,154.5633831974119 101.52073142305017,156.08450985187665 112.16585136763752,170.6873241965659 116.42389934509993,161.2563402513042 106.38707196898758,154.25915786251426 102.43317027390003,155.47605919418857 111.86170508340001,170.38309892592952 117.03219191357493,162.16901616798714 106.08292568288743,154.5633831974119 101.82487770542502,156.08450985187665 111.86170508340001,171.60000000009313 117.03219191357493,161.56056555826217 102.12902398966253,154.86760853091255 102.12902398966253,161.56056555826217 112.16585136763752,170.99154946533963 117.94463076628745,161.86479086335748 101.82487770542502,155.47605919418857 101.82487770542502,160.95211494341493 111.5575587991625,170.38309892592952 116.42389934509993,161.56056555826217 103.04146284237504,154.25915786251426 101.82487770542502,160.03943901276216 108.82024224102497,166.12394501361996 114.9031679239124,160.64788963412866 103.04146284237504,154.25915786251426 101.52073142305017,160.34366432391107 111.25341251306236,170.38309892592952 114.9031679239124,170.07887365436181 117.33633819781244,161.86479086335748 106.99536453559995,154.25915786251426 101.82487770542502,156.08450985187665 112.46999765187502,171.60000000009313 116.11975306086242,161.56056555826217 105.77877940051258,154.5633831974119 101.52073142305017,156.3887351793237 112.77414393424988,171.60000000009313 116.72804562933743,162.16901616798714 102.73731655813754,154.5633831974119 101.52073142305017,159.73521369928494 107.29951081983745,167.94929671939462 114.29487535730004,170.99154946533963 117.33633819781244,162.16901616798714 104.56219426356256,153.95493252761662 101.52073142305017,162.16901616798714 113.38243650458753,171.60000000009313 115.20731420814991,160.64788963412866 104.56219426356256,152.43380582984537 99.69585371762514,140.2647911645472 81.7512229513377,128.40000000037253" stroke="#4dd2ff" stroke-linecap="round" stroke-linejoin="round" stroke-width="0.5"><title>2022-01-04 2.5km</title></polyline><polyline fill="none" points="160.8584786169231,162.0000009359792 173.88366612792015,171.59999999962747 181.42456416785717,153.08571561146528 151.26097202673554,132.51428618002683 147.1477549150586,146.22857274021953 168.39937664940953,170.22857159376144 181.42456416785717,151.71428705845028 151.9465082101524,131.14285746403039 147.1477549150586,143.48571551591158 167.02830428257585,169.54285738803446 182.110100351274,148.97142992168665 161.54401480033994,129.7714287377894 152.63204439356923,131.8285718234256 150.5754358395934,145.54285843856633 168.39937664940953,170.22857159376144 183.4811727181077,151.71428705845028 151.26097202673554,131.8285718234256 149.20436347275972,144.8571441322565 167.02830428257585,168.8571431795135 175.25473850220442,168.8571431795135 182.79563653469086,149.65714420937002 153.31758058071136,130.4571431009099 149.88989965617657,143.48571551591158 167.02830428257585,169.54285738803446 184.85224509239197,151.0285727782175 162.22955098375678,129.7714287377894 151.26097202673554,131.8285718234256 148.5188272856176,144.17142982501537 167.02830428257585,168.8571431795135 183.4811727181077,151.71428705845028 153.31758058071136,128.3999999994412 147.83329109847546,142.80000120121986 167.7138404622674,168.17142896633595 182.79563653469086,149.65714420937002 148.5188272856176,131.8285718234256 147.83329109847546,144.8571441322565 167.02830428257585,169.54285738803446 175.25473850220442,168.8571431795135 182.79563653469086,148.97142992168665 160.17294242978096,131.14285746403039 149.88989965617657,133.2000005338341 167.7138404622674,168.8571431795135 182.79563653469086,151.0285727782175 159.48740624636412,129.08571436814964 149.88989965617657,131.14285746403039 147.83329109847546,144.8571441322565 168.39937664940953,169.54285738803446 183.4811727181077,149.65714420937002 150.5754358395934,131.14285746403039 147.83329109847546,144.17142982501537 166.3427680954337,168.17142896633595 175.94027468562126,168.8571431795135 185.5377812758088,151.0285727782175 151.9465082101524,128.3999999994412 146.46221872791648,144.8571441322565 167.02830428257585,167.48571475222707 176.6258108727634,167.48571475222707 180.0534917972982,150.34285849519074" stroke="#4dd2ff" stroke-linecap="round" stroke-linejoin="round" stroke-width="0.5"><title>2021-12-13 2.2km</title></polyline><polyline fill="none" points="43.858313667122275,182.83975856995676 41.846412918530405,180.69317265367135 39.02975187078118,183.376405006391 38.22499157162383,183.4434858096065 38.89562515425496,182.70559695828706 33.19523970060982,183.30932420270983 33.73174656671472,182.0347888834076 29.97619850328192,185.3888289903989 21.928595509612933,179.1503138571279 17.1670970718842,179.08323303668294 20.8555817771703,190.28572634828743 25.48295349860564,195.5180260632187 27.628980963258073,200.41492048022337 27.42779088858515,207.92796120850835 28.500804621027783,210.6111892303452 25.348826781846583,213.0260940855369 27.494854246964678,216.7155313930707 27.15953745529987,218.45962874905672 26.01946036471054,215.77640197286382 34.402380149578676,218.05714475980494 29.238501562038437,216.11180534330197 25.013509990647435,217.45341875799932 24.409939765930176,219.1304353766609 23.40398939163424,219.1304353766609 25.281763423467055,219.59999999997672 22.800419167149812,217.45341875799932 25.14763670694083,215.44099859602284 34.80476029939018,217.7217414281331 36.146027464885265,218.99627405311912 37.017851122654974,217.5204994258238 38.694435079582036,217.11801541422028 21.99565886775963,186.59628326562233 19.44725125329569,179.75404122914188 22.196848942665383,180.02236449858174 24.141686332644895,177.74161657178774 25.080573348561302,178.74782893049996 25.214700065320358,176.40000000002328 23.13573595858179,177.94285904837307 24.477003124309704,176.86956581228878 32.18928932631388,183.71180902037304 33.39642977551557,182.90683937526774 36.54840761469677,183.9801322268322 41.64522284409031,180.89441509486642 44.86426404141821,182.77267776418012 48.61981210485101,177.07080829923507 50.8329029281158,177.2049699559575" stroke="#4dd2ff" stroke-linecap="round" stroke-linejoin="round" stroke-width="0.5"><title>2021-11-30 3.6km</title></polyline><polyline fill="none" points="121.46687211096287,211.97101972595556 120.5793528505601,211.59372553767753 115.47611710324418,207.48787536320742 109.39661016955506,204.86900718076504 104.55963020038325,203.62615405168617 104.11587057018187,204.07003020113916 102.58489984588232,203.67054166822345 99.70046224957332,200.96289640892064 86.8758089367766,192.12974939399282 86.40986132516991,190.93128112429986 86.49861325114034,190.28765916847624 85.4335901386803,190.28765916847624 85.25608628662303,190.66495480685262 83.9691833590623,189.97694509394933 79.59815100161359,185.82669113611337 78.86594761174638,184.3175071045407 78.79938366718125,185.09429305471713 78.40000000002328,185.20526246723603 78.9325115561951,185.71572173610912 80.3747303544078,184.05118046782445 79.64252696465701,183.4741393775039 79.6647149460623,183.80704770624288 79.13220338989049,182.83051655156305 79.46502311248332,183.74046604210162 82.2607087828219,187.04735438895295 84.85670261946507,189.3111291611567 85.16733436053619,190.53179164326866 86.45423728809692,190.332046891941 86.45423728809692,190.84250568659627 87.11987673351541,191.46393372068997 94.8191063174745,197.0345890498138 94.97442218801007,197.76698554842733 99.72265023109503,201.1626407764561 102.14114021568093,203.58176643477054 104.31556240376085,204.40293728993856 108.79753466881812,205.31288323082845 114.96579352847766,207.7320070800488 121.59999999997672,213.16948344843695" stroke="#4dd2ff" stroke-linecap="round" stroke-linejoin="round" stroke-width="0.5"><title>2021-11-29 5.7km</title></polyline><polyline fill="none" points="187.59999999997672,213.72943666699575 185.71398230094928,212.6077290996618 186.27469026565086,211.43503461463843 185.91787610622123,209.06415162986377 186.22371681418736,208.70724443777 178.55221238941886,202.5888323316467 176.33486725669354,201.28866900407593 170.4984070797218,198.89228884331533 164.78938053094316,197.49015109764878 164.76389380532783,196.90380249437294 163.48955752211623,196.64886830217438 162.24070796463639,195.85857224170468 159.6920353982132,193.02880167253898 144.40000000002328,182.27056333300425 144.55292035394814,183.49425012874417 159.56460176990367,193.92107180756284 162.47008849564008,196.77633539959788 164.96778761059977,197.6940984253306 169.91221238940489,198.79031519943965 177.4053097346332,201.79853700724198 184.77097345131915,207.76398961996892" stroke="#4dd2ff" stroke-linecap="round" stroke-linejoin="round" stroke-width="0.5"><title>2021-11-08 4.6km</title></polyline><polyline fill="none" points="18.33545042120386,238.2707541420823 22.815035644802265,242.44344515918056 25.362799740745686,243.64764412175282 25.446791963651776,244.40376894691144 31.9141931302147,249.83666346076643 32.922099805553444,249.05253461329266 33.6780298120575,249.3045760380628 34.51795204158407,248.35241949753254 35.13389500975609,248.4644379207166 37.14970836043358,249.8926726608479 38.74556059634779,250.34074624537607 43.81309138040524,254.03735223630792 49.44057031755801,255.4655858525948 53.89215813355986,254.70946220925543 54.172132209991105,255.49359043044387 53.94815294886939,256.6977871726558 54.59209332475439,256.36173228846746 54.28412184061017,256.08168653940083 55.59999999997672,256.08168653940083 54.452106286538765,255.54959958576364 54.67608554766048,256.277718564932 54.3401166559197,256.2217094153166 55.40401814656798,256.41774143700604 53.89215813355986,256.6137734531658 53.22022034996189,260.002326019865 52.46429034357425,261.2905356620613 51.596370706451125,266.66740816787933 48.600648088147864,266.4713764292246 46.920803629327565,267.33951694509597 45.940894361701794,267.1434852249804 42.553208036348224,263.8109451557102 42.637200259254314,263.1948451398639 42.1052495141048,262.5227359707351 42.245236552204005,261.09450377506437 44.59701879450586,258.882143532217 38.77355800382793,258.6020978827146 38.57757615041919,257.2018694692233 36.81373946857639,254.70946220925543 33.56604018143844,251.23689332947833 25.390797148342244,244.29175045937882 25.362799740745686,243.731657995173 24.29889825009741,243.45161174648092 22.703046014299616,242.30342201064923 16.23564484762028,236.25441934372066 16.15165262471419,235.49829364565085 13.799870382295921,232.05371999487397 13.855865197605453,231.18557515056455 13.323914452223107,230.6534863221459 14.443810758180916,229.1692383249174 13.967854828108102,228.77717276397743 13.911860012914985,227.26491968138725 12.400000000023283,226.2847554727632 12.623979261144996,225.24858173227403 13.071937783504836,225.05254884526948 12.567984445835464,224.66048305490403" stroke="#4dd2ff" stroke-linecap="round" stroke-linejoin="round" stroke-width="0.5"><title>2021-07-04 5.1km</title></polyline></svg>